JosefinSlab-BoldItalic.ufo
<glyph name="exclam" format="2">
  <advance width="273"/>
  <unicode hex="0021"/>
  <outline>
    <contour>
      <point x="144" y="762" type="line"/>
      <point x="246" y="762" type="line"/>
      <point x="174" y="168" type="line"/>
      <point x="71" y="168" type="line"/>
    </contour>
    <contour>
      <point x="101" y="-10" type="qcurve"/>
      <point x="77" y="-10"/>
      <point x="44" y="26"/>
      <point x="47" y="53" type="qcurve"/>
      <point x="51" y="80"/>
      <point x="93" y="114"/>
      <point x="116" y="114" type="qcurve"/>
      <point x="139" y="114"/>
      <point x="172" y="80"/>
      <point x="169" y="53" type="qcurve"/>
      <point x="165" y="26"/>
      <point x="124" y="-10"/>
    </contour>
  </outline>
</glyph>
<glyph name="quotedbl" format="2">
  <advance width="357"/>
  <unicode hex="0022"/>
  <outline>
    <contour>
      <point x="220" y="479" type="line"/>
      <point x="251" y="731" type="line"/>
      <point x="352" y="731" type="line"/>
      <point x="344" y="668"/>
      <point x="325" y="543"/>
      <point x="317" y="479" type="qcurve"/>
    </contour>
    <contour>
      <point x="85" y="479" type="line"/>
      <point x="115" y="731" type="line"/>
      <point x="217" y="731" type="line"/>
      <point x="209" y="668"/>
      <point x="190" y="543"/>
      <point x="182" y="479" type="qcurve"/>
    </contour>
  </outline>
</glyph>
<glyph name="numbersign" format="2">
  <advance width="584"/>
  <unicode hex="0023"/>
  <outline>
    <contour>
      <point x="257" y="0" type="line"/>
      <point x="300" y="181" type="line"/>
      <point x="218" y="181" type="line"/>
      <point x="207" y="135"/>
      <point x="184" y="46"/>
      <point x="174" y="0" type="qcurve"/>
      <point x="70" y="0" type="line"/>
      <point x="113" y="181" type="line"/>
      <point x="27" y="181" type="line"/>
      <point x="33" y="207"/>
      <point x="46" y="256"/>
      <point x="51" y="281" type="qcurve"/>
      <point x="138" y="281" type="line"/>
      <point x="144" y="303"/>
      <point x="153" y="346"/>
      <point x="159" y="368" type="qcurve"/>
      <point x="72" y="368" type="line"/>
      <point x="79" y="393"/>
      <point x="89" y="442"/>
      <point x="95" y="467" type="qcurve"/>
      <point x="182" y="467" type="line"/>
      <point x="194" y="515"/>
      <point x="216" y="606"/>
      <point x="229" y="653" type="qcurve"/>
      <point x="332" y="653" type="line"/>
      <point x="320" y="606"/>
      <point x="297" y="515"/>
      <point x="286" y="467" type="qcurve"/>
      <point x="369" y="467" type="line"/>
      <point x="380" y="515"/>
      <point x="404" y="606"/>
      <point x="415" y="653" type="qcurve"/>
      <point x="520" y="653" type="line"/>
      <point x="507" y="606"/>
      <point x="484" y="515"/>
      <point x="473" y="467" type="qcurve"/>
      <point x="567" y="467" type="line"/>
      <point x="562" y="442"/>
      <point x="551" y="393"/>
      <point x="545" y="368" type="qcurve"/>
      <point x="450" y="368" type="line"/>
      <point x="444" y="346"/>
      <point x="434" y="303"/>
      <point x="429" y="281" type="qcurve"/>
      <point x="524" y="281" type="line"/>
      <point x="499" y="181" type="line"/>
      <point x="404" y="181" type="line"/>
      <point x="393" y="135"/>
      <point x="371" y="46"/>
      <point x="360" y="0" type="qcurve"/>
    </contour>
    <contour>
      <point x="262" y="368" type="line"/>
      <point x="257" y="346"/>
      <point x="247" y="303"/>
      <point x="242" y="281" type="qcurve"/>
      <point x="325" y="281" type="line"/>
      <point x="345" y="368" type="line"/>
    </contour>
  </outline>
</glyph>
<glyph name="dollar" format="2">
  <advance width="575"/>
  <unicode hex="0024"/>
  <outline>
    <contour>
      <point x="427" y="541" type="line"/>
      <point x="435" y="609" type="line"/>
      <point x="398" y="619"/>
      <point x="361" y="621" type="qcurve"/>
      <point x="338" y="428" type="line"/>
      <point x="371" y="415"/>
      <point x="438" y="384"/>
      <point x="493" y="338"/>
      <point x="527" y="273"/>
      <point x="527" y="227" type="qcurve"/>
      <point x="527" y="181"/>
      <point x="498" y="102"/>
      <point x="438" y="41"/>
      <point x="347" y="1"/>
      <point x="284" y="-5" type="qcurve"/>
      <point x="277" y="-68" type="line"/>
      <point x="207" y="-68" type="line"/>
      <point x="214" y="-8" type="line"/>
      <point x="173" y="-7"/>
      <point x="111" y="5"/>
      <point x="64" y="24"/>
      <point x="29" y="48"/>
      <point x="15" y="60" type="qcurve"/>
      <point x="14" y="60" type="line"/>
      <point x="14" y="61" type="line"/>
      <point x="31" y="198" type="line"/>
      <point x="146" y="198" type="line"/>
      <point x="138" y="132" type="line"/>
      <point x="161" y="121"/>
      <point x="208" y="112"/>
      <point x="229" y="112" type="qcurve"/>
      <point x="256" y="335" type="line"/>
      <point x="224" y="348"/>
      <point x="163" y="378"/>
      <point x="114" y="418"/>
      <point x="84" y="472"/>
      <point x="84" y="510" type="qcurve"/>
      <point x="84" y="546"/>
      <point x="112" y="618"/>
      <point x="167" y="678"/>
      <point x="250" y="722"/>
      <point x="305" y="729" type="qcurve"/>
      <point x="313" y="796" type="line"/>
      <point x="383" y="796" type="line"/>
      <point x="375" y="732" type="line"/>
      <point x="410" y="730"/>
      <point x="474" y="717"/>
      <point x="524" y="702"/>
      <point x="557" y="689"/>
      <point x="560" y="688" type="qcurve"/>
      <point x="542" y="541" type="line"/>
    </contour>
    <contour>
      <point x="406" y="218" type="qcurve"/>
      <point x="406" y="250"/>
      <point x="358" y="291"/>
      <point x="323" y="308" type="qcurve"/>
      <point x="300" y="121" type="line"/>
      <point x="319" y="125"/>
      <point x="357" y="141"/>
      <point x="387" y="165"/>
      <point x="406" y="197"/>
    </contour>
    <contour>
      <point x="206" y="529" type="qcurve"/>
      <point x="206" y="503"/>
      <point x="242" y="470"/>
      <point x="271" y="456" type="qcurve"/>
      <point x="291" y="614" type="line"/>
      <point x="251" y="603"/>
      <point x="206" y="559"/>
    </contour>
  </outline>
</glyph>
<glyph name="ampersand" format="2">
  <advance width="685"/>
  <unicode hex="0026"/>
  <outline>
    <contour>
      <point x="645" y="107" type="line"/>
      <point x="632" y="0" type="line"/>
      <point x="498" y="0" type="line"/>
      <point x="497" y="0"/>
      <point x="469" y="40"/>
      <point x="446" y="72" type="qcurve"/>
      <point x="409" y="36"/>
      <point x="301" y="-11"/>
      <point x="236" y="-11" type="qcurve"/>
      <point x="188" y="-11"/>
      <point x="109" y="18"/>
      <point x="53" y="70"/>
      <point x="22" y="142"/>
      <point x="22" y="185" type="qcurve"/>
      <point x="22" y="229"/>
      <point x="52" y="307"/>
      <point x="105" y="370"/>
      <point x="177" y="415"/>
      <point x="218" y="426" type="qcurve"/>
      <point x="208" y="444"/>
      <point x="192" y="478"/>
      <point x="187" y="492" type="qcurve"/>
      <point x="176" y="520"/>
      <point x="163" y="569"/>
      <point x="163" y="594" type="qcurve"/>
      <point x="163" y="632"/>
      <point x="195" y="693"/>
      <point x="249" y="736"/>
      <point x="319" y="759"/>
      <point x="357" y="760" type="qcurve"/>
      <point x="406" y="762"/>
      <point x="484" y="735"/>
      <point x="504" y="720" type="qcurve"/>
      <point x="441" y="645" type="line"/>
      <point x="434" y="651"/>
      <point x="408" y="663"/>
      <point x="389" y="666" type="qcurve"/>
      <point x="369" y="669"/>
      <point x="325" y="664"/>
      <point x="289" y="646"/>
      <point x="265" y="613"/>
      <point x="265" y="588" type="qcurve"/>
      <point x="265" y="566"/>
      <point x="277" y="531"/>
      <point x="280" y="526" type="qcurve"/>
      <point x="453" y="250" type="line"/>
      <point x="549" y="435" type="line"/>
      <point x="650" y="435" type="line"/>
      <point x="508" y="162" type="line"/>
      <point x="543" y="107" type="line"/>
    </contour>
    <contour>
      <point x="266" y="342" type="qcurve"/>
      <point x="238" y="341"/>
      <point x="186" y="318"/>
      <point x="145" y="279"/>
      <point x="120" y="228"/>
      <point x="120" y="199" type="qcurve"/>
      <point x="120" y="169"/>
      <point x="143" y="125"/>
      <point x="180" y="96"/>
      <point x="228" y="83"/>
      <point x="254" y="83" type="qcurve"/>
      <point x="273" y="83"/>
      <point x="314" y="92"/>
      <point x="351" y="108"/>
      <point x="384" y="130"/>
      <point x="395" y="144" type="qcurve"/>
      <point x="364" y="190"/>
      <point x="296" y="292"/>
    </contour>
  </outline>
</glyph>
<glyph name="quotesingle" format="2">
  <advance width="223"/>
  <unicode hex="0027"/>
  <outline>
    <contour>
      <point x="85" y="479" type="line"/>
      <point x="115" y="731" type="line"/>
      <point x="218" y="731" type="line"/>
      <point x="210" y="668"/>
      <point x="191" y="543"/>
      <point x="183" y="479" type="qcurve"/>
    </contour>
  </outline>
</glyph>
<glyph name="parenright" format="2">
  <advance width="305"/>
  <unicode hex="0029"/>
  <outline>
    <contour>
      <point x="276" y="367" type="qcurve"/>
      <point x="276" y="277"/>
      <point x="235" y="116"/>
      <point x="170" y="-21"/>
      <point x="87" y="-132"/>
      <point x="45" y="-171" type="qcurve"/>
      <point x="-44" y="-150" type="line"/>
      <point x="-6" y="-112"/>
      <point x="71" y="-7"/>
      <point x="132" y="122"/>
      <point x="171" y="274"/>
      <point x="171" y="360" type="qcurve"/>
      <point x="171" y="419"/>
      <point x="154" y="528"/>
      <point x="124" y="622"/>
      <point x="85" y="699"/>
      <point x="63" y="728" type="qcurve"/>
      <point x="87" y="734"/>
      <point x="135" y="747"/>
      <point x="159" y="754" type="qcurve"/>
      <point x="183" y="725"/>
      <point x="226" y="644"/>
      <point x="257" y="544"/>
      <point x="276" y="429"/>
    </contour>
  </outline>
</glyph>
<glyph name="asterisk" format="2">
  <advance width="375"/>
  <unicode hex="002A"/>
  <outline>
    <contour>
      <point x="288" y="575" type="qcurve"/>
      <point x="356" y="533" type="line"/>
      <point x="345" y="518"/>
      <point x="324" y="487"/>
      <point x="313" y="472" type="qcurve"/>
      <point x="296" y="483"/>
      <point x="263" y="504"/>
      <point x="246" y="515" type="qcurve"/>
      <point x="236" y="434" type="line"/>
      <point x="169" y="434" type="line"/>
      <point x="178" y="515" type="line"/>
      <point x="160" y="505"/>
      <point x="122" y="486"/>
      <point x="103" y="475" type="qcurve"/>
      <point x="75" y="536" type="line"/>
      <point x="152" y="576" type="line"/>
      <point x="86" y="619" type="line"/>
      <point x="125" y="676" type="line"/>
      <point x="193" y="634" type="line"/>
      <point x="204" y="720" type="line"/>
      <point x="275" y="720" type="line"/>
      <point x="263" y="634" type="line"/>
      <point x="342" y="675" type="line"/>
      <point x="354" y="646"/>
      <point x="369" y="618" type="qcurve"/>
      <point x="348" y="607"/>
      <point x="309" y="586"/>
    </contour>
  </outline>
</glyph>
<glyph name="hyphen" format="2">
  <advance width="297"/>
  <unicode hex="002D"/>
  <outline>
    <contour>
      <point x="40" y="171" type="line"/>
      <point x="53" y="272" type="line"/>
      <point x="240" y="272" type="line"/>
      <point x="227" y="171" type="line"/>
    </contour>
  </outline>
</glyph>
<glyph name="period" format="2">
  <advance width="221"/>
  <unicode hex="002E"/>
  <outline>
    <contour>
      <point x="23" y="55" type="qcurve"/>
      <point x="23" y="70"/>
      <point x="36" y="95"/>
      <point x="56" y="113"/>
      <point x="81" y="124"/>
      <point x="93" y="124" type="qcurve"/>
      <point x="113" y="124"/>
      <point x="146" y="91"/>
      <point x="146" y="68" type="qcurve"/>
      <point x="146" y="53"/>
      <point x="133" y="28"/>
      <point x="113" y="10"/>
      <point x="89" y="0"/>
      <point x="78" y="0" type="qcurve"/>
      <point x="56" y="0"/>
      <point x="23" y="30"/>
    </contour>
  </outline>
</glyph>
<glyph name="zero" format="2">
  <advance width="636"/>
  <unicode hex="0030"/>
  <outline>
    <contour>
      <point x="49" y="287" type="qcurve"/>
      <point x="50" y="383"/>
      <point x="105" y="527"/>
      <point x="194" y="622"/>
      <point x="307" y="668"/>
      <point x="367" y="668" type="qcurve"/>
      <point x="427" y="668"/>
      <point x="521" y="621"/>
      <point x="583" y="533"/>
      <point x="607" y="407"/>
      <point x="597" y="328" type="qcurve"/>
      <point x="586" y="248"/>
      <point x="528" y="122"/>
      <point x="444" y="36"/>
      <point x="339" y="-9"/>
      <point x="281" y="-9" type="qcurve"/>
      <point x="230" y="-9"/>
      <point x="143" y="31"/>
      <point x="81" y="106"/>
      <point x="47" y="216"/>
    </contour>
    <contour>
      <point x="156" y="330" type="qcurve"/>
      <point x="149" y="282"/>
      <point x="164" y="196"/>
      <point x="201" y="131"/>
      <point x="258" y="92"/>
      <point x="293" y="92" type="qcurve"/>
      <point x="331" y="92"/>
      <point x="403" y="135"/>
      <point x="458" y="209"/>
      <point x="493" y="307"/>
      <point x="495" y="361" type="qcurve"/>
      <point x="497" y="395"/>
      <point x="485" y="469"/>
      <point x="452" y="530"/>
      <point x="397" y="569"/>
      <point x="356" y="569" type="qcurve"/>
      <point x="305" y="569"/>
      <point x="232" y="515"/>
      <point x="185" y="440"/>
      <point x="160" y="358"/>
    </contour>
  </outline>
</glyph>
<glyph name="two" format="2">
  <advance width="570"/>
  <unicode hex="0032"/>
  <outline>
    <contour>
      <point x="275" y="100" type="qcurve"/>
      <point x="404" y="100" type="line"/>
      <point x="411" y="151" type="line"/>
      <point x="518" y="151" type="line"/>
      <point x="499" y="0" type="line"/>
      <point x="16" y="0" type="line"/>
      <point x="89" y="66"/>
      <point x="226" y="187"/>
      <point x="331" y="301"/>
      <point x="395" y="407"/>
      <point x="395" y="457" type="qcurve"/>
      <point x="395" y="485"/>
      <point x="376" y="527"/>
      <point x="346" y="555"/>
      <point x="311" y="569"/>
      <point x="295" y="569" type="qcurve"/>
      <point x="257" y="569"/>
      <point x="207" y="541"/>
      <point x="177" y="501"/>
      <point x="164" y="457"/>
      <point x="164" y="441" type="qcurve"/>
      <point x="164" y="387"/>
      <point x="192" y="356" type="qcurve"/>
      <point x="174" y="339"/>
      <point x="139" y="308"/>
      <point x="122" y="293" type="qcurve"/>
      <point x="106" y="302"/>
      <point x="83" y="338"/>
      <point x="68" y="380"/>
      <point x="60" y="424"/>
      <point x="60" y="442" type="qcurve"/>
      <point x="60" y="484"/>
      <point x="94" y="565"/>
      <point x="158" y="629"/>
      <point x="249" y="668"/>
      <point x="307" y="668" type="qcurve"/>
      <point x="352" y="668"/>
      <point x="424" y="637"/>
      <point x="473" y="584"/>
      <point x="500" y="514"/>
      <point x="500" y="475" type="qcurve"/>
      <point x="500" y="426"/>
      <point x="465" y="332"/>
      <point x="404" y="240"/>
      <point x="322" y="148"/>
    </contour>
  </outline>
</glyph>
<glyph name="three" format="2">
  <advance width="470"/>
  <unicode hex="0033"/>
  <outline>
    <contour>
      <point x="100" y="508" type="line"/>
      <point x="106" y="559" type="line"/>
      <point x="118" y="660" type="line"/>
      <point x="471" y="660" type="line"/>
      <point x="430" y="600"/>
      <point x="344" y="482"/>
      <point x="303" y="422" type="qcurve"/>
      <point x="354" y="395"/>
      <point x="412" y="300"/>
      <point x="412" y="240" type="qcurve"/>
      <point x="412" y="189"/>
      <point x="369" y="99"/>
      <point x="298" y="32"/>
      <point x="205" y="-8"/>
      <point x="156" y="-8" type="qcurve"/>
      <point x="108" y="-8"/>
      <point x="26" y="32"/>
      <point x="-1" y="65" type="qcurve"/>
      <point x="83" y="135" type="line"/>
      <point x="112" y="92"/>
      <point x="169" y="92" type="qcurve"/>
      <point x="196" y="92"/>
      <point x="246" y="114"/>
      <point x="285" y="151"/>
      <point x="308" y="201"/>
      <point x="308" y="228" type="qcurve"/>
      <point x="308" y="251"/>
      <point x="292" y="291"/>
      <point x="263" y="321"/>
      <point x="223" y="338"/>
      <point x="199" y="338" type="qcurve"/>
      <point x="161" y="338"/>
      <point x="130" y="322" type="qcurve"/>
      <point x="167" y="382"/>
      <point x="260" y="499"/>
      <point x="297" y="559" type="qcurve"/>
      <point x="204" y="559" type="line"/>
      <point x="198" y="508" type="line"/>
    </contour>
  </outline>
</glyph>
<glyph name="five" format="2">
  <advance width="459"/>
  <unicode hex="0035"/>
  <outline>
    <contour>
      <point x="299" y="508" type="line"/>
      <point x="305" y="561" type="line"/>
      <point x="201" y="561" type="line"/>
      <point x="185" y="434" type="line"/>
      <point x="191" y="436"/>
      <point x="200" y="438"/>
      <point x="208" y="438" type="qcurve"/>
      <point x="256" y="438"/>
      <point x="331" y="407"/>
      <point x="383" y="354"/>
      <point x="410" y="283"/>
      <point x="410" y="243" type="qcurve"/>
      <point x="410" y="190"/>
      <point x="367" y="99"/>
      <point x="296" y="31"/>
      <point x="203" y="-8"/>
      <point x="153" y="-8" type="qcurve"/>
      <point x="108" y="-8"/>
      <point x="33" y="25"/>
      <point x="6" y="55" type="qcurve"/>
      <point x="27" y="73"/>
      <point x="69" y="107"/>
      <point x="89" y="124" type="qcurve"/>
      <point x="103" y="110"/>
      <point x="143" y="92"/>
      <point x="167" y="92" type="qcurve"/>
      <point x="194" y="92"/>
      <point x="244" y="114"/>
      <point x="283" y="151"/>
      <point x="306" y="201"/>
      <point x="306" y="228" type="qcurve"/>
      <point x="306" y="251"/>
      <point x="289" y="291"/>
      <point x="259" y="321"/>
      <point x="219" y="339"/>
      <point x="196" y="339" type="qcurve"/>
      <point x="170" y="339"/>
      <point x="109" y="326"/>
      <point x="80" y="299" type="qcurve"/>
      <point x="124" y="660" type="line"/>
      <point x="417" y="660" type="line"/>
      <point x="398" y="508" type="line"/>
    </contour>
  </outline>
</glyph>
<glyph name="eight" format="2">
  <advance width="531"/>
  <unicode hex="0038"/>
  <outline>
    <contour>
      <point x="227" y="496" type="qcurve"/>
      <point x="227" y="472"/>
      <point x="263" y="438"/>
      <point x="287" y="438" type="qcurve"/>
      <point x="315" y="438"/>
      <point x="361" y="478"/>
      <point x="361" y="507" type="qcurve"/>
      <point x="361" y="532"/>
      <point x="327" y="569"/>
      <point x="304" y="569" type="qcurve"/>
      <point x="290" y="569"/>
      <point x="262" y="557"/>
      <point x="240" y="537"/>
      <point x="227" y="510"/>
    </contour>
    <contour>
      <point x="137" y="203" type="qcurve"/>
      <point x="137" y="180"/>
      <point x="153" y="139"/>
      <point x="180" y="109"/>
      <point x="218" y="92"/>
      <point x="241" y="92" type="qcurve"/>
      <point x="268" y="92"/>
      <point x="318" y="114"/>
      <point x="357" y="151"/>
      <point x="381" y="201"/>
      <point x="381" y="228" type="qcurve"/>
      <point x="381" y="274"/>
      <point x="322" y="337"/>
      <point x="276" y="339" type="qcurve"/>
      <point x="250" y="339"/>
      <point x="200" y="319"/>
      <point x="161" y="282"/>
      <point x="137" y="232"/>
    </contour>
    <contour>
      <point x="30" y="188" type="qcurve"/>
      <point x="30" y="229"/>
      <point x="53" y="296"/>
      <point x="90" y="349"/>
      <point x="137" y="386"/>
      <point x="161" y="398" type="qcurve"/>
      <point x="142" y="414"/>
      <point x="126" y="458"/>
      <point x="126" y="478" type="qcurve"/>
      <point x="126" y="518"/>
      <point x="157" y="588"/>
      <point x="208" y="639"/>
      <point x="275" y="668"/>
      <point x="312" y="668" type="qcurve"/>
      <point x="344" y="668"/>
      <point x="398" y="646"/>
      <point x="437" y="605"/>
      <point x="459" y="549"/>
      <point x="459" y="516" type="qcurve"/>
      <point x="459" y="443"/>
      <point x="398" y="398" type="qcurve"/>
      <point x="433" y="378"/>
      <point x="484" y="298"/>
      <point x="484" y="237" type="qcurve"/>
      <point x="484" y="189"/>
      <point x="446" y="100"/>
      <point x="379" y="33"/>
      <point x="285" y="-8"/>
      <point x="229" y="-8" type="qcurve"/>
      <point x="181" y="-8"/>
      <point x="107" y="24"/>
      <point x="56" y="78"/>
      <point x="30" y="149"/>
    </contour>
  </outline>
</glyph>
<glyph name="nine" format="2">
  <advance width="531"/>
  <unicode hex="0039"/>
  <outline>
    <contour>
      <point x="508" y="424" type="qcurve"/>
      <point x="501" y="370"/>
      <point x="456" y="275"/>
      <point x="390" y="192"/>
      <point x="311" y="120"/>
      <point x="231" y="60"/>
      <point x="156" y="11"/>
      <point x="127" y="-8" type="qcurve"/>
      <point x="73" y="71" type="line"/>
      <point x="98" y="86"/>
      <point x="163" y="126"/>
      <point x="226" y="166"/>
      <point x="279" y="203"/>
      <point x="292" y="215" type="qcurve"/>
      <point x="276" y="202"/>
      <point x="257" y="202" type="qcurve"/>
      <point x="214" y="202"/>
      <point x="141" y="233"/>
      <point x="87" y="287"/>
      <point x="56" y="360"/>
      <point x="56" y="402" type="qcurve"/>
      <point x="56" y="452"/>
      <point x="99" y="541"/>
      <point x="170" y="609"/>
      <point x="262" y="648"/>
      <point x="311" y="648" type="qcurve"/>
      <point x="347" y="648"/>
      <point x="424" y="622"/>
      <point x="483" y="568"/>
      <point x="515" y="483"/>
    </contour>
    <contour>
      <point x="402" y="424" type="qcurve"/>
      <point x="405" y="449"/>
      <point x="392" y="494"/>
      <point x="364" y="529"/>
      <point x="323" y="549"/>
      <point x="298" y="549" type="qcurve"/>
      <point x="271" y="549"/>
      <point x="221" y="526"/>
      <point x="182" y="489"/>
      <point x="159" y="439"/>
      <point x="159" y="412" type="qcurve"/>
      <point x="159" y="389"/>
      <point x="176" y="349"/>
      <point x="205" y="319"/>
      <point x="245" y="302"/>
      <point x="268" y="302" type="qcurve"/>
      <point x="293" y="302"/>
      <point x="338" y="321"/>
      <point x="374" y="354"/>
      <point x="399" y="398"/>
    </contour>
  </outline>
</glyph>
<glyph name="colon" format="2">
  <advance width="230"/>
  <unicode hex="003A"/>
  <outline>
    <contour>
      <point x="61" y="333" type="qcurve"/>
      <point x="61" y="348"/>
      <point x="74" y="373"/>
      <point x="94" y="391"/>
      <point x="119" y="402"/>
      <point x="131" y="402" type="qcurve"/>
      <point x="151" y="402"/>
      <point x="183" y="369"/>
      <point x="183" y="346" type="qcurve"/>
      <point x="183" y="331"/>
      <point x="170" y="306"/>
      <point x="151" y="288"/>
      <point x="127" y="278"/>
      <point x="116" y="278" type="qcurve"/>
      <point x="94" y="278"/>
      <point x="61" y="308"/>
    </contour>
    <contour>
      <point x="27" y="55" type="qcurve"/>
      <point x="27" y="70"/>
      <point x="39" y="95"/>
      <point x="59" y="113"/>
      <point x="84" y="124"/>
      <point x="97" y="124" type="qcurve"/>
      <point x="117" y="124"/>
      <point x="149" y="91"/>
      <point x="149" y="68" type="qcurve"/>
      <point x="149" y="53"/>
      <point x="136" y="28"/>
      <point x="117" y="10"/>
      <point x="93" y="0"/>
      <point x="82" y="0" type="qcurve"/>
      <point x="60" y="0"/>
      <point x="27" y="30"/>
    </contour>
  </outline>
</glyph>
<glyph name="equal" format="2">
  <advance width="630"/>
  <unicode hex="003D"/>
  <outline>
    <contour>
      <point x="562" y="204" type="line"/>
      <point x="550" y="104" type="line"/>
      <point x="36" y="104" type="line"/>
      <point x="48" y="204" type="line"/>
    </contour>
    <contour>
      <point x="586" y="401" type="line"/>
      <point x="574" y="301" type="line"/>
      <point x="60" y="301" type="line"/>
      <point x="72" y="401" type="line"/>
    </contour>
  </outline>
</glyph>
<glyph name="greater" format="2">
  <advance width="530"/>
  <unicode hex="003E"/>
  <outline>
    <contour>
      <point x="23" y="-14" type="line"/>
      <point x="40" y="127" type="line"/>
      <point x="255" y="242" type="line"/>
      <point x="69" y="357" type="line"/>
      <point x="86" y="497" type="line"/>
      <point x="190" y="434"/>
      <point x="394" y="306"/>
      <point x="499" y="242" type="qcurve"/>
    </contour>
  </outline>
</glyph>
<glyph name="B" format="2">
  <advance width="643"/>
  <unicode hex="0042"/>
  <outline>
    <contour>
      <point x="11" y="0" type="line"/>
      <point x="24" y="107" type="line"/>
      <point x="103" y="107" type="line"/>
      <point x="166" y="622" type="line"/>
      <point x="87" y="622" type="line"/>
      <point x="100" y="729" type="line"/>
      <point x="379" y="729" type="line"/>
      <point x="479" y="729"/>
      <point x="595" y="653"/>
      <point x="595" y="566" type="qcurve"/>
      <point x="595" y="536"/>
      <point x="582" y="475"/>
      <point x="552" y="421"/>
      <point x="502" y="380"/>
      <point x="466" y="370" type="qcurve"/>
      <point x="488" y="365"/>
      <point x="532" y="344"/>
      <point x="566" y="308"/>
      <point x="587" y="256"/>
      <point x="587" y="221" type="qcurve"/>
      <point x="587" y="162"/>
      <point x="541" y="79"/>
      <point x="466" y="25"/>
      <point x="369" y="0"/>
      <point x="319" y="0" type="qcurve"/>
    </contour>
    <contour>
      <point x="252" y="316" type="line"/>
      <point x="227" y="111" type="line"/>
      <point x="323" y="111" type="line"/>
      <point x="352" y="111"/>
      <point x="405" y="125"/>
      <point x="444" y="154"/>
      <point x="467" y="197"/>
      <point x="467" y="226" type="qcurve"/>
      <point x="467" y="251"/>
      <point x="445" y="286"/>
      <point x="408" y="307"/>
      <point x="361" y="316"/>
      <point x="336" y="316" type="qcurve"/>
    </contour>
    <contour>
      <point x="289" y="618" type="line"/>
      <point x="264" y="420" type="line"/>
      <point x="356" y="420" type="line"/>
      <point x="384" y="420"/>
      <point x="426" y="439"/>
      <point x="455" y="470"/>
      <point x="470" y="512"/>
      <point x="470" y="535" type="qcurve"/>
      <point x="470" y="577"/>
      <point x="416" y="618"/>
      <point x="370" y="618" type="qcurve"/>
    </contour>
  </outline>
</glyph>
<glyph name="D" format="2">
  <advance width="754"/>
  <unicode hex="0044"/>
  <outline>
    <contour>
      <point x="368" y="729" type="line"/>
      <point x="467" y="729"/>
      <point x="605" y="671"/>
      <point x="690" y="578"/>
      <point x="728" y="459"/>
      <point x="728" y="398" type="qcurve"/>
      <point x="728" y="306"/>
      <point x="659" y="159"/>
      <point x="544" y="55"/>
      <point x="395" y="0"/>
      <point x="314" y="0" type="qcurve"/>
      <point x="11" y="0" type="line"/>
      <point x="24" y="107" type="line"/>
      <point x="103" y="107" type="line"/>
      <point x="166" y="622" type="line"/>
      <point x="87" y="622" type="line"/>
      <point x="100" y="729" type="line"/>
    </contour>
    <contour>
      <point x="310" y="116" type="line"/>
      <point x="372" y="116"/>
      <point x="479" y="153"/>
      <point x="559" y="224"/>
      <point x="604" y="328"/>
      <point x="604" y="395" type="qcurve"/>
      <point x="604" y="453"/>
      <point x="564" y="536"/>
      <point x="501" y="587"/>
      <point x="423" y="611"/>
      <point x="386" y="611" type="qcurve"/>
      <point x="288" y="611" type="line"/>
      <point x="273" y="487"/>
      <point x="243" y="240"/>
      <point x="227" y="116" type="qcurve"/>
    </contour>
  </outline>
</glyph>
<glyph name="E" format="2">
  <advance width="665"/>
  <unicode hex="0045"/>
  <outline>
    <contour>
      <point x="527" y="547" type="line"/>
      <point x="535" y="618" type="line"/>
      <point x="289" y="618" type="line"/>
      <point x="265" y="422" type="line"/>
      <point x="586" y="422" type="line"/>
      <point x="572" y="308" type="line"/>
      <point x="251" y="308" type="line"/>
      <point x="227" y="114" type="line"/>
      <point x="488" y="114" type="line"/>
      <point x="498" y="191" type="line"/>
      <point x="613" y="191" type="line"/>
      <point x="603" y="114" type="line"/>
      <point x="597" y="66" type="line"/>
      <point x="589" y="0" type="line"/>
      <point x="11" y="0" type="line"/>
      <point x="24" y="107" type="line"/>
      <point x="103" y="107" type="line"/>
      <point x="166" y="622" type="line"/>
      <point x="87" y="622" type="line"/>
      <point x="100" y="729" type="line"/>
      <point x="664" y="729" type="line"/>
      <point x="651" y="618" type="line"/>
      <point x="650" y="618" type="line"/>
      <point x="642" y="547" type="line"/>
    </contour>
  </outline>
</glyph>
<glyph name="F" format="2">
  <advance width="595"/>
  <unicode hex="0046"/>
  <outline>
    <contour>
      <point x="483" y="547" type="line"/>
      <point x="491" y="618" type="line"/>
      <point x="289" y="618" type="line"/>
      <point x="265" y="422" type="line"/>
      <point x="541" y="422" type="line"/>
      <point x="527" y="308" type="line"/>
      <point x="251" y="308" type="line"/>
      <point x="226" y="107" type="line"/>
      <point x="307" y="107" type="line"/>
      <point x="294" y="0" type="line"/>
      <point x="11" y="0" type="line"/>
      <point x="24" y="107" type="line"/>
      <point x="103" y="107" type="line"/>
      <point x="166" y="622" type="line"/>
      <point x="87" y="622" type="line"/>
      <point x="100" y="729" type="line"/>
      <point x="620" y="729" type="line"/>
      <point x="607" y="618" type="line"/>
      <point x="606" y="618" type="line"/>
      <point x="598" y="547" type="line"/>
    </contour>
  </outline>
</glyph>
<glyph name="L" format="2">
  <advance width="621"/>
  <unicode hex="004C"/>
  <outline>
    <contour>
      <point x="383" y="729" type="line"/>
      <point x="370" y="622" type="line"/>
      <point x="289" y="622" type="line"/>
      <point x="227" y="116" type="line"/>
      <point x="468" y="116" type="line"/>
      <point x="478" y="191" type="line"/>
      <point x="593" y="191" type="line"/>
      <point x="577" y="66" type="line"/>
      <point x="575" y="66" type="line"/>
      <point x="567" y="0" type="line"/>
      <point x="11" y="0" type="line"/>
      <point x="24" y="107" type="line"/>
      <point x="103" y="107" type="line"/>
      <point x="166" y="622" type="line"/>
      <point x="87" y="622" type="line"/>
      <point x="100" y="729" type="line"/>
    </contour>
  </outline>
</glyph>
<glyph name="Q" format="2">
  <advance width="822"/>
  <unicode hex="0051"/>
  <outline>
    <contour>
      <point x="42" y="326" type="qcurve"/>
      <point x="42" y="408"/>
      <point x="111" y="558"/>
      <point x="228" y="670"/>
      <point x="379" y="737"/>
      <point x="462" y="737" type="qcurve"/>
      <point x="533" y="737"/>
      <point x="654" y="683"/>
      <point x="743" y="591"/>
      <point x="793" y="468"/>
      <point x="793" y="399" type="qcurve"/>
      <point x="793" y="343"/>
      <point x="741" y="196"/>
      <point x="676" y="107" type="qcurve"/>
      <point x="783" y="116" type="line"/>
      <point x="769" y="0" type="line"/>
      <point x="450" y="0" type="line"/>
      <point x="430" y="-4"/>
      <point x="391" y="-8"/>
      <point x="371" y="-8" type="qcurve"/>
      <point x="300" y="-8"/>
      <point x="180" y="44"/>
      <point x="92" y="134"/>
      <point x="42" y="256"/>
    </contour>
    <contour>
      <point x="166" y="337" type="qcurve"/>
      <point x="166" y="289"/>
      <point x="199" y="205"/>
      <point x="258" y="144"/>
      <point x="340" y="108"/>
      <point x="388" y="108" type="qcurve"/>
      <point x="443" y="108"/>
      <point x="545" y="153"/>
      <point x="623" y="229"/>
      <point x="670" y="332"/>
      <point x="670" y="389" type="qcurve"/>
      <point x="670" y="437"/>
      <point x="637" y="521"/>
      <point x="578" y="583"/>
      <point x="497" y="619"/>
      <point x="449" y="619" type="qcurve"/>
      <point x="393" y="619"/>
      <point x="291" y="574"/>
      <point x="213" y="497"/>
      <point x="166" y="394"/>
    </contour>
  </outline>
</glyph>
<glyph name="T" format="2">
  <advance width="631"/>
  <unicode hex="0054"/>
  <outline>
    <contour>
      <point x="505" y="541" type="line"/>
      <point x="514" y="612" type="line"/>
      <point x="413" y="612" type="line"/>
      <point x="338" y="0" type="line"/>
      <point x="215" y="0" type="line"/>
      <point x="290" y="612" type="line"/>
      <point x="189" y="612" type="line"/>
      <point x="180" y="541" type="line"/>
      <point x="65" y="541" type="line"/>
      <point x="74" y="612" type="line"/>
      <point x="84" y="694" type="line"/>
      <point x="88" y="729" type="line"/>
      <point x="643" y="729" type="line"/>
      <point x="639" y="694" type="line"/>
      <point x="629" y="612" type="line"/>
      <point x="620" y="541" type="line"/>
    </contour>
  </outline>
</glyph>
<glyph name="V" format="2">
  <advance width="761"/>
  <unicode hex="0056"/>
  <outline>
    <contour>
      <point x="812" y="729" type="line"/>
      <point x="799" y="622" type="line"/>
      <point x="702" y="622" type="line"/>
      <point x="341" y="-33" type="line"/>
      <point x="140" y="622" type="line"/>
      <point x="50" y="622" type="line"/>
      <point x="63" y="729" type="line"/>
      <point x="346" y="729" type="line"/>
      <point x="333" y="622" type="line"/>
      <point x="260" y="622" type="line"/>
      <point x="367" y="260" type="line"/>
      <point x="368" y="253"/>
      <point x="369" y="246" type="qcurve"/>
      <point x="370" y="240"/>
      <point x="372" y="228"/>
      <point x="373" y="223" type="qcurve"/>
      <point x="375" y="228"/>
      <point x="380" y="240"/>
      <point x="382" y="246" type="qcurve"/>
      <point x="385" y="253"/>
      <point x="388" y="260" type="qcurve"/>
      <point x="582" y="622" type="line"/>
      <point x="510" y="622" type="line"/>
      <point x="524" y="729" type="line"/>
    </contour>
  </outline>
</glyph>
<glyph name="W" format="2">
  <advance width="1045"/>
  <unicode hex="0057"/>
  <outline>
    <contour>
      <point x="348" y="729" type="line"/>
      <point x="335" y="622" type="line"/>
      <point x="270" y="622" type="line"/>
      <point x="293" y="525"/>
      <point x="333" y="356"/>
      <point x="344" y="287" type="qcurve"/>
      <point x="347" y="251" type="line"/>
      <point x="348" y="257"/>
      <point x="360" y="280"/>
      <point x="363" y="286" type="qcurve"/>
      <point x="365" y="291"/>
      <point x="380" y="318"/>
      <point x="400" y="354"/>
      <point x="425" y="397"/>
      <point x="438" y="419" type="qcurve"/>
      <point x="468" y="470"/>
      <point x="504" y="531" type="qcurve"/>
      <point x="495" y="573"/>
      <point x="487" y="611" type="qcurve"/>
      <point x="480" y="643"/>
      <point x="467" y="708"/>
      <point x="464" y="725" type="qcurve"/>
      <point x="582" y="725" type="line"/>
      <point x="612" y="614"/>
      <point x="636" y="522" type="qcurve"/>
      <point x="646" y="483"/>
      <point x="666" y="406"/>
      <point x="682" y="341"/>
      <point x="694" y="295"/>
      <point x="696" y="287" type="qcurve"/>
      <point x="698" y="278"/>
      <point x="699" y="261"/>
      <point x="699" y="252" type="qcurve"/>
      <point x="703" y="261"/>
      <point x="708" y="279"/>
      <point x="711" y="287" type="qcurve"/>
      <point x="727" y="332"/>
      <point x="775" y="436"/>
      <point x="832" y="549"/>
      <point x="893" y="669"/>
      <point x="923" y="729" type="qcurve"/>
      <point x="1093" y="729" type="line"/>
      <point x="1080" y="622" type="line"/>
      <point x="995" y="622" type="line"/>
      <point x="973" y="579"/>
      <point x="918" y="470"/>
      <point x="857" y="350"/>
      <point x="794" y="226"/>
      <point x="736" y="109"/>
      <point x="685" y="6"/>
      <point x="666" y="-32" type="qcurve"/>
      <point x="552" y="374" type="line"/>
      <point x="549" y="383"/>
      <point x="547" y="389"/>
      <point x="546" y="398" type="qcurve"/>
      <point x="544" y="394"/>
      <point x="543" y="386"/>
      <point x="541" y="383" type="qcurve"/>
      <point x="539" y="379"/>
      <point x="538" y="375" type="qcurve"/>
      <point x="475" y="268"/>
      <point x="425" y="181" type="qcurve"/>
      <point x="404" y="144"/>
      <point x="362" y="71"/>
      <point x="328" y="11"/>
      <point x="305" y="-29"/>
      <point x="303" y="-34" type="qcurve"/>
      <point x="300" y="-23"/>
      <point x="281" y="46"/>
      <point x="254" y="149"/>
      <point x="221" y="278"/>
      <point x="185" y="416"/>
      <point x="149" y="558"/>
      <point x="133" y="622" type="qcurve"/>
      <point x="52" y="622" type="line"/>
      <point x="65" y="729" type="line"/>
    </contour>
  </outline>
</glyph>
<glyph name="X" format="2">
  <advance width="722"/>
  <unicode hex="0058"/>
  <outline>
    <contour>
      <point x="363" y="729" type="line"/>
      <point x="350" y="622" type="line"/>
      <point x="308" y="622" type="line"/>
      <point x="318" y="601"/>
      <point x="339" y="558"/>
      <point x="356" y="523"/>
      <point x="369" y="498"/>
      <point x="371" y="494" type="qcurve"/>
      <point x="371" y="493"/>
      <point x="381" y="467"/>
      <point x="383" y="458" type="qcurve"/>
      <point x="388" y="467"/>
      <point x="404" y="493"/>
      <point x="404" y="494" type="qcurve"/>
      <point x="408" y="499"/>
      <point x="434" y="535"/>
      <point x="469" y="584"/>
      <point x="507" y="639"/>
      <point x="542" y="688"/>
      <point x="567" y="724"/>
      <point x="571" y="729" type="qcurve"/>
      <point x="742" y="729" type="line"/>
      <point x="728" y="622" type="line"/>
      <point x="642" y="622" type="line"/>
      <point x="613" y="584"/>
      <point x="549" y="498"/>
      <point x="494" y="424"/>
      <point x="455" y="372"/>
      <point x="451" y="366" type="qcurve"/>
      <point x="586" y="107" type="line"/>
      <point x="685" y="107" type="line"/>
      <point x="671" y="0" type="line"/>
      <point x="389" y="0" type="line"/>
      <point x="402" y="107" type="line"/>
      <point x="436" y="107" type="line"/>
      <point x="375" y="233" type="line"/>
      <point x="374" y="234"/>
      <point x="368" y="246"/>
      <point x="362" y="260"/>
      <point x="356" y="274"/>
      <point x="355" y="277" type="qcurve"/>
      <point x="350" y="267"/>
      <point x="336" y="245"/>
      <point x="336" y="244" type="qcurve"/>
      <point x="332" y="238"/>
      <point x="305" y="201"/>
      <point x="268" y="151"/>
      <point x="228" y="93"/>
      <point x="191" y="43"/>
      <point x="164" y="5"/>
      <point x="160" y="0" type="qcurve"/>
      <point x="-10" y="0" type="line"/>
      <point x="3" y="107" type="line"/>
      <point x="87" y="107" type="line"/>
      <point x="290" y="373" type="line"/>
      <point x="287" y="378"/>
      <point x="260" y="429"/>
      <point x="223" y="501"/>
      <point x="179" y="584"/>
      <point x="160" y="622" type="qcurve"/>
      <point x="67" y="622" type="line"/>
      <point x="80" y="729" type="line"/>
    </contour>
  </outline>
</glyph>
<glyph name="backslash" format="2">
  <advance width="456"/>
  <unicode hex="005C"/>
  <outline>
    <contour>
      <point x="202" y="748" type="line"/>
      <point x="391" y="-19" type="line"/>
      <point x="274" y="-19" type="line"/>
      <point x="86" y="748" type="line"/>
    </contour>
  </outline>
</glyph>
<glyph name="asciicircum" format="2">
  <advance width="354"/>
  <unicode hex="005E"/>
  <outline>
    <contour>
      <point x="226" y="670" type="line"/>
      <point x="325" y="487" type="line"/>
      <point x="254" y="487" type="line"/>
      <point x="252" y="491"/>
      <point x="239" y="510"/>
      <point x="226" y="531"/>
      <point x="214" y="550"/>
      <point x="212" y="554" type="qcurve"/>
      <point x="209" y="550"/>
      <point x="192" y="531"/>
      <point x="173" y="510"/>
      <point x="156" y="491"/>
      <point x="153" y="487" type="qcurve"/>
      <point x="81" y="487" type="line"/>
    </contour>
  </outline>
</glyph>
<glyph name="d" format="2">
  <advance width="572"/>
  <unicode hex="0064"/>
  <outline>
    <contour>
      <point x="463" y="83" type="line"/>
      <point x="519" y="83" type="line"/>
      <point x="509" y="0" type="line"/>
      <point x="357" y="0" type="line"/>
      <point x="360" y="28" type="line"/>
      <point x="361" y="33"/>
      <point x="365" y="45"/>
      <point x="365" y="48" type="qcurve"/>
      <point x="354" y="39"/>
      <point x="326" y="18"/>
      <point x="288" y="0"/>
      <point x="242" y="-11"/>
      <point x="213" y="-11" type="qcurve"/>
      <point x="166" y="-11"/>
      <point x="95" y="20"/>
      <point x="47" y="73"/>
      <point x="22" y="144"/>
      <point x="22" y="185" type="qcurve"/>
      <point x="22" y="240"/>
      <point x="62" y="332"/>
      <point x="129" y="399"/>
      <point x="219" y="436"/>
      <point x="270" y="436" type="qcurve"/>
      <point x="302" y="436"/>
      <point x="347" y="422"/>
      <point x="379" y="402"/>
      <point x="397" y="379"/>
      <point x="402" y="371" type="qcurve"/>
      <point x="442" y="698" type="line"/>
      <point x="390" y="698" type="line"/>
      <point x="400" y="781" type="line"/>
      <point x="549" y="781" type="line"/>
      <point x="539" y="698" type="line"/>
    </contour>
    <contour>
      <point x="119" y="199" type="qcurve"/>
      <point x="119" y="149"/>
      <point x="182" y="83"/>
      <point x="236" y="83" type="qcurve"/>
      <point x="267" y="83"/>
      <point x="322" y="106"/>
      <point x="361" y="145"/>
      <point x="384" y="198"/>
      <point x="384" y="228" type="qcurve"/>
      <point x="384" y="277"/>
      <point x="321" y="342"/>
      <point x="267" y="342" type="qcurve"/>
      <point x="236" y="342"/>
      <point x="182" y="320"/>
      <point x="142" y="282"/>
      <point x="119" y="229"/>
    </contour>
  </outline>
</glyph>
<glyph name="f" format="2">
  <advance width="350"/>
  <unicode hex="0066"/>
  <outline>
    <contour>
      <point x="34" y="342" type="line"/>
      <point x="45" y="425" type="line"/>
      <point x="117" y="425" type="line"/>
      <point x="128" y="516" type="line"/>
      <point x="144" y="650"/>
      <point x="285" y="777"/>
      <point x="403" y="781" type="qcurve"/>
      <point x="393" y="698" type="line"/>
      <point x="314" y="693"/>
      <point x="235" y="595"/>
      <point x="224" y="512" type="qcurve"/>
      <point x="214" y="425" type="line"/>
      <point x="345" y="425" type="line"/>
      <point x="334" y="342" type="line"/>
      <point x="203" y="342" type="line"/>
      <point x="173" y="96" type="line"/>
      <point x="171" y="83" type="line"/>
      <point x="271" y="83" type="line"/>
      <point x="261" y="0" type="line"/>
      <point x="9" y="0" type="line"/>
      <point x="19" y="83" type="line"/>
      <point x="75" y="83" type="line"/>
      <point x="77" y="99" type="line"/>
      <point x="106" y="342" type="line"/>
    </contour>
  </outline>
</glyph>
<glyph name="k" format="2">
  <advance width="508"/>
  <unicode hex="006B"/>
  <outline>
    <contour>
      <point x="157" y="96" type="line"/>
      <point x="155" y="86" type="line"/>
      <point x="154" y="83" type="line"/>
      <point x="219" y="83" type="line"/>
      <point x="209" y="0" type="line"/>
      <point x="-7" y="0" type="line"/>
      <point x="3" y="83" type="line"/>
      <point x="59" y="83" type="line"/>
      <point x="61" y="99" type="line"/>
      <point x="135" y="698" type="line"/>
      <point x="79" y="698" type="line"/>
      <point x="89" y="781" type="line"/>
      <point x="240" y="781" type="line"/>
      <point x="174" y="240" type="line"/>
      <point x="328" y="369" type="line"/>
      <point x="285" y="369" type="line"/>
      <point x="293" y="427" type="line"/>
      <point x="495" y="427" type="line"/>
      <point x="487" y="369" type="line"/>
      <point x="445" y="369" type="line"/>
      <point x="440" y="364"/>
      <point x="407" y="336"/>
      <point x="364" y="300"/>
      <point x="317" y="259"/>
      <point x="296" y="242" type="qcurve"/>
      <point x="345" y="162"/>
      <point x="392" y="83" type="qcurve"/>
      <point x="463" y="83" type="line"/>
      <point x="453" y="0" type="line"/>
      <point x="332" y="0" type="line"/>
      <point x="305" y="45"/>
      <point x="249" y="134"/>
      <point x="222" y="179" type="qcurve"/>
      <point x="160" y="129" type="line"/>
      <point x="156" y="96" type="line"/>
    </contour>
  </outline>
</glyph>
<glyph name="m" format="2">
  <advance width="879"/>
  <unicode hex="006D"/>
  <outline>
    <contour>
      <point x="167" y="96" type="line"/>
      <point x="165" y="86" type="line"/>
      <point x="164" y="83" type="line"/>
      <point x="229" y="83" type="line"/>
      <point x="219" y="0" type="line"/>
      <point x="3" y="0" type="line"/>
      <point x="13" y="83" type="line"/>
      <point x="69" y="83" type="line"/>
      <point x="71" y="99" type="line"/>
      <point x="101" y="342" type="line"/>
      <point x="44" y="342" type="line"/>
      <point x="55" y="425" type="line"/>
      <point x="196" y="425" type="line"/>
      <point x="194" y="407"/>
      <point x="193" y="379"/>
      <point x="192" y="354"/>
      <point x="191" y="330"/>
      <point x="190" y="316" type="qcurve"/>
      <point x="221" y="370"/>
      <point x="301" y="435"/>
      <point x="366" y="436" type="qcurve"/>
      <point x="428" y="436"/>
      <point x="496" y="373"/>
      <point x="497" y="322" type="qcurve"/>
      <point x="528" y="373"/>
      <point x="607" y="436"/>
      <point x="669" y="436" type="qcurve"/>
      <point x="736" y="436"/>
      <point x="805" y="365"/>
      <point x="800" y="308" type="qcurve"/>
      <point x="775" y="105" type="line"/>
      <point x="772" y="83" type="line"/>
      <point x="828" y="83" type="line"/>
      <point x="818" y="0" type="line"/>
      <point x="603" y="0" type="line"/>
      <point x="613" y="83" type="line"/>
      <point x="676" y="83" type="line"/>
      <point x="698" y="263" type="line"/>
      <point x="701" y="294"/>
      <point x="668" y="339"/>
      <point x="624" y="341" type="qcurve"/>
      <point x="565" y="341"/>
      <point x="491" y="264"/>
      <point x="483" y="204" type="qcurve"/>
      <point x="471" y="105" type="line"/>
      <point x="468" y="83" type="line"/>
      <point x="524" y="83" type="line"/>
      <point x="514" y="0" type="line"/>
      <point x="299" y="0" type="line"/>
      <point x="309" y="83" type="line"/>
      <point x="372" y="83" type="line"/>
      <point x="374" y="96" type="line"/>
      <point x="375" y="102" type="line"/>
      <point x="395" y="263" type="line"/>
      <point x="397" y="294"/>
      <point x="363" y="339"/>
      <point x="320" y="341" type="qcurve"/>
      <point x="261" y="341"/>
      <point x="187" y="264"/>
      <point x="180" y="205" type="qcurve"/>
      <point x="166" y="96" type="line"/>
    </contour>
  </outline>
</glyph>
<glyph name="w" format="2">
  <advance width="720"/>
  <unicode hex="0077"/>
  <outline>
    <contour>
      <point x="549" y="425" type="line"/>
      <point x="608" y="425" type="line"/>
      <point x="609" y="425"/>
      <point x="609" y="426" type="qcurve"/>
      <point x="704" y="425" type="line"/>
      <point x="727" y="425" type="line"/>
      <point x="717" y="343" type="line"/>
      <point x="657" y="343" type="line"/>
      <point x="448" y="-25" type="line"/>
      <point x="434" y="13"/>
      <point x="412" y="87"/>
      <point x="392" y="159"/>
      <point x="370" y="232"/>
      <point x="356" y="270" type="qcurve"/>
      <point x="312" y="194"/>
      <point x="234" y="52"/>
      <point x="191" y="-25" type="qcurve"/>
      <point x="162" y="68"/>
      <point x="108" y="250"/>
      <point x="80" y="343" type="qcurve"/>
      <point x="16" y="343" type="line"/>
      <point x="26" y="425" type="line"/>
      <point x="215" y="425" type="line"/>
      <point x="205" y="343" type="line"/>
      <point x="176" y="343" type="line"/>
      <point x="187" y="305"/>
      <point x="201" y="253"/>
      <point x="209" y="212"/>
      <point x="212" y="176"/>
      <point x="213" y="154" type="qcurve"/>
      <point x="217" y="164"/>
      <point x="229" y="188"/>
      <point x="253" y="233"/>
      <point x="293" y="306"/>
      <point x="326" y="364" type="qcurve"/>
      <point x="322" y="377"/>
      <point x="311" y="413"/>
      <point x="306" y="425" type="qcurve"/>
      <point x="388" y="425" type="line"/>
      <point x="431" y="300"/>
      <point x="464" y="173"/>
      <point x="470" y="166" type="qcurve"/>
      <point x="474" y="180"/>
      <point x="488" y="209"/>
      <point x="509" y="249"/>
      <point x="541" y="304"/>
      <point x="563" y="343" type="qcurve"/>
      <point x="539" y="343" type="line"/>
    </contour>
  </outline>
</glyph>
<glyph name="x" format="2">
  <advance width="490"/>
  <unicode hex="0078"/>
  <outline>
    <contour>
      <point x="58" y="425" type="line"/>
      <point x="255" y="425" type="line"/>
      <point x="245" y="343" type="line"/>
      <point x="223" y="343" type="line"/>
      <point x="233" y="327"/>
      <point x="247" y="302"/>
      <point x="249" y="299" type="qcurve"/>
      <point x="356" y="425" type="line"/>
      <point x="469" y="425" type="line"/>
      <point x="459" y="342" type="line"/>
      <point x="385" y="342" type="line"/>
      <point x="287" y="222" type="line"/>
      <point x="370" y="83" type="line"/>
      <point x="441" y="83" type="line"/>
      <point x="431" y="0" type="line"/>
      <point x="210" y="0" type="line"/>
      <point x="220" y="83" type="line"/>
      <point x="252" y="83" type="line"/>
      <point x="217" y="138" type="line"/>
      <point x="213" y="134"/>
      <point x="179" y="93"/>
      <point x="139" y="46"/>
      <point x="105" y="4"/>
      <point x="101" y="0" type="qcurve"/>
      <point x="-13" y="0" type="line"/>
      <point x="-3" y="83" type="line"/>
      <point x="65" y="83" type="line"/>
      <point x="84" y="106"/>
      <point x="125" y="154"/>
      <point x="160" y="195"/>
      <point x="183" y="223"/>
      <point x="186" y="226" type="qcurve"/>
      <point x="184" y="229"/>
      <point x="170" y="251"/>
      <point x="150" y="284"/>
      <point x="127" y="323"/>
      <point x="115" y="343" type="qcurve"/>
      <point x="48" y="343" type="line"/>
    </contour>
  </outline>
</glyph>
<glyph name="braceleft" format="2">
  <advance width="337"/>
  <unicode hex="007B"/>
  <outline>
    <contour>
      <point x="22" y="252" type="qcurve"/>
      <point x="34" y="349" type="line"/>
      <point x="59" y="350"/>
      <point x="93" y="378"/>
      <point x="116" y="418"/>
      <point x="128" y="466"/>
      <point x="131" y="487" type="qcurve"/>
      <point x="150" y="638" type="line"/>
      <point x="156" y="686"/>
      <point x="182" y="735"/>
      <point x="220" y="756"/>
      <point x="266" y="758"/>
      <point x="293" y="758" type="qcurve"/>
      <point x="363" y="758" type="line"/>
      <point x="351" y="658" type="line"/>
      <point x="310" y="658" type="line"/>
      <point x="294" y="658"/>
      <point x="273" y="651"/>
      <point x="258" y="630"/>
      <point x="248" y="589"/>
      <point x="244" y="556" type="qcurve"/>
      <point x="229" y="430" type="line"/>
      <point x="226" y="403"/>
      <point x="206" y="362"/>
      <point x="182" y="330"/>
      <point x="157" y="309"/>
      <point x="148" y="302" type="qcurve"/>
      <point x="156" y="296"/>
      <point x="176" y="275"/>
      <point x="192" y="243"/>
      <point x="200" y="202"/>
      <point x="197" y="176" type="qcurve"/>
      <point x="182" y="51" type="line"/>
      <point x="178" y="18"/>
      <point x="178" y="-23"/>
      <point x="187" y="-45"/>
      <point x="207" y="-52"/>
      <point x="223" y="-52" type="qcurve"/>
      <point x="264" y="-52" type="line"/>
      <point x="252" y="-152" type="line"/>
      <point x="181" y="-152" type="line"/>
      <point x="156" y="-152"/>
      <point x="110" y="-151"/>
      <point x="77" y="-131"/>
      <point x="61" y="-85"/>
      <point x="66" y="-41" type="qcurve"/>
      <point x="86" y="114" type="line"/>
      <point x="89" y="135"/>
      <point x="88" y="183"/>
      <point x="74" y="223"/>
      <point x="46" y="251"/>
    </contour>
  </outline>
</glyph>
<glyph name="asciitilde" format="2">
  <advance width="466"/>
  <unicode hex="007E"/>
  <outline>
    <contour>
      <point x="248" y="485" type="qcurve"/>
      <point x="234" y="499"/>
      <point x="213" y="510"/>
      <point x="199" y="510" type="qcurve"/>
      <point x="192" y="510"/>
      <point x="175" y="507"/>
      <point x="159" y="497"/>
      <point x="146" y="480"/>
      <point x="143" y="466" type="qcurve"/>
      <point x="89" y="468" type="line"/>
      <point x="93" y="489"/>
      <point x="115" y="524"/>
      <point x="146" y="549"/>
      <point x="180" y="563"/>
      <point x="196" y="563" type="qcurve"/>
      <point x="221" y="563"/>
      <point x="257" y="547"/>
      <point x="272" y="531" type="qcurve"/>
      <point x="286" y="516"/>
      <point x="307" y="506"/>
      <point x="321" y="506" type="qcurve"/>
      <point x="335" y="506"/>
      <point x="371" y="522"/>
      <point x="378" y="550" type="qcurve"/>
      <point x="431" y="548" type="line"/>
      <point x="427" y="527"/>
      <point x="405" y="492"/>
      <point x="374" y="467"/>
      <point x="340" y="453"/>
      <point x="324" y="453" type="qcurve"/>
      <point x="300" y="453"/>
      <point x="263" y="470"/>
    </contour>
  </outline>
</glyph>
<glyph name="exclamdown" format="2">
  <advance width="271"/>
  <unicode hex="00A1"/>
  <outline>
    <contour>
      <point x="96" y="380" type="line"/>
      <point x="198" y="380" type="line"/>
      <point x="126" y="-213" type="line"/>
      <point x="23" y="-213" type="line"/>
    </contour>
    <contour>
      <point x="170" y="558" type="qcurve"/>
      <point x="192" y="558"/>
      <point x="225" y="523"/>
      <point x="222" y="496" type="qcurve"/>
      <point x="219" y="469"/>
      <point x="177" y="434"/>
      <point x="154" y="434" type="qcurve"/>
      <point x="131" y="434"/>
      <point x="97" y="469"/>
      <point x="101" y="496" type="qcurve"/>
      <point x="103" y="523"/>
      <point x="146" y="558"/>
    </contour>
  </outline>
</glyph>
<glyph name="cent" format="2">
  <advance width="449"/>
  <unicode hex="00A2"/>
  <outline>
    <contour>
      <point x="418" y="388" type="qcurve"/>
      <point x="408" y="296" type="line"/>
      <point x="326" y="296" type="line"/>
      <point x="330" y="328" type="line"/>
      <point x="306" y="341"/>
      <point x="279" y="342" type="qcurve"/>
      <point x="247" y="83" type="line"/>
      <point x="270" y="85"/>
      <point x="315" y="99"/>
      <point x="332" y="111" type="qcurve"/>
      <point x="345" y="92"/>
      <point x="368" y="57"/>
      <point x="381" y="39" type="qcurve"/>
      <point x="318" y="-5"/>
      <point x="236" y="-10" type="qcurve"/>
      <point x="229" y="-68" type="line"/>
      <point x="159" y="-68" type="line"/>
      <point x="167" y="-4" type="line"/>
      <point x="98" y="13"/>
      <point x="24" y="118"/>
      <point x="24" y="186" type="qcurve"/>
      <point x="24" y="231"/>
      <point x="54" y="310"/>
      <point x="107" y="374"/>
      <point x="179" y="419"/>
      <point x="220" y="429" type="qcurve"/>
      <point x="228" y="492" type="line"/>
      <point x="298" y="492" type="line"/>
      <point x="291" y="436" type="line"/>
      <point x="329" y="434"/>
      <point x="393" y="409"/>
    </contour>
    <contour>
      <point x="120" y="199" type="qcurve"/>
      <point x="120" y="164"/>
      <point x="151" y="110"/>
      <point x="179" y="96" type="qcurve"/>
      <point x="208" y="330" type="line"/>
      <point x="168" y="314"/>
      <point x="120" y="244"/>
    </contour>
  </outline>
</glyph>
<glyph name="sterling" format="2">
  <advance width="620"/>
  <unicode hex="00A3"/>
  <outline>
    <contour>
      <point x="196" y="100" type="qcurve"/>
      <point x="362" y="100" type="line"/>
      <point x="392" y="100"/>
      <point x="428" y="106"/>
      <point x="449" y="118"/>
      <point x="457" y="138"/>
      <point x="459" y="153" type="qcurve"/>
      <point x="465" y="194" type="line"/>
      <point x="491" y="194"/>
      <point x="543" y="195"/>
      <point x="569" y="195" type="qcurve"/>
      <point x="556" y="86" type="line"/>
      <point x="553" y="67"/>
      <point x="539" y="35"/>
      <point x="509" y="13"/>
      <point x="461" y="0"/>
      <point x="425" y="0" type="qcurve"/>
      <point x="3" y="0" type="line"/>
      <point x="15" y="100" type="line"/>
      <point x="60" y="100" type="line"/>
      <point x="75" y="100"/>
      <point x="96" y="106"/>
      <point x="111" y="124"/>
      <point x="120" y="159"/>
      <point x="124" y="188" type="qcurve"/>
      <point x="134" y="267" type="line"/>
      <point x="67" y="267" type="line"/>
      <point x="80" y="367" type="line"/>
      <point x="146" y="367" type="line"/>
      <point x="168" y="548" type="line"/>
      <point x="172" y="584"/>
      <point x="212" y="645"/>
      <point x="276" y="690"/>
      <point x="360" y="716"/>
      <point x="410" y="716" type="qcurve"/>
      <point x="483" y="716"/>
      <point x="569" y="661"/>
      <point x="589" y="611" type="qcurve"/>
      <point x="568" y="600"/>
      <point x="527" y="577"/>
      <point x="505" y="566" type="qcurve"/>
      <point x="502" y="567"/>
      <point x="493" y="583"/>
      <point x="473" y="601"/>
      <point x="434" y="616"/>
      <point x="401" y="616" type="qcurve"/>
      <point x="345" y="616"/>
      <point x="274" y="567"/>
      <point x="268" y="518" type="qcurve"/>
      <point x="249" y="367" type="line"/>
      <point x="365" y="367" type="line"/>
      <point x="353" y="267" type="line"/>
      <point x="237" y="267" type="line"/>
      <point x="225" y="169" type="line"/>
      <point x="226" y="180" type="line"/>
      <point x="222" y="151"/>
      <point x="214" y="114"/>
    </contour>
  </outline>
</glyph>
<glyph name="currency" format="2">
  <advance width="445"/>
  <unicode hex="00A4"/>
  <outline>
    <contour>
      <point x="76" y="345" type="qcurve"/>
      <point x="76" y="373"/>
      <point x="94" y="420"/>
      <point x="110" y="441" type="qcurve"/>
      <point x="87" y="468" type="line"/>
      <point x="142" y="517" type="line"/>
      <point x="166" y="490" type="line"/>
      <point x="186" y="501"/>
      <point x="227" y="514"/>
      <point x="250" y="514" type="qcurve"/>
      <point x="294" y="514"/>
      <point x="329" y="490" type="qcurve"/>
      <point x="359" y="517" type="line"/>
      <point x="403" y="467" type="line"/>
      <point x="374" y="442" type="line"/>
      <point x="389" y="413"/>
      <point x="389" y="376" type="qcurve"/>
      <point x="389" y="348"/>
      <point x="370" y="301"/>
      <point x="352" y="278" type="qcurve"/>
      <point x="376" y="251" type="line"/>
      <point x="321" y="202" type="line"/>
      <point x="314" y="209"/>
      <point x="302" y="223"/>
      <point x="296" y="230" type="qcurve"/>
      <point x="258" y="207"/>
      <point x="213" y="207" type="qcurve"/>
      <point x="170" y="207"/>
      <point x="135" y="229" type="qcurve"/>
      <point x="104" y="201" type="line"/>
      <point x="60" y="250" type="line"/>
      <point x="91" y="277" type="line"/>
      <point x="76" y="305"/>
    </contour>
    <contour>
      <point x="146" y="351" type="qcurve"/>
      <point x="146" y="319"/>
      <point x="190" y="275"/>
      <point x="222" y="275" type="qcurve"/>
      <point x="241" y="275"/>
      <point x="276" y="290"/>
      <point x="303" y="316"/>
      <point x="319" y="350"/>
      <point x="319" y="369" type="qcurve"/>
      <point x="319" y="401"/>
      <point x="276" y="446"/>
      <point x="243" y="446" type="qcurve"/>
      <point x="224" y="446"/>
      <point x="189" y="431"/>
      <point x="162" y="405"/>
      <point x="146" y="370"/>
    </contour>
  </outline>
</glyph>
<glyph name="yen" format="2">
  <advance width="807"/>
  <unicode hex="00A5"/>
  <outline>
    <contour>
      <point x="463" y="236" type="line"/>
      <point x="461" y="224" type="line"/>
      <point x="571" y="224" type="line"/>
      <point x="563" y="156" type="line"/>
      <point x="453" y="156" type="line"/>
      <point x="447" y="107" type="line"/>
      <point x="527" y="107" type="line"/>
      <point x="514" y="0" type="line"/>
      <point x="231" y="0" type="line"/>
      <point x="244" y="107" type="line"/>
      <point x="323" y="107" type="line"/>
      <point x="329" y="156" type="line"/>
      <point x="230" y="156" type="line"/>
      <point x="238" y="224" type="line"/>
      <point x="337" y="224" type="line"/>
      <point x="339" y="236" type="line"/>
      <point x="336" y="241"/>
      <point x="317" y="286"/>
      <point x="303" y="319" type="qcurve"/>
      <point x="250" y="319" type="line"/>
      <point x="258" y="387" type="line"/>
      <point x="274" y="387" type="line"/>
      <point x="176" y="622" type="line"/>
      <point x="73" y="622" type="line"/>
      <point x="86" y="729" type="line"/>
      <point x="369" y="729" type="line"/>
      <point x="356" y="622" type="line"/>
      <point x="313" y="622" type="line"/>
      <point x="325" y="592"/>
      <point x="350" y="525"/>
      <point x="376" y="461"/>
      <point x="399" y="402"/>
      <point x="408" y="380" type="qcurve"/>
      <point x="415" y="346" type="line"/>
      <point x="432" y="380" type="line"/>
      <point x="584" y="622" type="line"/>
      <point x="542" y="622" type="line"/>
      <point x="555" y="729" type="line"/>
      <point x="828" y="729" type="line"/>
      <point x="814" y="622" type="line"/>
      <point x="720" y="622" type="line"/>
      <point x="564" y="387" type="line"/>
      <point x="591" y="387" type="line"/>
      <point x="583" y="319" type="line"/>
      <point x="518" y="319" type="line"/>
    </contour>
  </outline>
</glyph>
<glyph name="ordfeminine" format="2">
  <advance width="454"/>
  <unicode hex="00AA"/>
  <outline>
    <contour>
      <point x="376" y="366" type="line"/>
      <point x="416" y="366" type="line"/>
      <point x="409" y="306" type="line"/>
      <point x="299" y="306" type="line"/>
      <point x="301" y="326" type="line"/>
      <point x="303" y="336"/>
      <point x="303" y="338" type="qcurve"/>
      <point x="300" y="334"/>
      <point x="284" y="321"/>
      <point x="258" y="308"/>
      <point x="222" y="298"/>
      <point x="200" y="298" type="qcurve"/>
      <point x="167" y="298"/>
      <point x="115" y="321"/>
      <point x="77" y="360"/>
      <point x="57" y="411"/>
      <point x="57" y="440" type="qcurve"/>
      <point x="57" y="476"/>
      <point x="88" y="541"/>
      <point x="139" y="591"/>
      <point x="204" y="620"/>
      <point x="239" y="620" type="qcurve"/>
      <point x="261" y="620"/>
      <point x="294" y="609"/>
      <point x="317" y="595"/>
      <point x="330" y="580"/>
      <point x="332" y="576" type="qcurve"/>
      <point x="334" y="584"/>
      <point x="338" y="603"/>
      <point x="340" y="613" type="qcurve"/>
      <point x="406" y="613" type="line"/>
    </contour>
    <contour>
      <point x="128" y="450" type="qcurve"/>
      <point x="128" y="414"/>
      <point x="174" y="366"/>
      <point x="212" y="366" type="qcurve"/>
      <point x="235" y="366"/>
      <point x="274" y="382"/>
      <point x="303" y="411"/>
      <point x="319" y="449"/>
      <point x="319" y="470" type="qcurve"/>
      <point x="319" y="505"/>
      <point x="273" y="553"/>
      <point x="234" y="553" type="qcurve"/>
      <point x="211" y="553"/>
      <point x="173" y="537"/>
      <point x="144" y="509"/>
      <point x="128" y="472"/>
    </contour>
  </outline>
</glyph>
<glyph name="guillemotleft" format="2">
  <advance width="458"/>
  <unicode hex="00AB"/>
  <outline>
    <contour>
      <point x="358" y="47" type="line"/>
      <point x="208" y="243" type="line"/>
      <point x="211" y="246"/>
      <point x="241" y="275"/>
      <point x="283" y="317"/>
      <point x="331" y="365"/>
      <point x="373" y="406"/>
      <point x="403" y="435"/>
      <point x="406" y="438" type="qcurve"/>
      <point x="392" y="322" type="line"/>
      <point x="388" y="319"/>
      <point x="367" y="296"/>
      <point x="345" y="270"/>
      <point x="324" y="247"/>
      <point x="320" y="243" type="qcurve"/>
      <point x="323" y="239"/>
      <point x="338" y="216"/>
      <point x="354" y="190"/>
      <point x="369" y="167"/>
      <point x="372" y="163" type="qcurve"/>
    </contour>
    <contour>
      <point x="184" y="47" type="line"/>
      <point x="34" y="243" type="line"/>
      <point x="37" y="246"/>
      <point x="67" y="275"/>
      <point x="109" y="317"/>
      <point x="157" y="365"/>
      <point x="199" y="406"/>
      <point x="229" y="435"/>
      <point x="232" y="438" type="qcurve"/>
      <point x="218" y="321" type="line"/>
      <point x="214" y="318"/>
      <point x="193" y="295"/>
      <point x="171" y="270"/>
      <point x="151" y="247"/>
      <point x="147" y="243" type="qcurve"/>
      <point x="150" y="239"/>
      <point x="164" y="216"/>
      <point x="181" y="190"/>
      <point x="195" y="167"/>
      <point x="198" y="163" type="qcurve"/>
    </contour>
  </outline>
</glyph>
<glyph name="logicalnot" format="2">
  <advance width="484"/>
  <unicode hex="00AC"/>
  <outline>
    <contour>
      <point x="305" y="150" type="line"/>
      <point x="309" y="181" type="line"/>
      <point x="47" y="181" type="line"/>
      <point x="56" y="254" type="line"/>
      <point x="422" y="254" type="line"/>
      <point x="409" y="150" type="line"/>
    </contour>
  </outline>
</glyph>
<glyph name="degree" format="2">
  <advance width="300"/>
  <unicode hex="00B0"/>
  <outline>
    <contour>
      <point x="180" y="523" type="qcurve"/>
      <point x="200" y="523"/>
      <point x="231" y="552"/>
      <point x="231" y="572" type="qcurve"/>
      <point x="231" y="590"/>
      <point x="208" y="614"/>
      <point x="191" y="614" type="qcurve"/>
      <point x="170" y="614"/>
      <point x="140" y="584"/>
      <point x="140" y="564" type="qcurve"/>
      <point x="140" y="546"/>
      <point x="162" y="523"/>
    </contour>
    <contour>
      <point x="74" y="558" type="qcurve"/>
      <point x="74" y="583"/>
      <point x="94" y="626"/>
      <point x="128" y="658"/>
      <point x="173" y="677"/>
      <point x="198" y="677" type="qcurve"/>
      <point x="240" y="677"/>
      <point x="293" y="622"/>
      <point x="293" y="581" type="qcurve"/>
      <point x="293" y="556"/>
      <point x="273" y="512"/>
      <point x="240" y="480"/>
      <point x="196" y="461"/>
      <point x="172" y="461" type="qcurve"/>
      <point x="129" y="461"/>
      <point x="74" y="516"/>
    </contour>
  </outline>
</glyph>
<glyph name="plusminus" format="2">
  <advance width="490"/>
  <unicode hex="00B1"/>
  <outline>
    <contour>
      <point x="185" y="214" type="line"/>
      <point x="202" y="347" type="line"/>
      <point x="71" y="347" type="line"/>
      <point x="83" y="446" type="line"/>
      <point x="214" y="446" type="line"/>
      <point x="230" y="580" type="line"/>
      <point x="334" y="580" type="line"/>
      <point x="318" y="446" type="line"/>
      <point x="449" y="446" type="line"/>
      <point x="437" y="347" type="line"/>
      <point x="306" y="347" type="line"/>
      <point x="290" y="214" type="line"/>
    </contour>
    <contour>
      <point x="403" y="76" type="line"/>
      <point x="38" y="76" type="line"/>
      <point x="50" y="176" type="line"/>
      <point x="416" y="176" type="line"/>
    </contour>
  </outline>
</glyph>
<glyph name="threesuperior" format="2">
  <advance width="284"/>
  <unicode hex="00B3"/>
  <outline>
    <contour>
      <point x="107" y="630" type="line"/>
      <point x="116" y="705" type="line"/>
      <point x="290" y="705" type="line"/>
      <point x="270" y="676"/>
      <point x="228" y="617"/>
      <point x="208" y="588" type="qcurve"/>
      <point x="233" y="574"/>
      <point x="261" y="527"/>
      <point x="261" y="498" type="qcurve"/>
      <point x="261" y="473"/>
      <point x="240" y="429"/>
      <point x="205" y="396"/>
      <point x="159" y="376"/>
      <point x="135" y="376" type="qcurve"/>
      <point x="111" y="376"/>
      <point x="71" y="395"/>
      <point x="58" y="412" type="qcurve"/>
      <point x="99" y="446" type="line"/>
      <point x="114" y="425"/>
      <point x="141" y="425" type="qcurve"/>
      <point x="168" y="425"/>
      <point x="210" y="465"/>
      <point x="210" y="492" type="qcurve"/>
      <point x="210" y="515"/>
      <point x="179" y="546"/>
      <point x="156" y="546" type="qcurve"/>
      <point x="137" y="546"/>
      <point x="122" y="539" type="qcurve"/>
      <point x="140" y="568"/>
      <point x="186" y="626"/>
      <point x="205" y="655" type="qcurve"/>
      <point x="159" y="655" type="line"/>
      <point x="156" y="630" type="line"/>
    </contour>
  </outline>
</glyph>
<glyph name="paragraph" format="2">
  <advance width="573"/>
  <unicode hex="00B6"/>
  <outline>
    <contour>
      <point x="266" y="0" type="line"/>
      <point x="163" y="0" type="line"/>
      <point x="216" y="429" type="line"/>
      <point x="184" y="429"/>
      <point x="130" y="452"/>
      <point x="91" y="493"/>
      <point x="70" y="547"/>
      <point x="70" y="579" type="qcurve"/>
      <point x="70" y="616"/>
      <point x="100" y="683"/>
      <point x="152" y="733"/>
      <point x="219" y="762"/>
      <point x="257" y="762" type="qcurve"/>
      <point x="525" y="762" type="line"/>
      <point x="431" y="0" type="line"/>
      <point x="329" y="0" type="line"/>
      <point x="411" y="662" type="line"/>
      <point x="347" y="662" type="line"/>
    </contour>
  </outline>
</glyph>
<glyph name="onesuperior" format="2">
  <advance width="182"/>
  <unicode hex="00B9"/>
  <outline>
    <contour>
      <point x="91" y="659" type="line"/>
      <point x="96" y="705" type="line"/>
      <point x="170" y="705" type="line"/>
      <point x="133" y="401" type="line"/>
      <point x="85" y="401" type="line"/>
      <point x="117" y="659" type="line"/>
    </contour>
  </outline>
</glyph>
<glyph name="ordmasculine" format="2">
  <advance width="403"/>
  <unicode hex="00BA"/>
  <outline>
    <contour>
      <point x="60" y="460" type="qcurve"/>
      <point x="64" y="494"/>
      <point x="96" y="552"/>
      <point x="145" y="595"/>
      <point x="208" y="620"/>
      <point x="244" y="620" type="qcurve"/>
      <point x="277" y="620"/>
      <point x="329" y="598"/>
      <point x="367" y="560"/>
      <point x="387" y="508"/>
      <point x="387" y="478" type="qcurve"/>
      <point x="387" y="440"/>
      <point x="359" y="375"/>
      <point x="310" y="326"/>
      <point x="242" y="298"/>
      <point x="203" y="298" type="qcurve"/>
      <point x="168" y="298"/>
      <point x="112" y="320"/>
      <point x="73" y="362"/>
      <point x="55" y="422"/>
    </contour>
    <contour>
      <point x="129" y="459" type="qcurve"/>
      <point x="124" y="419"/>
      <point x="170" y="366"/>
      <point x="211" y="366" type="qcurve"/>
      <point x="232" y="366"/>
      <point x="271" y="382"/>
      <point x="299" y="410"/>
      <point x="316" y="447"/>
      <point x="316" y="469" type="qcurve"/>
      <point x="316" y="505"/>
      <point x="270" y="553"/>
      <point x="233" y="553" type="qcurve"/>
      <point x="192" y="553"/>
      <point x="134" y="499"/>
    </contour>
  </outline>
</glyph>
<glyph name="guillemotright" format="2">
  <advance width="459"/>
  <unicode hex="00BB"/>
  <outline>
    <contour>
      <point x="56" y="163" type="line"/>
      <point x="60" y="167"/>
      <point x="81" y="190"/>
      <point x="104" y="216"/>
      <point x="124" y="239"/>
      <point x="128" y="243" type="qcurve"/>
      <point x="125" y="247"/>
      <point x="110" y="270"/>
      <point x="94" y="296"/>
      <point x="79" y="319"/>
      <point x="76" y="322" type="qcurve"/>
      <point x="90" y="438" type="line"/>
      <point x="92" y="435"/>
      <point x="115" y="406"/>
      <point x="147" y="365"/>
      <point x="183" y="317"/>
      <point x="215" y="275"/>
      <point x="237" y="246"/>
      <point x="240" y="243" type="qcurve"/>
      <point x="42" y="47" type="line"/>
    </contour>
    <contour>
      <point x="230" y="163" type="line"/>
      <point x="234" y="167"/>
      <point x="255" y="190"/>
      <point x="277" y="216"/>
      <point x="298" y="239"/>
      <point x="302" y="243" type="qcurve"/>
      <point x="299" y="247"/>
      <point x="284" y="270"/>
      <point x="268" y="295"/>
      <point x="253" y="318"/>
      <point x="250" y="321" type="qcurve"/>
      <point x="264" y="438" type="line"/>
      <point x="266" y="435"/>
      <point x="289" y="406"/>
      <point x="321" y="365"/>
      <point x="357" y="317"/>
      <point x="389" y="275"/>
      <point x="411" y="246"/>
      <point x="414" y="243" type="qcurve"/>
      <point x="216" y="47" type="line"/>
    </contour>
  </outline>
</glyph>
<glyph name="onequarter" format="2">
  <advance width="803"/>
  <unicode hex="00BC"/>
  <outline>
    <contour>
      <point x="143" y="-19" type="line"/>
      <point x="520" y="748" type="line"/>
      <point x="624" y="748" type="line"/>
      <point x="247" y="-19" type="line"/>
    </contour>
    <contour>
      <point x="738" y="74" type="line"/>
      <point x="729" y="0" type="line"/>
      <point x="518" y="0" type="line"/>
      <point x="528" y="74" type="line"/>
      <point x="591" y="74" type="line"/>
      <point x="597" y="125" type="line"/>
      <point x="380" y="125" type="line"/>
      <point x="461" y="215"/>
      <point x="640" y="407"/>
      <point x="720" y="497" type="qcurve"/>
      <point x="683" y="199" type="line"/>
      <point x="757" y="199" type="line"/>
      <point x="747" y="125" type="line"/>
      <point x="674" y="125" type="line"/>
      <point x="668" y="74" type="line"/>
    </contour>
    <contour>
      <point x="84" y="632" type="line"/>
      <point x="92" y="702" type="line"/>
      <point x="207" y="702" type="line"/>
      <point x="149" y="234" type="line"/>
      <point x="75" y="234" type="line"/>
      <point x="124" y="632" type="line"/>
    </contour>
    <contour>
      <point x="618" y="290" type="line"/>
      <point x="611" y="282"/>
      <point x="589" y="258"/>
      <point x="566" y="232"/>
      <point x="544" y="207"/>
      <point x="537" y="199" type="qcurve"/>
      <point x="607" y="199" type="line"/>
    </contour>
  </outline>
</glyph>
<glyph name="questiondown" format="2">
  <advance width="476"/>
  <unicode hex="00BF"/>
  <outline>
    <contour>
      <point x="317" y="-11" type="qcurve"/>
      <point x="338" y="-19"/>
      <point x="382" y="-36"/>
      <point x="403" y="-44" type="qcurve"/>
      <point x="394" y="-64"/>
      <point x="363" y="-120"/>
      <point x="311" y="-170"/>
      <point x="232" y="-205"/>
      <point x="175" y="-205" type="qcurve"/>
      <point x="137" y="-205"/>
      <point x="72" y="-177"/>
      <point x="25" y="-129"/>
      <point x="-1" y="-64"/>
      <point x="-1" y="-27" type="qcurve"/>
      <point x="-1" y="37"/>
      <point x="65" y="132"/>
      <point x="122" y="171" type="qcurve"/>
      <point x="136" y="180"/>
      <point x="171" y="202"/>
      <point x="203" y="230"/>
      <point x="228" y="268"/>
      <point x="231" y="293" type="qcurve"/>
      <point x="241" y="373" type="line"/>
      <point x="344" y="373" type="line"/>
      <point x="332" y="274" type="line"/>
      <point x="328" y="241"/>
      <point x="303" y="199"/>
      <point x="267" y="168"/>
      <point x="221" y="141"/>
      <point x="196" y="124" type="qcurve"/>
      <point x="105" y="60"/>
      <point x="105" y="-19" type="qcurve"/>
      <point x="105" y="-56"/>
      <point x="149" y="-105"/>
      <point x="188" y="-105" type="qcurve"/>
      <point x="243" y="-105"/>
      <point x="297" y="-58"/>
    </contour>
    <contour>
      <point x="315" y="545" type="qcurve"/>
      <point x="336" y="545"/>
      <point x="370" y="516"/>
      <point x="370" y="490" type="qcurve"/>
      <point x="370" y="461"/>
      <point x="325" y="422"/>
      <point x="300" y="422" type="qcurve"/>
      <point x="280" y="422"/>
      <point x="248" y="455"/>
      <point x="248" y="478" type="qcurve"/>
      <point x="248" y="493"/>
      <point x="260" y="518"/>
      <point x="280" y="535"/>
      <point x="303" y="545"/>
    </contour>
  </outline>
</glyph>
<glyph name="Aacute" format="2">
  <advance width="751"/>
  <unicode hex="00C1"/>
  <outline>
    <contour>
      <point x="-18" y="107" type="line"/>
      <point x="-31" y="0" type="line"/>
      <point x="252" y="0" type="line"/>
      <point x="265" y="107" type="line"/>
      <point x="192" y="107" type="line"/>
      <point x="238" y="192" type="line"/>
      <point x="489" y="192" type="line"/>
      <point x="514" y="107" type="line"/>
      <point x="441" y="107" type="line"/>
      <point x="428" y="0" type="line"/>
      <point x="711" y="0" type="line"/>
      <point x="724" y="107" type="line"/>
      <point x="634" y="107" type="line"/>
      <point x="434" y="762" type="line"/>
      <point x="73" y="107" type="line"/>
    </contour>
    <contour>
      <point x="387" y="469" type="line"/>
      <point x="390" y="476"/>
      <point x="393" y="483" type="qcurve"/>
      <point x="395" y="489"/>
      <point x="400" y="501"/>
      <point x="402" y="506" type="qcurve"/>
      <point x="403" y="501"/>
      <point x="405" y="489"/>
      <point x="406" y="483" type="qcurve"/>
      <point x="407" y="476"/>
      <point x="408" y="469" type="qcurve"/>
      <point x="459" y="295" type="line"/>
      <point x="293" y="295" type="line"/>
    </contour>
    <contour>
      <point x="339" y="782" type="line"/>
      <point x="366" y="815"/>
      <point x="420" y="883"/>
      <point x="448" y="917" type="qcurve"/>
      <point x="551" y="917" type="line"/>
      <point x="411" y="782" type="line"/>
    </contour>
  </outline>
</glyph>
<glyph name="Atilde" format="2">
  <advance width="751"/>
  <unicode hex="00C3"/>
  <outline>
    <contour>
      <point x="-18" y="107" type="line"/>
      <point x="-31" y="0" type="line"/>
      <point x="252" y="0" type="line"/>
      <point x="265" y="107" type="line"/>
      <point x="192" y="107" type="line"/>
      <point x="238" y="192" type="line"/>
      <point x="489" y="192" type="line"/>
      <point x="514" y="107" type="line"/>
      <point x="441" y="107" type="line"/>
      <point x="428" y="0" type="line"/>
      <point x="711" y="0" type="line"/>
      <point x="724" y="107" type="line"/>
      <point x="634" y="107" type="line"/>
      <point x="434" y="762" type="line"/>
      <point x="73" y="107" type="line"/>
    </contour>
    <contour>
      <point x="433" y="811" type="qcurve"/>
      <point x="419" y="825"/>
      <point x="398" y="836"/>
      <point x="384" y="836" type="qcurve"/>
      <point x="377" y="836"/>
      <point x="360" y="833"/>
      <point x="344" y="823"/>
      <point x="331" y="806"/>
      <point x="328" y="792" type="qcurve"/>
      <point x="274" y="794" type="line"/>
      <point x="278" y="815"/>
      <point x="300" y="850"/>
      <point x="331" y="875"/>
      <point x="365" y="889"/>
      <point x="381" y="889" type="qcurve"/>
      <point x="406" y="889"/>
      <point x="442" y="873"/>
      <point x="457" y="857" type="qcurve"/>
      <point x="471" y="842"/>
      <point x="492" y="832"/>
      <point x="506" y="832" type="qcurve"/>
      <point x="520" y="832"/>
      <point x="556" y="848"/>
      <point x="563" y="876" type="qcurve"/>
      <point x="616" y="874" type="line"/>
      <point x="612" y="853"/>
      <point x="590" y="818"/>
      <point x="559" y="793"/>
      <point x="525" y="779"/>
      <point x="509" y="779" type="qcurve"/>
      <point x="485" y="779"/>
      <point x="448" y="796"/>
    </contour>
    <contour>
      <point x="387" y="469" type="line"/>
      <point x="390" y="476"/>
      <point x="393" y="483" type="qcurve"/>
      <point x="395" y="489"/>
      <point x="400" y="501"/>
      <point x="402" y="506" type="qcurve"/>
      <point x="403" y="501"/>
      <point x="405" y="489"/>
      <point x="406" y="483" type="qcurve"/>
      <point x="407" y="476"/>
      <point x="408" y="469" type="qcurve"/>
      <point x="459" y="295" type="line"/>
      <point x="293" y="295" type="line"/>
    </contour>
  </outline>
</glyph>
<glyph name="AE" format="2">
  <advance width="752"/>
  <unicode hex="00C6"/>
  <outline>
    <contour>
      <point x="614" y="547" type="line"/>
      <point x="622" y="618" type="line"/>
      <point x="526" y="618" type="line"/>
      <point x="502" y="422" type="line"/>
      <point x="673" y="422" type="line"/>
      <point x="659" y="308" type="line"/>
      <point x="488" y="308" type="line"/>
      <point x="464" y="114" type="line"/>
      <point x="575" y="114" type="line"/>
      <point x="585" y="191" type="line"/>
      <point x="700" y="191" type="line"/>
      <point x="684" y="66" type="line"/>
      <point x="676" y="0" type="line"/>
      <point x="328" y="0" type="line"/>
      <point x="351" y="192" type="line"/>
      <point x="231" y="192" type="line"/>
      <point x="185" y="107" type="line"/>
      <point x="258" y="107" type="line"/>
      <point x="245" y="0" type="line"/>
      <point x="-30" y="0" type="line"/>
      <point x="-17" y="107" type="line"/>
      <point x="74" y="107" type="line"/>
      <point x="417" y="729" type="line"/>
      <point x="751" y="729" type="line"/>
      <point x="738" y="618" type="line"/>
      <point x="737" y="618" type="line"/>
      <point x="729" y="547" type="line"/>
    </contour>
    <contour>
      <point x="380" y="469" type="qcurve"/>
      <point x="286" y="295" type="line"/>
      <point x="364" y="295" type="line"/>
      <point x="387" y="485" type="line"/>
      <point x="383" y="477"/>
      <point x="382" y="474" type="qcurve"/>
      <point x="381" y="471"/>
    </contour>
  </outline>
</glyph>
<glyph name="Ccedilla" format="2">
  <advance width="650"/>
  <unicode hex="00C7"/>
  <outline>
    <contour>
      <point x="527" y="541" type="line"/>
      <point x="536" y="613" type="line"/>
      <point x="516" y="617"/>
      <point x="477" y="621"/>
      <point x="461" y="621" type="qcurve"/>
      <point x="401" y="621"/>
      <point x="294" y="575"/>
      <point x="215" y="498"/>
      <point x="168" y="398"/>
      <point x="168" y="345" type="qcurve"/>
      <point x="168" y="300"/>
      <point x="199" y="218"/>
      <point x="258" y="155"/>
      <point x="341" y="117"/>
      <point x="394" y="117" type="qcurve"/>
      <point x="425" y="117"/>
      <point x="486" y="130"/>
      <point x="534" y="147"/>
      <point x="565" y="162"/>
      <point x="566" y="165" type="qcurve"/>
      <point x="604" y="54" type="line"/>
      <point x="592" y="46"/>
      <point x="551" y="26"/>
      <point x="495" y="8"/>
      <point x="426" y="-6"/>
      <point x="388" y="-7" type="qcurve"/>
      <point x="388" y="-8" type="line"/>
      <point x="386" y="-23"/>
      <point x="393" y="-39"/>
      <point x="404" y="-50"/>
      <point x="418" y="-57"/>
      <point x="424" y="-62" type="qcurve"/>
      <point x="439" y="-75"/>
      <point x="452" y="-110"/>
      <point x="452" y="-131" type="qcurve"/>
      <point x="452" y="-155"/>
      <point x="436" y="-201"/>
      <point x="403" y="-238"/>
      <point x="355" y="-261"/>
      <point x="324" y="-261" type="qcurve"/>
      <point x="289" y="-261"/>
      <point x="232" y="-222"/>
      <point x="223" y="-180" type="qcurve"/>
      <point x="281" y="-151" type="line"/>
      <point x="285" y="-166"/>
      <point x="307" y="-186"/>
      <point x="325" y="-186" type="qcurve"/>
      <point x="351" y="-186"/>
      <point x="378" y="-151"/>
      <point x="378" y="-128" type="qcurve"/>
      <point x="378" y="-112"/>
      <point x="359" y="-93"/>
      <point x="338" y="-74"/>
      <point x="321" y="-48"/>
      <point x="324" y="-23" type="qcurve"/>
      <point x="326" y="-6" type="line"/>
      <point x="257" y="1"/>
      <point x="152" y="57"/>
      <point x="80" y="144"/>
      <point x="43" y="255"/>
      <point x="43" y="317" type="qcurve"/>
      <point x="43" y="408"/>
      <point x="114" y="562"/>
      <point x="232" y="674"/>
      <point x="384" y="737"/>
      <point x="465" y="737" type="qcurve"/>
      <point x="498" y="737"/>
      <point x="561" y="726"/>
      <point x="613" y="711"/>
      <point x="651" y="693"/>
      <point x="660" y="686" type="qcurve"/>
      <point x="642" y="541" type="line"/>
    </contour>
  </outline>
</glyph>
<glyph name="Egrave" format="2">
  <advance width="665"/>
  <unicode hex="00C8"/>
  <outline>
    <contour>
      <point x="527" y="547" type="line"/>
      <point x="535" y="618" type="line"/>
      <point x="289" y="618" type="line"/>
      <point x="265" y="422" type="line"/>
      <point x="586" y="422" type="line"/>
      <point x="572" y="308" type="line"/>
      <point x="251" y="308" type="line"/>
      <point x="227" y="114" type="line"/>
      <point x="488" y="114" type="line"/>
      <point x="498" y="191" type="line"/>
      <point x="613" y="191" type="line"/>
      <point x="597" y="66" type="line"/>
      <point x="589" y="0" type="line"/>
      <point x="11" y="0" type="line"/>
      <point x="24" y="107" type="line"/>
      <point x="103" y="107" type="line"/>
      <point x="166" y="622" type="line"/>
      <point x="87" y="622" type="line"/>
      <point x="100" y="729" type="line"/>
      <point x="664" y="729" type="line"/>
      <point x="651" y="618" type="line"/>
      <point x="650" y="618" type="line"/>
      <point x="642" y="547" type="line"/>
    </contour>
    <contour>
      <point x="390" y="913" type="line"/>
      <point x="409" y="879"/>
      <point x="445" y="811"/>
      <point x="464" y="778" type="qcurve"/>
      <point x="393" y="778" type="line"/>
      <point x="367" y="811"/>
      <point x="312" y="879"/>
      <point x="286" y="913" type="qcurve"/>
    </contour>
  </outline>
</glyph>
<glyph name="Eacute" format="2">
  <advance width="665"/>
  <unicode hex="00C9"/>
  <outline>
    <contour>
      <point x="527" y="547" type="line"/>
      <point x="535" y="618" type="line"/>
      <point x="289" y="618" type="line"/>
      <point x="265" y="422" type="line"/>
      <point x="586" y="422" type="line"/>
      <point x="572" y="308" type="line"/>
      <point x="251" y="308" type="line"/>
      <point x="227" y="114" type="line"/>
      <point x="488" y="114" type="line"/>
      <point x="498" y="191" type="line"/>
      <point x="613" y="191" type="line"/>
      <point x="603" y="114" type="line"/>
      <point x="597" y="66" type="line"/>
      <point x="589" y="0" type="line"/>
      <point x="11" y="0" type="line"/>
      <point x="24" y="107" type="line"/>
      <point x="103" y="107" type="line"/>
      <point x="166" y="622" type="line"/>
      <point x="87" y="622" type="line"/>
      <point x="100" y="729" type="line"/>
      <point x="664" y="729" type="line"/>
      <point x="651" y="618" type="line"/>
      <point x="650" y="618" type="line"/>
      <point x="642" y="547" type="line"/>
    </contour>
    <contour>
      <point x="338" y="779" type="line"/>
      <point x="365" y="812"/>
      <point x="419" y="880"/>
      <point x="447" y="914" type="qcurve"/>
      <point x="550" y="914" type="line"/>
      <point x="410" y="779" type="line"/>
    </contour>
  </outline>
</glyph>
<glyph name="Igrave" format="2">
  <advance width="373"/>
  <unicode hex="00CC"/>
  <outline>
    <contour>
      <point x="382" y="729" type="line"/>
      <point x="369" y="622" type="line"/>
      <point x="289" y="622" type="line"/>
      <point x="226" y="107" type="line"/>
      <point x="306" y="107" type="line"/>
      <point x="293" y="0" type="line"/>
      <point x="10" y="0" type="line"/>
      <point x="23" y="107" type="line"/>
      <point x="103" y="107" type="line"/>
      <point x="166" y="622" type="line"/>
      <point x="86" y="622" type="line"/>
      <point x="99" y="729" type="line"/>
    </contour>
    <contour>
      <point x="231" y="917" type="line"/>
      <point x="250" y="883"/>
      <point x="286" y="815"/>
      <point x="305" y="782" type="qcurve"/>
      <point x="234" y="782" type="line"/>
      <point x="208" y="815"/>
      <point x="153" y="883"/>
      <point x="127" y="917" type="qcurve"/>
    </contour>
  </outline>
</glyph>
<glyph name="Iacute" format="2">
  <advance width="373"/>
  <unicode hex="00CD"/>
  <outline>
    <contour>
      <point x="382" y="729" type="line"/>
      <point x="369" y="622" type="line"/>
      <point x="289" y="622" type="line"/>
      <point x="226" y="107" type="line"/>
      <point x="306" y="107" type="line"/>
      <point x="293" y="0" type="line"/>
      <point x="10" y="0" type="line"/>
      <point x="23" y="107" type="line"/>
      <point x="103" y="107" type="line"/>
      <point x="166" y="622" type="line"/>
      <point x="86" y="622" type="line"/>
      <point x="99" y="729" type="line"/>
    </contour>
    <contour>
      <point x="148" y="779" type="line"/>
      <point x="175" y="812"/>
      <point x="229" y="880"/>
      <point x="257" y="914" type="qcurve"/>
      <point x="360" y="914" type="line"/>
      <point x="220" y="779" type="line"/>
    </contour>
  </outline>
</glyph>
<glyph name="Eth" format="2">
  <advance width="756"/>
  <unicode hex="00D0"/>
  <outline>
    <contour>
      <point x="64" y="396" type="line"/>
      <point x="140" y="396" type="line"/>
      <point x="168" y="622" type="line"/>
      <point x="89" y="622" type="line"/>
      <point x="102" y="729" type="line"/>
      <point x="370" y="729" type="line"/>
      <point x="469" y="729"/>
      <point x="607" y="671"/>
      <point x="692" y="578"/>
      <point x="730" y="459"/>
      <point x="730" y="398" type="qcurve"/>
      <point x="730" y="306"/>
      <point x="661" y="159"/>
      <point x="546" y="55"/>
      <point x="397" y="0"/>
      <point x="316" y="0" type="qcurve"/>
      <point x="13" y="0" type="line"/>
      <point x="26" y="107" type="line"/>
      <point x="105" y="107" type="line"/>
      <point x="130" y="314" type="line"/>
      <point x="54" y="314" type="line"/>
    </contour>
    <contour>
      <point x="312" y="116" type="line"/>
      <point x="374" y="116"/>
      <point x="481" y="153"/>
      <point x="561" y="224"/>
      <point x="606" y="328"/>
      <point x="606" y="395" type="qcurve"/>
      <point x="606" y="453"/>
      <point x="566" y="536"/>
      <point x="503" y="587"/>
      <point x="425" y="611"/>
      <point x="388" y="611" type="qcurve"/>
      <point x="290" y="611" type="line"/>
      <point x="264" y="396" type="line"/>
      <point x="414" y="396" type="line"/>
      <point x="404" y="314" type="line"/>
      <point x="254" y="314" type="line"/>
      <point x="229" y="116" type="line"/>
    </contour>
  </outline>
</glyph>
<glyph name="Ntilde" format="2">
  <advance width="882"/>
  <unicode hex="00D1"/>
  <outline>
    <contour>
      <point x="308" y="107" type="line"/>
      <point x="295" y="0" type="line"/>
      <point x="12" y="0" type="line"/>
      <point x="25" y="107" type="line"/>
      <point x="104" y="107" type="line"/>
      <point x="168" y="622" type="line"/>
      <point x="84" y="622" type="line"/>
      <point x="97" y="729" type="line"/>
      <point x="217" y="729" type="line"/>
      <point x="223" y="720"/>
      <point x="262" y="675"/>
      <point x="319" y="614"/>
      <point x="389" y="542"/>
      <point x="461" y="467"/>
      <point x="530" y="395"/>
      <point x="587" y="334"/>
      <point x="626" y="291"/>
      <point x="632" y="282" type="qcurve"/>
      <point x="648" y="254" type="line"/>
      <point x="648" y="262"/>
      <point x="649" y="280"/>
      <point x="649" y="288" type="qcurve"/>
      <point x="690" y="622" type="line"/>
      <point x="609" y="622" type="line"/>
      <point x="622" y="729" type="line"/>
      <point x="904" y="729" type="line"/>
      <point x="891" y="622" type="line"/>
      <point x="812" y="622" type="line"/>
      <point x="732" y="-34" type="line"/>
      <point x="724" y="-22"/>
      <point x="656" y="54"/>
      <point x="562" y="155"/>
      <point x="455" y="269"/>
      <point x="361" y="370"/>
      <point x="294" y="445"/>
      <point x="287" y="457" type="qcurve"/>
      <point x="271" y="483" type="line"/>
      <point x="270" y="475"/>
      <point x="270" y="459"/>
      <point x="270" y="451" type="qcurve"/>
      <point x="227" y="107" type="line"/>
    </contour>
    <contour>
      <point x="460" y="810" type="qcurve"/>
      <point x="446" y="824"/>
      <point x="425" y="835"/>
      <point x="411" y="835" type="qcurve"/>
      <point x="404" y="835"/>
      <point x="387" y="832"/>
      <point x="371" y="822"/>
      <point x="358" y="805"/>
      <point x="355" y="791" type="qcurve"/>
      <point x="301" y="793" type="line"/>
      <point x="305" y="814"/>
      <point x="327" y="849"/>
      <point x="358" y="874"/>
      <point x="392" y="888"/>
      <point x="408" y="888" type="qcurve"/>
      <point x="433" y="888"/>
      <point x="469" y="872"/>
      <point x="484" y="856" type="qcurve"/>
      <point x="498" y="841"/>
      <point x="519" y="831"/>
      <point x="533" y="831" type="qcurve"/>
      <point x="547" y="831"/>
      <point x="583" y="847"/>
      <point x="590" y="875" type="qcurve"/>
      <point x="643" y="873" type="line"/>
      <point x="639" y="852"/>
      <point x="617" y="817"/>
      <point x="586" y="792"/>
      <point x="552" y="778"/>
      <point x="536" y="778" type="qcurve"/>
      <point x="512" y="778"/>
      <point x="475" y="795"/>
    </contour>
  </outline>
</glyph>
<glyph name="Ograve" format="2">
  <advance width="815"/>
  <unicode hex="00D2"/>
  <outline>
    <contour>
      <point x="44" y="363" type="qcurve"/>
      <point x="53" y="439"/>
      <point x="128" y="575"/>
      <point x="242" y="677"/>
      <point x="384" y="737"/>
      <point x="461" y="737" type="qcurve"/>
      <point x="531" y="737"/>
      <point x="653" y="683"/>
      <point x="741" y="591"/>
      <point x="792" y="468"/>
      <point x="792" y="399" type="qcurve"/>
      <point x="792" y="316"/>
      <point x="721" y="168"/>
      <point x="604" y="57"/>
      <point x="452" y="-8"/>
      <point x="370" y="-8" type="qcurve"/>
      <point x="293" y="-8"/>
      <point x="165" y="50"/>
      <point x="76" y="151"/>
      <point x="35" y="286"/>
    </contour>
    <contour>
      <point x="167" y="363" type="qcurve"/>
      <point x="160" y="310"/>
      <point x="188" y="217"/>
      <point x="248" y="148"/>
      <point x="334" y="108"/>
      <point x="387" y="108" type="qcurve"/>
      <point x="442" y="108"/>
      <point x="544" y="153"/>
      <point x="622" y="229"/>
      <point x="669" y="332"/>
      <point x="669" y="389" type="qcurve"/>
      <point x="669" y="437"/>
      <point x="636" y="521"/>
      <point x="577" y="583"/>
      <point x="496" y="619"/>
      <point x="448" y="619" type="qcurve"/>
      <point x="396" y="619"/>
      <point x="300" y="579"/>
      <point x="224" y="509"/>
      <point x="173" y="416"/>
    </contour>
    <contour>
      <point x="482" y="916" type="line"/>
      <point x="501" y="882"/>
      <point x="537" y="814"/>
      <point x="556" y="781" type="qcurve"/>
      <point x="485" y="781" type="line"/>
      <point x="459" y="814"/>
      <point x="404" y="882"/>
      <point x="378" y="916" type="qcurve"/>
    </contour>
  </outline>
</glyph>
<glyph name="Otilde" format="2">
  <advance width="815"/>
  <unicode hex="00D5"/>
  <outline>
    <contour>
      <point x="44" y="363" type="qcurve"/>
      <point x="53" y="439"/>
      <point x="128" y="575"/>
      <point x="242" y="677"/>
      <point x="384" y="737"/>
      <point x="461" y="737" type="qcurve"/>
      <point x="531" y="737"/>
      <point x="653" y="683"/>
      <point x="741" y="591"/>
      <point x="792" y="468"/>
      <point x="792" y="399" type="qcurve"/>
      <point x="792" y="316"/>
      <point x="721" y="168"/>
      <point x="604" y="57"/>
      <point x="452" y="-8"/>
      <point x="370" y="-8" type="qcurve"/>
      <point x="293" y="-8"/>
      <point x="165" y="50"/>
      <point x="76" y="151"/>
      <point x="35" y="286"/>
    </contour>
    <contour>
      <point x="167" y="363" type="qcurve"/>
      <point x="160" y="310"/>
      <point x="188" y="217"/>
      <point x="248" y="148"/>
      <point x="334" y="108"/>
      <point x="387" y="108" type="qcurve"/>
      <point x="442" y="108"/>
      <point x="544" y="153"/>
      <point x="622" y="229"/>
      <point x="669" y="332"/>
      <point x="669" y="389" type="qcurve"/>
      <point x="669" y="437"/>
      <point x="636" y="521"/>
      <point x="577" y="583"/>
      <point x="496" y="619"/>
      <point x="448" y="619" type="qcurve"/>
      <point x="396" y="619"/>
      <point x="300" y="579"/>
      <point x="224" y="509"/>
      <point x="173" y="416"/>
    </contour>
    <contour>
      <point x="467" y="812" type="qcurve"/>
      <point x="453" y="826"/>
      <point x="432" y="837"/>
      <point x="418" y="837" type="qcurve"/>
      <point x="411" y="837"/>
      <point x="394" y="834"/>
      <point x="378" y="824"/>
      <point x="365" y="807"/>
      <point x="362" y="793" type="qcurve"/>
      <point x="308" y="795" type="line"/>
      <point x="312" y="816"/>
      <point x="334" y="851"/>
      <point x="365" y="876"/>
      <point x="399" y="890"/>
      <point x="415" y="890" type="qcurve"/>
      <point x="440" y="890"/>
      <point x="476" y="874"/>
      <point x="491" y="858" type="qcurve"/>
      <point x="505" y="843"/>
      <point x="526" y="833"/>
      <point x="540" y="833" type="qcurve"/>
      <point x="554" y="833"/>
      <point x="590" y="849"/>
      <point x="597" y="877" type="qcurve"/>
      <point x="650" y="875" type="line"/>
      <point x="646" y="854"/>
      <point x="624" y="819"/>
      <point x="593" y="794"/>
      <point x="559" y="780"/>
      <point x="543" y="780" type="qcurve"/>
      <point x="519" y="780"/>
      <point x="482" y="797"/>
    </contour>
  </outline>
</glyph>
<glyph name="Odieresis" format="2">
  <advance width="815"/>
  <unicode hex="00D6"/>
  <outline>
    <contour>
      <point x="44" y="363" type="qcurve"/>
      <point x="53" y="439"/>
      <point x="128" y="575"/>
      <point x="242" y="677"/>
      <point x="384" y="737"/>
      <point x="461" y="737" type="qcurve"/>
      <point x="531" y="737"/>
      <point x="653" y="683"/>
      <point x="741" y="591"/>
      <point x="792" y="468"/>
      <point x="792" y="399" type="qcurve"/>
      <point x="792" y="316"/>
      <point x="721" y="168"/>
      <point x="604" y="57"/>
      <point x="452" y="-8"/>
      <point x="370" y="-8" type="qcurve"/>
      <point x="293" y="-8"/>
      <point x="165" y="50"/>
      <point x="76" y="151"/>
      <point x="35" y="286"/>
    </contour>
    <contour>
      <point x="167" y="363" type="qcurve"/>
      <point x="160" y="310"/>
      <point x="188" y="217"/>
      <point x="248" y="148"/>
      <point x="334" y="108"/>
      <point x="387" y="108" type="qcurve"/>
      <point x="442" y="108"/>
      <point x="544" y="153"/>
      <point x="622" y="229"/>
      <point x="669" y="332"/>
      <point x="669" y="389" type="qcurve"/>
      <point x="669" y="437"/>
      <point x="636" y="521"/>
      <point x="577" y="583"/>
      <point x="496" y="619"/>
      <point x="448" y="619" type="qcurve"/>
      <point x="396" y="619"/>
      <point x="300" y="579"/>
      <point x="224" y="509"/>
      <point x="173" y="416"/>
    </contour>
    <contour>
      <point x="510" y="836" type="qcurve"/>
      <point x="510" y="851"/>
      <point x="523" y="876"/>
      <point x="543" y="894"/>
      <point x="568" y="904"/>
      <point x="580" y="904" type="qcurve"/>
      <point x="600" y="904"/>
      <point x="633" y="872"/>
      <point x="633" y="848" type="qcurve"/>
      <point x="633" y="833"/>
      <point x="620" y="808"/>
      <point x="600" y="790"/>
      <point x="576" y="780"/>
      <point x="565" y="780" type="qcurve"/>
      <point x="544" y="780"/>
      <point x="510" y="810"/>
    </contour>
    <contour>
      <point x="317" y="836" type="qcurve"/>
      <point x="317" y="851"/>
      <point x="330" y="876"/>
      <point x="350" y="894"/>
      <point x="375" y="904"/>
      <point x="387" y="904" type="qcurve"/>
      <point x="407" y="904"/>
      <point x="440" y="872"/>
      <point x="440" y="848" type="qcurve"/>
      <point x="440" y="833"/>
      <point x="427" y="808"/>
      <point x="407" y="790"/>
      <point x="383" y="780"/>
      <point x="372" y="780" type="qcurve"/>
      <point x="350" y="780"/>
      <point x="317" y="810"/>
    </contour>
  </outline>
</glyph>
<glyph name="multiply" format="2">
  <advance width="446"/>
  <unicode hex="00D7"/>
  <outline>
    <contour>
      <point x="275" y="0" type="line"/>
      <point x="256" y="23"/>
      <point x="216" y="65"/>
      <point x="196" y="88" type="qcurve"/>
      <point x="173" y="66"/>
      <point x="124" y="23"/>
      <point x="101" y="2" type="qcurve"/>
      <point x="81" y="24"/>
      <point x="42" y="67"/>
      <point x="23" y="88" type="qcurve"/>
      <point x="47" y="111"/>
      <point x="96" y="153"/>
      <point x="122" y="176" type="qcurve"/>
      <point x="42" y="266" type="line"/>
      <point x="142" y="357" type="line"/>
      <point x="222" y="265" type="line"/>
      <point x="321" y="354" type="line"/>
      <point x="340" y="332"/>
      <point x="376" y="287"/>
      <point x="396" y="265" type="qcurve"/>
      <point x="373" y="245"/>
      <point x="323" y="201"/>
      <point x="300" y="179" type="qcurve"/>
      <point x="320" y="157"/>
      <point x="357" y="112"/>
      <point x="377" y="89" type="qcurve"/>
    </contour>
  </outline>
</glyph>
<glyph name="Oslash" format="2">
  <advance width="815"/>
  <unicode hex="00D8"/>
  <outline>
    <contour>
      <point x="44" y="363" type="qcurve"/>
      <point x="53" y="439"/>
      <point x="128" y="575"/>
      <point x="242" y="677"/>
      <point x="384" y="737"/>
      <point x="461" y="737" type="qcurve"/>
      <point x="519" y="737"/>
      <point x="622" y="700"/>
      <point x="664" y="667" type="qcurve"/>
      <point x="730" y="734" type="line"/>
      <point x="781" y="682" type="line"/>
      <point x="768" y="668"/>
      <point x="735" y="636"/>
      <point x="716" y="616" type="qcurve"/>
      <point x="752" y="571"/>
      <point x="792" y="461"/>
      <point x="792" y="399" type="qcurve"/>
      <point x="792" y="316"/>
      <point x="721" y="168"/>
      <point x="604" y="57"/>
      <point x="452" y="-8"/>
      <point x="370" y="-8" type="qcurve"/>
      <point x="311" y="-8"/>
      <point x="209" y="26"/>
      <point x="168" y="57" type="qcurve"/>
      <point x="94" y="-18" type="line"/>
      <point x="41" y="34" type="line"/>
      <point x="114" y="108" type="line"/>
      <point x="72" y="158"/>
      <point x="35" y="288"/>
    </contour>
    <contour>
      <point x="256" y="147" type="line"/>
      <point x="312" y="108"/>
      <point x="387" y="108" type="qcurve"/>
      <point x="442" y="108"/>
      <point x="544" y="153"/>
      <point x="622" y="229"/>
      <point x="669" y="332"/>
      <point x="669" y="389" type="qcurve"/>
      <point x="669" y="467"/>
      <point x="627" y="526" type="qcurve"/>
    </contour>
    <contour>
      <point x="167" y="363" type="qcurve"/>
      <point x="161" y="316"/>
      <point x="181" y="232"/>
      <point x="204" y="199" type="qcurve"/>
      <point x="247" y="243"/>
      <point x="343" y="340"/>
      <point x="439" y="438"/>
      <point x="534" y="534"/>
      <point x="576" y="578" type="qcurve"/>
      <point x="550" y="598"/>
      <point x="485" y="619"/>
      <point x="448" y="619" type="qcurve"/>
      <point x="396" y="619"/>
      <point x="300" y="579"/>
      <point x="224" y="509"/>
      <point x="173" y="416"/>
    </contour>
  </outline>
</glyph>
<glyph name="Udieresis" format="2">
  <advance width="770"/>
  <unicode hex="00DC"/>
  <outline>
    <contour>
      <point x="355" y="729" type="line"/>
      <point x="342" y="622" type="line"/>
      <point x="265" y="622" type="line"/>
      <point x="221" y="263" type="line"/>
      <point x="217" y="231"/>
      <point x="235" y="175"/>
      <point x="273" y="133"/>
      <point x="328" y="108"/>
      <point x="362" y="108" type="qcurve"/>
      <point x="396" y="108"/>
      <point x="458" y="133"/>
      <point x="506" y="175"/>
      <point x="538" y="231"/>
      <point x="542" y="263" type="qcurve"/>
      <point x="586" y="622" type="line"/>
      <point x="600" y="729" type="line"/>
      <point x="801" y="729" type="line"/>
      <point x="787" y="622" type="line"/>
      <point x="709" y="622" type="line"/>
      <point x="665" y="260" type="line"/>
      <point x="657" y="200"/>
      <point x="601" y="101"/>
      <point x="515" y="31"/>
      <point x="407" y="-8"/>
      <point x="348" y="-8" type="qcurve"/>
      <point x="289" y="-8"/>
      <point x="190" y="31"/>
      <point x="123" y="101"/>
      <point x="91" y="200"/>
      <point x="98" y="260" type="qcurve"/>
      <point x="143" y="622" type="line"/>
      <point x="59" y="622" type="line"/>
      <point x="72" y="729" type="line"/>
    </contour>
    <contour>
      <point x="295" y="834" type="qcurve"/>
      <point x="295" y="849"/>
      <point x="308" y="874"/>
      <point x="328" y="892"/>
      <point x="353" y="902"/>
      <point x="365" y="902" type="qcurve"/>
      <point x="385" y="902"/>
      <point x="418" y="870"/>
      <point x="418" y="846" type="qcurve"/>
      <point x="418" y="831"/>
      <point x="405" y="806"/>
      <point x="385" y="788"/>
      <point x="361" y="778"/>
      <point x="350" y="778" type="qcurve"/>
      <point x="328" y="778"/>
      <point x="295" y="808"/>
    </contour>
    <contour>
      <point x="488" y="834" type="qcurve"/>
      <point x="488" y="849"/>
      <point x="501" y="874"/>
      <point x="521" y="892"/>
      <point x="546" y="902"/>
      <point x="558" y="902" type="qcurve"/>
      <point x="578" y="902"/>
      <point x="611" y="870"/>
      <point x="611" y="846" type="qcurve"/>
      <point x="611" y="831"/>
      <point x="598" y="806"/>
      <point x="578" y="788"/>
      <point x="554" y="778"/>
      <point x="543" y="778" type="qcurve"/>
      <point x="522" y="778"/>
      <point x="488" y="808"/>
    </contour>
  </outline>
</glyph>
<glyph name="Thorn" format="2">
  <advance width="619"/>
  <unicode hex="00DE"/>
  <outline>
    <contour>
      <point x="226" y="107" type="line"/>
      <point x="213" y="0" type="line"/>
      <point x="11" y="0" type="line"/>
      <point x="24" y="107" type="line"/>
      <point x="103" y="107" type="line"/>
      <point x="167" y="622" type="line"/>
      <point x="87" y="622" type="line"/>
      <point x="100" y="729" type="line"/>
      <point x="302" y="729" type="line"/>
      <point x="300" y="711" type="line"/>
      <point x="301" y="711" type="line"/>
      <point x="287" y="600" type="line"/>
      <point x="371" y="600" type="line"/>
      <point x="426" y="600"/>
      <point x="515" y="572"/>
      <point x="577" y="519"/>
      <point x="610" y="442"/>
      <point x="610" y="394" type="qcurve"/>
      <point x="610" y="348"/>
      <point x="580" y="251"/>
      <point x="513" y="172"/>
      <point x="406" y="122"/>
      <point x="330" y="122" type="qcurve"/>
      <point x="228" y="122" type="line"/>
    </contour>
    <contour>
      <point x="242" y="237" type="line"/>
      <point x="339" y="237" type="line"/>
      <point x="381" y="237"/>
      <point x="437" y="267"/>
      <point x="471" y="310"/>
      <point x="486" y="359"/>
      <point x="486" y="377" type="qcurve"/>
      <point x="486" y="393"/>
      <point x="475" y="431"/>
      <point x="449" y="464"/>
      <point x="404" y="485"/>
      <point x="371" y="485" type="qcurve"/>
      <point x="272" y="485" type="line"/>
    </contour>
  </outline>
</glyph>
<glyph name="germandbls" format="2">
  <advance width="570"/>
  <unicode hex="00DF"/>
  <outline>
    <contour>
      <point x="196" y="6" type="qcurve"/>
      <point x="209" y="29"/>
      <point x="236" y="75"/>
      <point x="250" y="98" type="qcurve"/>
      <point x="267" y="91"/>
      <point x="289" y="91" type="qcurve"/>
      <point x="316" y="91"/>
      <point x="366" y="113"/>
      <point x="405" y="150"/>
      <point x="428" y="199"/>
      <point x="428" y="227" type="qcurve"/>
      <point x="428" y="250"/>
      <point x="411" y="291"/>
      <point x="381" y="321"/>
      <point x="341" y="338"/>
      <point x="318" y="337" type="qcurve"/>
      <point x="316" y="337" type="line"/>
      <point x="318" y="349"/>
      <point x="320" y="374"/>
      <point x="321" y="386" type="qcurve"/>
      <point x="327" y="437" type="line"/>
      <point x="361" y="437"/>
      <point x="405" y="476"/>
      <point x="405" y="507" type="qcurve"/>
      <point x="405" y="533"/>
      <point x="367" y="567"/>
      <point x="330" y="567" type="qcurve"/>
      <point x="274" y="567"/>
      <point x="219" y="489"/>
      <point x="211" y="421" type="qcurve"/>
      <point x="160" y="0" type="line"/>
      <point x="58" y="0" type="line"/>
      <point x="98" y="330" type="line"/>
      <point x="33" y="330" type="line"/>
      <point x="46" y="430" type="line"/>
      <point x="111" y="430" type="line"/>
      <point x="111" y="429" type="line"/>
      <point x="117" y="484"/>
      <point x="157" y="573"/>
      <point x="219" y="635"/>
      <point x="296" y="668"/>
      <point x="339" y="668" type="qcurve"/>
      <point x="380" y="668"/>
      <point x="443" y="645"/>
      <point x="486" y="604"/>
      <point x="508" y="551"/>
      <point x="508" y="521" type="qcurve"/>
      <point x="508" y="486"/>
      <point x="474" y="413"/>
      <point x="438" y="396" type="qcurve"/>
      <point x="453" y="392"/>
      <point x="486" y="365"/>
      <point x="513" y="322"/>
      <point x="531" y="266"/>
      <point x="531" y="233" type="qcurve"/>
      <point x="531" y="185"/>
      <point x="488" y="97"/>
      <point x="417" y="30"/>
      <point x="324" y="-10"/>
      <point x="275" y="-10" type="qcurve"/>
      <point x="255" y="-10"/>
      <point x="214" y="-2"/>
    </contour>
  </outline>
</glyph>
<glyph name="acircumflex" format="2">
  <advance width="571"/>
  <unicode hex="00E2"/>
  <outline>
    <contour>
      <point x="462" y="83" type="line"/>
      <point x="518" y="83" type="line"/>
      <point x="508" y="0" type="line"/>
      <point x="356" y="0" type="line"/>
      <point x="359" y="28" type="line"/>
      <point x="360" y="33"/>
      <point x="361" y="42"/>
      <point x="361" y="44" type="qcurve"/>
      <point x="357" y="39"/>
      <point x="335" y="20"/>
      <point x="299" y="2"/>
      <point x="250" y="-11"/>
      <point x="219" y="-11" type="qcurve"/>
      <point x="174" y="-11"/>
      <point x="100" y="21"/>
      <point x="48" y="75"/>
      <point x="20" y="146"/>
      <point x="20" y="186" type="qcurve"/>
      <point x="20" y="236"/>
      <point x="62" y="326"/>
      <point x="133" y="395"/>
      <point x="224" y="436"/>
      <point x="273" y="436" type="qcurve"/>
      <point x="303" y="436"/>
      <point x="349" y="421"/>
      <point x="381" y="401"/>
      <point x="399" y="380"/>
      <point x="401" y="374" type="qcurve"/>
      <point x="404" y="385"/>
      <point x="409" y="411"/>
      <point x="412" y="425" type="qcurve"/>
      <point x="504" y="425" type="line"/>
    </contour>
    <contour>
      <point x="118" y="199" type="qcurve"/>
      <point x="118" y="149"/>
      <point x="181" y="83"/>
      <point x="235" y="83" type="qcurve"/>
      <point x="266" y="83"/>
      <point x="321" y="106"/>
      <point x="360" y="145"/>
      <point x="383" y="198"/>
      <point x="383" y="228" type="qcurve"/>
      <point x="383" y="277"/>
      <point x="320" y="342"/>
      <point x="266" y="342" type="qcurve"/>
      <point x="235" y="342"/>
      <point x="181" y="320"/>
      <point x="141" y="282"/>
      <point x="118" y="229"/>
    </contour>
    <contour>
      <point x="288" y="634" type="qcurve"/>
      <point x="309" y="605"/>
      <point x="328" y="578" type="qcurve"/>
      <point x="345" y="555"/>
      <point x="380" y="504"/>
      <point x="392" y="487" type="qcurve"/>
      <point x="321" y="487" type="line"/>
      <point x="276" y="534" type="line"/>
      <point x="220" y="487" type="line"/>
      <point x="148" y="487" type="line"/>
      <point x="163" y="504"/>
      <point x="210" y="554"/>
      <point x="233" y="577" type="qcurve"/>
      <point x="259" y="604"/>
    </contour>
  </outline>
</glyph>
<glyph name="atilde" format="2">
  <advance width="571"/>
  <unicode hex="00E3"/>
  <outline>
    <contour>
      <point x="462" y="83" type="line"/>
      <point x="518" y="83" type="line"/>
      <point x="508" y="0" type="line"/>
      <point x="356" y="0" type="line"/>
      <point x="359" y="28" type="line"/>
      <point x="360" y="33"/>
      <point x="361" y="42"/>
      <point x="361" y="44" type="qcurve"/>
      <point x="357" y="39"/>
      <point x="335" y="20"/>
      <point x="299" y="2"/>
      <point x="250" y="-11"/>
      <point x="219" y="-11" type="qcurve"/>
      <point x="174" y="-11"/>
      <point x="100" y="21"/>
      <point x="48" y="75"/>
      <point x="20" y="146"/>
      <point x="20" y="186" type="qcurve"/>
      <point x="20" y="236"/>
      <point x="62" y="326"/>
      <point x="133" y="395"/>
      <point x="224" y="436"/>
      <point x="273" y="436" type="qcurve"/>
      <point x="303" y="436"/>
      <point x="349" y="421"/>
      <point x="381" y="401"/>
      <point x="399" y="380"/>
      <point x="401" y="374" type="qcurve"/>
      <point x="404" y="385"/>
      <point x="409" y="411"/>
      <point x="412" y="425" type="qcurve"/>
      <point x="504" y="425" type="line"/>
    </contour>
    <contour>
      <point x="118" y="199" type="qcurve"/>
      <point x="118" y="149"/>
      <point x="181" y="83"/>
      <point x="235" y="83" type="qcurve"/>
      <point x="266" y="83"/>
      <point x="321" y="106"/>
      <point x="360" y="145"/>
      <point x="383" y="198"/>
      <point x="383" y="228" type="qcurve"/>
      <point x="383" y="277"/>
      <point x="320" y="342"/>
      <point x="266" y="342" type="qcurve"/>
      <point x="235" y="342"/>
      <point x="181" y="320"/>
      <point x="141" y="282"/>
      <point x="118" y="229"/>
    </contour>
    <contour>
      <point x="287" y="507" type="qcurve"/>
      <point x="273" y="521"/>
      <point x="252" y="532"/>
      <point x="238" y="532" type="qcurve"/>
      <point x="231" y="532"/>
      <point x="214" y="529"/>
      <point x="198" y="519"/>
      <point x="185" y="502"/>
      <point x="182" y="488" type="qcurve"/>
      <point x="128" y="490" type="line"/>
      <point x="132" y="511"/>
      <point x="154" y="546"/>
      <point x="185" y="571"/>
      <point x="219" y="585"/>
      <point x="235" y="585" type="qcurve"/>
      <point x="260" y="585"/>
      <point x="296" y="569"/>
      <point x="311" y="553" type="qcurve"/>
      <point x="325" y="538"/>
      <point x="346" y="528"/>
      <point x="360" y="528" type="qcurve"/>
      <point x="374" y="528"/>
      <point x="410" y="544"/>
      <point x="417" y="572" type="qcurve"/>
      <point x="470" y="570" type="line"/>
      <point x="466" y="549"/>
      <point x="444" y="514"/>
      <point x="413" y="489"/>
      <point x="379" y="475"/>
      <point x="363" y="475" type="qcurve"/>
      <point x="339" y="475"/>
      <point x="302" y="492"/>
    </contour>
  </outline>
</glyph>
<glyph name="ae" format="2">
  <advance width="708"/>
  <unicode hex="00E6"/>
  <outline>
    <contour>
      <point x="632" y="49" type="line"/>
      <point x="597" y="21"/>
      <point x="505" y="-11"/>
      <point x="459" y="-11" type="qcurve"/>
      <point x="414" y="-11"/>
      <point x="340" y="21"/>
      <point x="314" y="50" type="qcurve"/>
      <point x="283" y="22"/>
      <point x="194" y="-8"/>
      <point x="143" y="-8" type="qcurve"/>
      <point x="105" y="-8"/>
      <point x="52" y="9"/>
      <point x="20" y="39"/>
      <point x="6" y="78"/>
      <point x="6" y="99" type="qcurve"/>
      <point x="6" y="136"/>
      <point x="36" y="190"/>
      <point x="83" y="225"/>
      <point x="138" y="241"/>
      <point x="163" y="241" type="qcurve"/>
      <point x="265" y="241" type="line"/>
      <point x="274" y="278"/>
      <point x="296" y="313" type="qcurve"/>
      <point x="286" y="329"/>
      <point x="247" y="341"/>
      <point x="218" y="341" type="qcurve"/>
      <point x="179" y="341"/>
      <point x="114" y="324"/>
      <point x="90" y="311" type="qcurve"/>
      <point x="60" y="385" type="line"/>
      <point x="98" y="409"/>
      <point x="191" y="436"/>
      <point x="241" y="436" type="qcurve"/>
      <point x="285" y="436"/>
      <point x="350" y="410"/>
      <point x="367" y="387" type="qcurve"/>
      <point x="399" y="410"/>
      <point x="472" y="435"/>
      <point x="511" y="435" type="qcurve"/>
      <point x="583" y="435"/>
      <point x="681" y="349"/>
      <point x="694" y="277" type="qcurve"/>
      <point x="663" y="266"/>
      <point x="580" y="235"/>
      <point x="491" y="201"/>
      <point x="401" y="166"/>
      <point x="362" y="152" type="qcurve"/>
      <point x="375" y="121"/>
      <point x="431" y="83"/>
      <point x="469" y="83" type="qcurve"/>
      <point x="495" y="83"/>
      <point x="550" y="102"/>
      <point x="569" y="118" type="qcurve"/>
    </contour>
    <contour>
      <point x="578" y="299" type="qcurve"/>
      <point x="569" y="321"/>
      <point x="524" y="342"/>
      <point x="501" y="342" type="qcurve"/>
      <point x="473" y="342"/>
      <point x="422" y="320"/>
      <point x="383" y="284"/>
      <point x="358" y="237"/>
      <point x="356" y="213" type="qcurve"/>
      <point x="382" y="223"/>
      <point x="442" y="246"/>
      <point x="501" y="270"/>
      <point x="557" y="291"/>
    </contour>
    <contour>
      <point x="95" y="119" type="qcurve"/>
      <point x="95" y="97"/>
      <point x="134" y="83"/>
      <point x="159" y="83" type="qcurve"/>
      <point x="185" y="83"/>
      <point x="250" y="92"/>
      <point x="275" y="108" type="qcurve"/>
      <point x="263" y="138"/>
      <point x="260" y="171" type="qcurve"/>
      <point x="204" y="171" type="line"/>
      <point x="172" y="171"/>
      <point x="130" y="163"/>
      <point x="105" y="149"/>
      <point x="95" y="130"/>
    </contour>
  </outline>
</glyph>
<glyph name="ccedilla" format="2">
  <advance width="416"/>
  <unicode hex="00E7"/>
  <outline>
    <contour>
      <point x="319" y="111" type="qcurve"/>
      <point x="333" y="92"/>
      <point x="355" y="57"/>
      <point x="369" y="39" type="qcurve"/>
      <point x="338" y="16"/>
      <point x="265" y="-10"/>
      <point x="225" y="-11" type="qcurve"/>
      <point x="224" y="-25"/>
      <point x="231" y="-40"/>
      <point x="243" y="-50"/>
      <point x="256" y="-57"/>
      <point x="262" y="-62" type="qcurve"/>
      <point x="291" y="-87"/>
      <point x="291" y="-131" type="qcurve"/>
      <point x="291" y="-155"/>
      <point x="275" y="-201"/>
      <point x="242" y="-238"/>
      <point x="194" y="-261"/>
      <point x="163" y="-261" type="qcurve"/>
      <point x="127" y="-261"/>
      <point x="70" y="-222"/>
      <point x="61" y="-180" type="qcurve"/>
      <point x="120" y="-151" type="line"/>
      <point x="123" y="-166"/>
      <point x="145" y="-186"/>
      <point x="164" y="-186" type="qcurve"/>
      <point x="190" y="-186"/>
      <point x="216" y="-151"/>
      <point x="216" y="-128" type="qcurve"/>
      <point x="216" y="-112"/>
      <point x="197" y="-93"/>
      <point x="176" y="-74"/>
      <point x="159" y="-48"/>
      <point x="162" y="-23" type="qcurve"/>
      <point x="164" y="-3" type="line"/>
      <point x="132" y="6"/>
      <point x="79" y="42"/>
      <point x="41" y="93"/>
      <point x="20" y="155"/>
      <point x="20" y="190" type="qcurve"/>
      <point x="20" y="240"/>
      <point x="62" y="329"/>
      <point x="132" y="397"/>
      <point x="225" y="436"/>
      <point x="276" y="436" type="qcurve"/>
      <point x="318" y="436"/>
      <point x="387" y="409"/>
      <point x="414" y="386" type="qcurve"/>
      <point x="344" y="315" type="line"/>
      <point x="314" y="342"/>
      <point x="264" y="342" type="qcurve"/>
      <point x="232" y="342"/>
      <point x="178" y="320"/>
      <point x="138" y="282"/>
      <point x="116" y="229"/>
      <point x="116" y="199" type="qcurve"/>
      <point x="116" y="150"/>
      <point x="178" y="83"/>
      <point x="232" y="83" type="qcurve"/>
      <point x="282" y="83"/>
    </contour>
  </outline>
</glyph>
<glyph name="edieresis" format="2">
  <advance width="468"/>
  <unicode hex="00EB"/>
  <outline>
    <contour>
      <point x="393" y="49" type="line"/>
      <point x="359" y="21"/>
      <point x="267" y="-11"/>
      <point x="221" y="-11" type="qcurve"/>
      <point x="175" y="-11"/>
      <point x="101" y="21"/>
      <point x="48" y="75"/>
      <point x="20" y="148"/>
      <point x="20" y="189" type="qcurve"/>
      <point x="20" y="239"/>
      <point x="62" y="329"/>
      <point x="133" y="396"/>
      <point x="224" y="435"/>
      <point x="272" y="435" type="qcurve"/>
      <point x="344" y="435"/>
      <point x="442" y="349"/>
      <point x="456" y="277" type="qcurve"/>
      <point x="424" y="266"/>
      <point x="342" y="235"/>
      <point x="252" y="201"/>
      <point x="162" y="166"/>
      <point x="124" y="152" type="qcurve"/>
      <point x="136" y="121"/>
      <point x="193" y="83"/>
      <point x="230" y="83" type="qcurve"/>
      <point x="256" y="83"/>
      <point x="311" y="102"/>
      <point x="331" y="118" type="qcurve"/>
    </contour>
    <contour>
      <point x="340" y="299" type="qcurve"/>
      <point x="330" y="321"/>
      <point x="285" y="342"/>
      <point x="262" y="342" type="qcurve"/>
      <point x="234" y="342"/>
      <point x="184" y="320"/>
      <point x="145" y="284"/>
      <point x="120" y="238"/>
      <point x="118" y="213" type="qcurve"/>
      <point x="144" y="223"/>
      <point x="204" y="246"/>
      <point x="263" y="270"/>
      <point x="319" y="291"/>
    </contour>
    <contour>
      <point x="122" y="528" type="qcurve"/>
      <point x="122" y="543"/>
      <point x="135" y="568"/>
      <point x="155" y="586"/>
      <point x="180" y="596"/>
      <point x="192" y="596" type="qcurve"/>
      <point x="212" y="596"/>
      <point x="245" y="564"/>
      <point x="245" y="540" type="qcurve"/>
      <point x="245" y="525"/>
      <point x="232" y="500"/>
      <point x="212" y="482"/>
      <point x="188" y="472"/>
      <point x="177" y="472" type="qcurve"/>
      <point x="155" y="472"/>
      <point x="122" y="502"/>
    </contour>
    <contour>
      <point x="315" y="528" type="qcurve"/>
      <point x="315" y="543"/>
      <point x="328" y="568"/>
      <point x="348" y="586"/>
      <point x="373" y="596"/>
      <point x="385" y="596" type="qcurve"/>
      <point x="405" y="596"/>
      <point x="438" y="564"/>
      <point x="438" y="540" type="qcurve"/>
      <point x="438" y="525"/>
      <point x="425" y="500"/>
      <point x="405" y="482"/>
      <point x="381" y="472"/>
      <point x="370" y="472" type="qcurve"/>
      <point x="349" y="472"/>
      <point x="315" y="502"/>
    </contour>
  </outline>
</glyph>
<glyph name="igrave" format="2">
  <advance width="280"/>
  <unicode hex="00EC"/>
  <outline>
    <contour>
      <point x="168" y="96" type="line"/>
      <point x="166" y="86" type="line"/>
      <point x="165" y="83" type="line"/>
      <point x="230" y="83" type="line"/>
      <point x="220" y="0" type="line"/>
      <point x="4" y="0" type="line"/>
      <point x="14" y="83" type="line"/>
      <point x="70" y="83" type="line"/>
      <point x="72" y="99" type="line"/>
      <point x="102" y="342" type="line"/>
      <point x="45" y="342" type="line"/>
      <point x="56" y="425" type="line"/>
      <point x="208" y="425" type="line"/>
      <point x="167" y="96" type="line"/>
    </contour>
    <contour>
      <point x="169" y="622" type="line"/>
      <point x="188" y="588"/>
      <point x="224" y="520"/>
      <point x="243" y="487" type="qcurve"/>
      <point x="172" y="487" type="line"/>
      <point x="146" y="520"/>
      <point x="91" y="588"/>
      <point x="65" y="622" type="qcurve"/>
    </contour>
  </outline>
</glyph>
<glyph name="icircumflex" format="2">
  <advance width="280"/>
  <unicode hex="00EE"/>
  <outline>
    <contour>
      <point x="168" y="96" type="line"/>
      <point x="166" y="86" type="line"/>
      <point x="165" y="83" type="line"/>
      <point x="230" y="83" type="line"/>
      <point x="220" y="0" type="line"/>
      <point x="4" y="0" type="line"/>
      <point x="14" y="83" type="line"/>
      <point x="70" y="83" type="line"/>
      <point x="72" y="99" type="line"/>
      <point x="102" y="342" type="line"/>
      <point x="45" y="342" type="line"/>
      <point x="56" y="425" type="line"/>
      <point x="208" y="425" type="line"/>
      <point x="167" y="96" type="line"/>
    </contour>
    <contour>
      <point x="184" y="634" type="qcurve"/>
      <point x="205" y="605"/>
      <point x="224" y="578" type="qcurve"/>
      <point x="241" y="555"/>
      <point x="276" y="504"/>
      <point x="288" y="487" type="qcurve"/>
      <point x="217" y="487" type="line"/>
      <point x="172" y="534" type="line"/>
      <point x="116" y="487" type="line"/>
      <point x="44" y="487" type="line"/>
      <point x="59" y="504"/>
      <point x="106" y="554"/>
      <point x="129" y="577" type="qcurve"/>
      <point x="155" y="604"/>
    </contour>
  </outline>
</glyph>
<glyph name="eth" format="2">
  <advance width="521"/>
  <unicode hex="00F0"/>
  <outline>
    <contour>
      <point x="23" y="213" type="qcurve"/>
      <point x="29" y="260"/>
      <point x="73" y="341"/>
      <point x="141" y="401"/>
      <point x="229" y="435"/>
      <point x="278" y="435" type="qcurve"/>
      <point x="320" y="435"/>
      <point x="356" y="421" type="qcurve"/>
      <point x="346" y="466"/>
      <point x="308" y="561"/>
      <point x="279" y="609" type="qcurve"/>
      <point x="263" y="592"/>
      <point x="230" y="563"/>
      <point x="214" y="547" type="qcurve"/>
      <point x="165" y="597" type="line"/>
      <point x="240" y="669" type="line"/>
      <point x="219" y="697"/>
      <point x="174" y="748"/>
      <point x="149" y="771" type="qcurve"/>
      <point x="213" y="824" type="line"/>
      <point x="238" y="804"/>
      <point x="282" y="757"/>
      <point x="304" y="731" type="qcurve"/>
      <point x="320" y="746"/>
      <point x="351" y="775"/>
      <point x="367" y="792" type="qcurve"/>
      <point x="416" y="742" type="line"/>
      <point x="398" y="725"/>
      <point x="362" y="691"/>
      <point x="344" y="673" type="qcurve"/>
      <point x="371" y="631"/>
      <point x="420" y="530"/>
      <point x="456" y="422"/>
      <point x="477" y="312"/>
      <point x="477" y="261" type="qcurve"/>
      <point x="477" y="256"/>
      <point x="476" y="247"/>
      <point x="476" y="243" type="qcurve"/>
      <point x="476" y="238" type="line"/>
      <point x="476" y="186"/>
      <point x="437" y="95"/>
      <point x="369" y="28"/>
      <point x="276" y="-11"/>
      <point x="221" y="-11" type="qcurve"/>
      <point x="173" y="-11"/>
      <point x="95" y="20"/>
      <point x="41" y="78"/>
      <point x="17" y="161"/>
    </contour>
    <contour>
      <point x="118" y="212" type="qcurve"/>
      <point x="112" y="156"/>
      <point x="175" y="83"/>
      <point x="232" y="83" type="qcurve"/>
      <point x="262" y="83"/>
      <point x="315" y="105"/>
      <point x="355" y="143"/>
      <point x="378" y="196"/>
      <point x="378" y="226" type="qcurve"/>
      <point x="378" y="251"/>
      <point x="361" y="293"/>
      <point x="331" y="324"/>
      <point x="288" y="342"/>
      <point x="263" y="342" type="qcurve"/>
      <point x="235" y="342"/>
      <point x="185" y="322"/>
      <point x="146" y="287"/>
      <point x="121" y="240"/>
    </contour>
  </outline>
</glyph>
<glyph name="ntilde" format="2">
  <advance width="583"/>
  <unicode hex="00F1"/>
  <outline>
    <contour>
      <point x="167" y="96" type="line"/>
      <point x="165" y="86" type="line"/>
      <point x="164" y="83" type="line"/>
      <point x="229" y="83" type="line"/>
      <point x="219" y="0" type="line"/>
      <point x="3" y="0" type="line"/>
      <point x="13" y="83" type="line"/>
      <point x="69" y="83" type="line"/>
      <point x="71" y="99" type="line"/>
      <point x="101" y="342" type="line"/>
      <point x="44" y="342" type="line"/>
      <point x="55" y="425" type="line"/>
      <point x="195" y="425" type="line"/>
      <point x="193" y="407"/>
      <point x="192" y="379"/>
      <point x="192" y="354"/>
      <point x="191" y="330"/>
      <point x="190" y="316" type="qcurve"/>
      <point x="220" y="370"/>
      <point x="312" y="436"/>
      <point x="375" y="436" type="qcurve"/>
      <point x="440" y="436"/>
      <point x="509" y="365"/>
      <point x="504" y="308" type="qcurve"/>
      <point x="479" y="105" type="line"/>
      <point x="476" y="83" type="line"/>
      <point x="532" y="83" type="line"/>
      <point x="522" y="0" type="line"/>
      <point x="307" y="0" type="line"/>
      <point x="317" y="83" type="line"/>
      <point x="380" y="83" type="line"/>
      <point x="382" y="96" type="line"/>
      <point x="383" y="102" type="line"/>
      <point x="403" y="263" type="line"/>
      <point x="405" y="294"/>
      <point x="371" y="339"/>
      <point x="328" y="341" type="qcurve"/>
      <point x="299" y="341"/>
      <point x="248" y="320"/>
      <point x="209" y="284"/>
      <point x="183" y="234"/>
      <point x="180" y="205" type="qcurve"/>
      <point x="166" y="96" type="line"/>
    </contour>
    <contour>
      <point x="321" y="513" type="qcurve"/>
      <point x="307" y="527"/>
      <point x="286" y="538"/>
      <point x="272" y="538" type="qcurve"/>
      <point x="265" y="538"/>
      <point x="248" y="535"/>
      <point x="232" y="525"/>
      <point x="219" y="508"/>
      <point x="216" y="494" type="qcurve"/>
      <point x="162" y="496" type="line"/>
      <point x="166" y="517"/>
      <point x="188" y="552"/>
      <point x="219" y="577"/>
      <point x="253" y="591"/>
      <point x="269" y="591" type="qcurve"/>
      <point x="294" y="591"/>
      <point x="330" y="575"/>
      <point x="345" y="559" type="qcurve"/>
      <point x="359" y="544"/>
      <point x="380" y="534"/>
      <point x="394" y="534" type="qcurve"/>
      <point x="408" y="534"/>
      <point x="444" y="550"/>
      <point x="451" y="578" type="qcurve"/>
      <point x="504" y="576" type="line"/>
      <point x="500" y="555"/>
      <point x="478" y="520"/>
      <point x="447" y="495"/>
      <point x="413" y="481"/>
      <point x="397" y="481" type="qcurve"/>
      <point x="373" y="481"/>
      <point x="336" y="498"/>
    </contour>
  </outline>
</glyph>
<glyph name="divide" format="2">
  <advance width="446"/>
  <unicode hex="00F7"/>
  <outline>
    <contour>
      <point x="396" y="208" type="line"/>
      <point x="31" y="208" type="line"/>
      <point x="43" y="308" type="line"/>
      <point x="409" y="308" type="line"/>
    </contour>
    <contour>
      <point x="180" y="405" type="qcurve"/>
      <point x="180" y="420"/>
      <point x="192" y="445"/>
      <point x="212" y="463"/>
      <point x="237" y="474"/>
      <point x="250" y="474" type="qcurve"/>
      <point x="270" y="474"/>
      <point x="303" y="441"/>
      <point x="303" y="417" type="qcurve"/>
      <point x="303" y="402"/>
      <point x="290" y="377"/>
      <point x="270" y="360"/>
      <point x="246" y="350"/>
      <point x="234" y="350" type="qcurve"/>
      <point x="213" y="350"/>
      <point x="180" y="379"/>
    </contour>
    <contour>
      <point x="143" y="103" type="qcurve"/>
      <point x="143" y="118"/>
      <point x="155" y="143"/>
      <point x="175" y="161"/>
      <point x="200" y="172"/>
      <point x="212" y="172" type="qcurve"/>
      <point x="232" y="172"/>
      <point x="265" y="139"/>
      <point x="265" y="115" type="qcurve"/>
      <point x="265" y="100"/>
      <point x="252" y="75"/>
      <point x="233" y="58"/>
      <point x="209" y="48"/>
      <point x="198" y="48" type="qcurve"/>
      <point x="176" y="48"/>
      <point x="143" y="77"/>
    </contour>
  </outline>
</glyph>
<glyph name="ugrave" format="2">
  <advance width="573"/>
  <unicode hex="00F9"/>
  <outline>
    <contour>
      <point x="85" y="319" type="line"/>
      <point x="88" y="342" type="line"/>
      <point x="32" y="342" type="line"/>
      <point x="42" y="425" type="line"/>
      <point x="194" y="425" type="line"/>
      <point x="182" y="323" type="line"/>
      <point x="181" y="323" type="line"/>
      <point x="162" y="161" type="line"/>
      <point x="160" y="130"/>
      <point x="194" y="87"/>
      <point x="237" y="85" type="qcurve"/>
      <point x="266" y="85"/>
      <point x="317" y="105"/>
      <point x="356" y="141"/>
      <point x="382" y="191"/>
      <point x="385" y="220" type="qcurve"/>
      <point x="399" y="333" type="line"/>
      <point x="400" y="342" type="line"/>
      <point x="336" y="342" type="line"/>
      <point x="346" y="425" type="line"/>
      <point x="506" y="425" type="line"/>
      <point x="464" y="83" type="line"/>
      <point x="520" y="83" type="line"/>
      <point x="510" y="0" type="line"/>
      <point x="374" y="0" type="line"/>
      <point x="375" y="108" type="line"/>
      <point x="346" y="57"/>
      <point x="256" y="-10"/>
      <point x="190" y="-10" type="qcurve"/>
      <point x="124" y="-10"/>
      <point x="56" y="59"/>
      <point x="61" y="116" type="qcurve"/>
    </contour>
    <contour>
      <point x="279" y="622" type="line"/>
      <point x="298" y="588"/>
      <point x="334" y="520"/>
      <point x="353" y="487" type="qcurve"/>
      <point x="282" y="487" type="line"/>
      <point x="256" y="520"/>
      <point x="201" y="588"/>
      <point x="175" y="622" type="qcurve"/>
    </contour>
  </outline>
</glyph>
<glyph name="ucircumflex" format="2">
  <advance width="573"/>
  <unicode hex="00FB"/>
  <outline>
    <contour>
      <point x="85" y="319" type="line"/>
      <point x="88" y="342" type="line"/>
      <point x="32" y="342" type="line"/>
      <point x="42" y="425" type="line"/>
      <point x="194" y="425" type="line"/>
      <point x="182" y="323" type="line"/>
      <point x="181" y="323" type="line"/>
      <point x="162" y="161" type="line"/>
      <point x="160" y="130"/>
      <point x="194" y="87"/>
      <point x="237" y="85" type="qcurve"/>
      <point x="266" y="85"/>
      <point x="317" y="105"/>
      <point x="356" y="141"/>
      <point x="382" y="191"/>
      <point x="385" y="220" type="qcurve"/>
      <point x="399" y="333" type="line"/>
      <point x="400" y="342" type="line"/>
      <point x="336" y="342" type="line"/>
      <point x="346" y="425" type="line"/>
      <point x="506" y="425" type="line"/>
      <point x="464" y="83" type="line"/>
      <point x="520" y="83" type="line"/>
      <point x="510" y="0" type="line"/>
      <point x="374" y="0" type="line"/>
      <point x="375" y="108" type="line"/>
      <point x="346" y="57"/>
      <point x="256" y="-10"/>
      <point x="190" y="-10" type="qcurve"/>
      <point x="124" y="-10"/>
      <point x="56" y="59"/>
      <point x="61" y="116" type="qcurve"/>
    </contour>
    <contour>
      <point x="329" y="634" type="qcurve"/>
      <point x="350" y="605"/>
      <point x="369" y="578" type="qcurve"/>
      <point x="386" y="555"/>
      <point x="421" y="504"/>
      <point x="433" y="487" type="qcurve"/>
      <point x="362" y="487" type="line"/>
      <point x="317" y="534" type="line"/>
      <point x="261" y="487" type="line"/>
      <point x="189" y="487" type="line"/>
      <point x="204" y="504"/>
      <point x="251" y="554"/>
      <point x="274" y="577" type="qcurve"/>
      <point x="300" y="604"/>
    </contour>
  </outline>
</glyph>
<glyph name="udieresis" format="2">
  <advance width="573"/>
  <unicode hex="00FC"/>
  <outline>
    <contour>
      <point x="85" y="319" type="line"/>
      <point x="88" y="342" type="line"/>
      <point x="32" y="342" type="line"/>
      <point x="42" y="425" type="line"/>
      <point x="194" y="425" type="line"/>
      <point x="182" y="323" type="line"/>
      <point x="181" y="323" type="line"/>
      <point x="162" y="161" type="line"/>
      <point x="160" y="130"/>
      <point x="194" y="87"/>
      <point x="237" y="85" type="qcurve"/>
      <point x="266" y="85"/>
      <point x="317" y="105"/>
      <point x="356" y="141"/>
      <point x="382" y="191"/>
      <point x="385" y="220" type="qcurve"/>
      <point x="399" y="333" type="line"/>
      <point x="400" y="342" type="line"/>
      <point x="336" y="342" type="line"/>
      <point x="346" y="425" type="line"/>
      <point x="506" y="425" type="line"/>
      <point x="464" y="83" type="line"/>
      <point x="520" y="83" type="line"/>
      <point x="510" y="0" type="line"/>
      <point x="374" y="0" type="line"/>
      <point x="375" y="108" type="line"/>
      <point x="346" y="57"/>
      <point x="256" y="-10"/>
      <point x="190" y="-10" type="qcurve"/>
      <point x="124" y="-10"/>
      <point x="56" y="59"/>
      <point x="61" y="116" type="qcurve"/>
    </contour>
    <contour>
      <point x="149" y="528" type="qcurve"/>
      <point x="149" y="543"/>
      <point x="162" y="568"/>
      <point x="182" y="586"/>
      <point x="207" y="596"/>
      <point x="219" y="596" type="qcurve"/>
      <point x="239" y="596"/>
      <point x="272" y="564"/>
      <point x="272" y="540" type="qcurve"/>
      <point x="272" y="525"/>
      <point x="259" y="500"/>
      <point x="239" y="482"/>
      <point x="215" y="472"/>
      <point x="204" y="472" type="qcurve"/>
      <point x="182" y="472"/>
      <point x="149" y="502"/>
    </contour>
    <contour>
      <point x="342" y="528" type="qcurve"/>
      <point x="342" y="543"/>
      <point x="355" y="568"/>
      <point x="375" y="586"/>
      <point x="400" y="596"/>
      <point x="412" y="596" type="qcurve"/>
      <point x="432" y="596"/>
      <point x="465" y="564"/>
      <point x="465" y="540" type="qcurve"/>
      <point x="465" y="525"/>
      <point x="452" y="500"/>
      <point x="432" y="482"/>
      <point x="408" y="472"/>
      <point x="397" y="472" type="qcurve"/>
      <point x="376" y="472"/>
      <point x="342" y="502"/>
    </contour>
  </outline>
</glyph>
<glyph name="thorn" format="2">
  <advance width="555"/>
  <unicode hex="00FE"/>
  <outline>
    <contour>
      <point x="118" y="698" type="line"/>
      <point x="61" y="698" type="line"/>
      <point x="72" y="781" type="line"/>
      <point x="223" y="781" type="line"/>
      <point x="174" y="371" type="line"/>
      <point x="183" y="381"/>
      <point x="211" y="404"/>
      <point x="248" y="423"/>
      <point x="295" y="436"/>
      <point x="323" y="436" type="qcurve"/>
      <point x="411" y="436"/>
      <point x="515" y="333"/>
      <point x="515" y="242" type="qcurve"/>
      <point x="515" y="187"/>
      <point x="477" y="94"/>
      <point x="409" y="27"/>
      <point x="317" y="-11"/>
      <point x="263" y="-11" type="qcurve"/>
      <point x="214" y="-11"/>
      <point x="144" y="26"/>
      <point x="133" y="47" type="qcurve"/>
      <point x="131" y="31" type="line"/>
      <point x="114" y="-108" type="line"/>
      <point x="112" y="-121" type="line"/>
      <point x="176" y="-121" type="line"/>
      <point x="166" y="-204" type="line"/>
      <point x="-49" y="-204" type="line"/>
      <point x="-39" y="-121" type="line"/>
      <point x="17" y="-121" type="line"/>
      <point x="19" y="-106" type="line"/>
    </contour>
    <contour>
      <point x="410" y="230" type="qcurve"/>
      <point x="410" y="279"/>
      <point x="354" y="342"/>
      <point x="302" y="342" type="qcurve"/>
      <point x="270" y="342"/>
      <point x="216" y="320"/>
      <point x="176" y="282"/>
      <point x="153" y="229"/>
      <point x="153" y="199" type="qcurve"/>
      <point x="153" y="149"/>
      <point x="216" y="83"/>
      <point x="269" y="83" type="qcurve"/>
      <point x="301" y="83"/>
      <point x="353" y="106"/>
      <point x="390" y="147"/>
      <point x="410" y="200"/>
    </contour>
  </outline>
</glyph>
<glyph name="ydieresis" format="2">
  <advance width="557"/>
  <unicode hex="00FF"/>
  <outline>
    <contour>
      <point x="34" y="-121" type="line"/>
      <point x="110" y="-121" type="line"/>
      <point x="133" y="-83"/>
      <point x="179" y="-3"/>
      <point x="201" y="32" type="qcurve"/>
      <point x="190" y="59"/>
      <point x="162" y="134"/>
      <point x="132" y="218"/>
      <point x="100" y="304"/>
      <point x="86" y="343" type="qcurve"/>
      <point x="17" y="343" type="line"/>
      <point x="27" y="425" type="line"/>
      <point x="255" y="425" type="line"/>
      <point x="245" y="343" type="line"/>
      <point x="190" y="343" type="line"/>
      <point x="225" y="248"/>
      <point x="261" y="135"/>
      <point x="260" y="121" type="qcurve"/>
      <point x="263" y="135"/>
      <point x="325" y="249"/>
      <point x="383" y="343" type="qcurve"/>
      <point x="329" y="343" type="line"/>
      <point x="339" y="425" type="line"/>
      <point x="565" y="425" type="line"/>
      <point x="555" y="343" type="line"/>
      <point x="488" y="343" type="line"/>
      <point x="205" y="-121" type="line"/>
      <point x="277" y="-121" type="line"/>
      <point x="267" y="-204" type="line"/>
      <point x="24" y="-204" type="line"/>
    </contour>
    <contour>
      <point x="150" y="528" type="qcurve"/>
      <point x="150" y="543"/>
      <point x="163" y="568"/>
      <point x="183" y="586"/>
      <point x="208" y="596"/>
      <point x="220" y="596" type="qcurve"/>
      <point x="240" y="596"/>
      <point x="273" y="564"/>
      <point x="273" y="540" type="qcurve"/>
      <point x="273" y="525"/>
      <point x="260" y="500"/>
      <point x="240" y="482"/>
      <point x="216" y="472"/>
      <point x="205" y="472" type="qcurve"/>
      <point x="183" y="472"/>
      <point x="150" y="502"/>
    </contour>
    <contour>
      <point x="343" y="528" type="qcurve"/>
      <point x="343" y="543"/>
      <point x="356" y="568"/>
      <point x="376" y="586"/>
      <point x="401" y="596"/>
      <point x="413" y="596" type="qcurve"/>
      <point x="433" y="596"/>
      <point x="466" y="564"/>
      <point x="466" y="540" type="qcurve"/>
      <point x="466" y="525"/>
      <point x="453" y="500"/>
      <point x="433" y="482"/>
      <point x="409" y="472"/>
      <point x="398" y="472" type="qcurve"/>
      <point x="377" y="472"/>
      <point x="343" y="502"/>
    </contour>
  </outline>
</glyph>
<glyph name="Abreve" format="2">
  <advance width="751"/>
  <unicode hex="0102"/>
  <outline>
    <contour>
      <point x="-18" y="107" type="line"/>
      <point x="-31" y="0" type="line"/>
      <point x="252" y="0" type="line"/>
      <point x="265" y="107" type="line"/>
      <point x="192" y="107" type="line"/>
      <point x="238" y="192" type="line"/>
      <point x="489" y="192" type="line"/>
      <point x="514" y="107" type="line"/>
      <point x="441" y="107" type="line"/>
      <point x="428" y="0" type="line"/>
      <point x="711" y="0" type="line"/>
      <point x="724" y="107" type="line"/>
      <point x="634" y="107" type="line"/>
      <point x="434" y="762" type="line"/>
      <point x="73" y="107" type="line"/>
    </contour>
    <contour>
      <point x="438" y="778" type="qcurve"/>
      <point x="405" y="778"/>
      <point x="349" y="802"/>
      <point x="310" y="844"/>
      <point x="291" y="902"/>
      <point x="294" y="935" type="qcurve"/>
      <point x="347" y="935" type="line"/>
      <point x="343" y="889"/>
      <point x="396" y="831"/>
      <point x="444" y="831" type="qcurve"/>
      <point x="491" y="831"/>
      <point x="557" y="889"/>
      <point x="564" y="935" type="qcurve"/>
      <point x="618" y="935" type="line"/>
      <point x="614" y="902"/>
      <point x="581" y="844"/>
      <point x="532" y="802"/>
      <point x="471" y="778"/>
    </contour>
    <contour>
      <point x="387" y="469" type="line"/>
      <point x="390" y="476"/>
      <point x="393" y="483" type="qcurve"/>
      <point x="395" y="489"/>
      <point x="400" y="501"/>
      <point x="402" y="506" type="qcurve"/>
      <point x="403" y="501"/>
      <point x="405" y="489"/>
      <point x="406" y="483" type="qcurve"/>
      <point x="407" y="476"/>
      <point x="408" y="469" type="qcurve"/>
      <point x="459" y="295" type="line"/>
      <point x="293" y="295" type="line"/>
    </contour>
  </outline>
</glyph>
<glyph name="aogonek" format="2">
  <advance width="571"/>
  <unicode hex="0105"/>
  <outline>
    <contour>
      <point x="462" y="83" type="line"/>
      <point x="518" y="83" type="line"/>
      <point x="508" y="0" type="line"/>
      <point x="356" y="0" type="line"/>
      <point x="359" y="28" type="line"/>
      <point x="360" y="33"/>
      <point x="361" y="42"/>
      <point x="361" y="44" type="qcurve"/>
      <point x="357" y="39"/>
      <point x="335" y="20"/>
      <point x="299" y="2"/>
      <point x="250" y="-11"/>
      <point x="219" y="-11" type="qcurve"/>
      <point x="174" y="-11"/>
      <point x="100" y="21"/>
      <point x="48" y="75"/>
      <point x="20" y="146"/>
      <point x="20" y="186" type="qcurve"/>
      <point x="20" y="236"/>
      <point x="62" y="326"/>
      <point x="133" y="395"/>
      <point x="224" y="436"/>
      <point x="273" y="436" type="qcurve"/>
      <point x="303" y="436"/>
      <point x="349" y="421"/>
      <point x="381" y="401"/>
      <point x="399" y="380"/>
      <point x="401" y="374" type="qcurve"/>
      <point x="404" y="385"/>
      <point x="409" y="411"/>
      <point x="412" y="425" type="qcurve"/>
      <point x="504" y="425" type="line"/>
    </contour>
    <contour>
      <point x="118" y="199" type="qcurve"/>
      <point x="118" y="149"/>
      <point x="181" y="83"/>
      <point x="235" y="83" type="qcurve"/>
      <point x="266" y="83"/>
      <point x="321" y="106"/>
      <point x="360" y="145"/>
      <point x="383" y="198"/>
      <point x="383" y="228" type="qcurve"/>
      <point x="383" y="277"/>
      <point x="320" y="342"/>
      <point x="266" y="342" type="qcurve"/>
      <point x="235" y="342"/>
      <point x="181" y="320"/>
      <point x="141" y="282"/>
      <point x="118" y="229"/>
    </contour>
    <contour>
      <point x="416" y="0" type="line"/>
      <point x="354" y="0" type="line"/>
      <point x="353" y="-8" type="line"/>
      <point x="351" y="-23"/>
      <point x="340" y="-39"/>
      <point x="326" y="-50"/>
      <point x="311" y="-57"/>
      <point x="304" y="-62" type="qcurve"/>
      <point x="273" y="-84"/>
      <point x="254" y="-134"/>
      <point x="254" y="-160" type="qcurve"/>
      <point x="254" y="-179"/>
      <point x="266" y="-215"/>
      <point x="290" y="-244"/>
      <point x="328" y="-261"/>
      <point x="354" y="-261" type="qcurve"/>
      <point x="389" y="-261"/>
      <point x="456" y="-222"/>
      <point x="475" y="-180" type="qcurve"/>
      <point x="463" y="-172"/>
      <point x="437" y="-158"/>
      <point x="424" y="-151" type="qcurve"/>
      <point x="417" y="-166"/>
      <point x="391" y="-186"/>
      <point x="372" y="-186" type="qcurve"/>
      <point x="352" y="-186"/>
      <point x="332" y="-161"/>
      <point x="332" y="-141" type="qcurve"/>
      <point x="332" y="-119"/>
      <point x="355" y="-95"/>
      <point x="384" y="-76"/>
      <point x="409" y="-56"/>
      <point x="411" y="-39" type="qcurve"/>
    </contour>
  </outline>
</glyph>
<glyph name="Edotaccent" format="2">
  <advance width="665"/>
  <unicode hex="0116"/>
  <outline>
    <contour>
      <point x="527" y="547" type="line"/>
      <point x="535" y="618" type="line"/>
      <point x="289" y="618" type="line"/>
      <point x="265" y="422" type="line"/>
      <point x="586" y="422" type="line"/>
      <point x="572" y="308" type="line"/>
      <point x="251" y="308" type="line"/>
      <point x="227" y="114" type="line"/>
      <point x="488" y="114" type="line"/>
      <point x="498" y="191" type="line"/>
      <point x="613" y="191" type="line"/>
      <point x="597" y="66" type="line"/>
      <point x="589" y="0" type="line"/>
      <point x="11" y="0" type="line"/>
      <point x="24" y="107" type="line"/>
      <point x="103" y="107" type="line"/>
      <point x="166" y="622" type="line"/>
      <point x="87" y="622" type="line"/>
      <point x="100" y="729" type="line"/>
      <point x="664" y="729" type="line"/>
      <point x="651" y="618" type="line"/>
      <point x="650" y="618" type="line"/>
      <point x="642" y="547" type="line"/>
    </contour>
    <contour>
      <point x="351" y="832" type="qcurve"/>
      <point x="351" y="861"/>
      <point x="394" y="898"/>
      <point x="418" y="898" type="qcurve"/>
      <point x="438" y="898"/>
      <point x="470" y="867"/>
      <point x="470" y="844" type="qcurve"/>
      <point x="470" y="829"/>
      <point x="458" y="805"/>
      <point x="439" y="787"/>
      <point x="415" y="778"/>
      <point x="404" y="778" type="qcurve"/>
      <point x="383" y="778"/>
      <point x="351" y="807"/>
    </contour>
  </outline>
</glyph>
<glyph name="eogonek" format="2">
  <advance width="469"/>
  <unicode hex="0119"/>
  <outline>
    <contour>
      <point x="394" y="49" type="line"/>
      <point x="365" y="25"/>
      <point x="289" y="-5"/>
      <point x="250" y="-9" type="qcurve"/>
      <point x="246" y="-39" type="line"/>
      <point x="244" y="-56"/>
      <point x="218" y="-76"/>
      <point x="190" y="-95"/>
      <point x="167" y="-119"/>
      <point x="167" y="-141" type="qcurve"/>
      <point x="167" y="-161"/>
      <point x="187" y="-186"/>
      <point x="207" y="-186" type="qcurve"/>
      <point x="225" y="-186"/>
      <point x="252" y="-166"/>
      <point x="259" y="-151" type="qcurve"/>
      <point x="271" y="-158"/>
      <point x="298" y="-172"/>
      <point x="310" y="-180" type="qcurve"/>
      <point x="291" y="-222"/>
      <point x="224" y="-261"/>
      <point x="188" y="-261" type="qcurve"/>
      <point x="162" y="-261"/>
      <point x="125" y="-244"/>
      <point x="101" y="-215"/>
      <point x="89" y="-179"/>
      <point x="89" y="-160" type="qcurve"/>
      <point x="89" y="-134"/>
      <point x="108" y="-84"/>
      <point x="138" y="-62" type="qcurve"/>
      <point x="145" y="-57"/>
      <point x="161" y="-50"/>
      <point x="175" y="-39"/>
      <point x="186" y="-23"/>
      <point x="188" y="-8" type="qcurve"/>
      <point x="149" y="-3"/>
      <point x="88" y="32"/>
      <point x="44" y="84"/>
      <point x="21" y="151"/>
      <point x="21" y="189" type="qcurve"/>
      <point x="21" y="239"/>
      <point x="63" y="329"/>
      <point x="134" y="396"/>
      <point x="225" y="435"/>
      <point x="273" y="435" type="qcurve"/>
      <point x="345" y="435"/>
      <point x="443" y="349"/>
      <point x="457" y="277" type="qcurve"/>
      <point x="425" y="266"/>
      <point x="343" y="235"/>
      <point x="253" y="201"/>
      <point x="163" y="166"/>
      <point x="125" y="152" type="qcurve"/>
      <point x="137" y="121"/>
      <point x="194" y="83"/>
      <point x="231" y="83" type="qcurve"/>
      <point x="257" y="83"/>
      <point x="312" y="102"/>
      <point x="332" y="118" type="qcurve"/>
    </contour>
    <contour>
      <point x="341" y="299" type="qcurve"/>
      <point x="331" y="321"/>
      <point x="286" y="342"/>
      <point x="263" y="342" type="qcurve"/>
      <point x="235" y="342"/>
      <point x="185" y="320"/>
      <point x="146" y="284"/>
      <point x="121" y="238"/>
      <point x="119" y="213" type="qcurve"/>
      <point x="145" y="223"/>
      <point x="205" y="246"/>
      <point x="264" y="270"/>
      <point x="320" y="291"/>
    </contour>
  </outline>
</glyph>
<glyph name="gcircumflex" format="2">
  <advance width="570"/>
  <unicode hex="011D"/>
  <outline>
    <contour>
      <point x="21" y="186" type="qcurve"/>
      <point x="21" y="239"/>
      <point x="62" y="330"/>
      <point x="130" y="398"/>
      <point x="219" y="436"/>
      <point x="267" y="436" type="qcurve"/>
      <point x="301" y="436"/>
      <point x="351" y="418"/>
      <point x="384" y="396"/>
      <point x="400" y="376"/>
      <point x="401" y="374" type="qcurve"/>
      <point x="403" y="385"/>
      <point x="410" y="411"/>
      <point x="412" y="425" type="qcurve"/>
      <point x="560" y="425" type="line"/>
      <point x="550" y="342" type="line"/>
      <point x="494" y="342" type="line"/>
      <point x="455" y="22" type="line"/>
      <point x="448" y="-32"/>
      <point x="404" y="-117"/>
      <point x="336" y="-174"/>
      <point x="247" y="-204"/>
      <point x="196" y="-204" type="qcurve"/>
      <point x="157" y="-204"/>
      <point x="100" y="-188"/>
      <point x="56" y="-162"/>
      <point x="21" y="-130"/>
      <point x="5" y="-114" type="qcurve"/>
      <point x="74" y="-49" type="line"/>
      <point x="100" y="-75"/>
      <point x="159" y="-112"/>
      <point x="206" y="-112" type="qcurve"/>
      <point x="267" y="-112"/>
      <point x="348" y="-52"/>
      <point x="356" y="3" type="qcurve"/>
      <point x="357" y="8"/>
      <point x="357" y="21"/>
      <point x="359" y="28" type="qcurve"/>
      <point x="365" y="45"/>
      <point x="367" y="56" type="qcurve"/>
      <point x="357" y="46"/>
      <point x="329" y="22"/>
      <point x="291" y="2"/>
      <point x="244" y="-11"/>
      <point x="214" y="-11" type="qcurve"/>
      <point x="170" y="-11"/>
      <point x="99" y="19"/>
      <point x="48" y="72"/>
      <point x="21" y="144"/>
    </contour>
    <contour>
      <point x="118" y="199" type="qcurve"/>
      <point x="118" y="149"/>
      <point x="181" y="83"/>
      <point x="235" y="83" type="qcurve"/>
      <point x="266" y="83"/>
      <point x="321" y="106"/>
      <point x="360" y="145"/>
      <point x="383" y="198"/>
      <point x="383" y="228" type="qcurve"/>
      <point x="383" y="277"/>
      <point x="320" y="342"/>
      <point x="266" y="342" type="qcurve"/>
      <point x="235" y="342"/>
      <point x="181" y="320"/>
      <point x="141" y="282"/>
      <point x="118" y="229"/>
    </contour>
    <contour>
      <point x="303" y="634" type="qcurve"/>
      <point x="324" y="605"/>
      <point x="343" y="578" type="qcurve"/>
      <point x="360" y="555"/>
      <point x="395" y="504"/>
      <point x="407" y="487" type="qcurve"/>
      <point x="336" y="487" type="line"/>
      <point x="291" y="534" type="line"/>
      <point x="235" y="487" type="line"/>
      <point x="163" y="487" type="line"/>
      <point x="178" y="504"/>
      <point x="225" y="554"/>
      <point x="248" y="577" type="qcurve"/>
      <point x="274" y="604"/>
    </contour>
  </outline>
</glyph>
<glyph name="Gdotaccent" format="2">
  <advance width="693"/>
  <unicode hex="0120"/>
  <outline>
    <contour>
      <point x="549" y="541" type="line"/>
      <point x="557" y="606" type="line"/>
      <point x="533" y="614"/>
      <point x="481" y="621"/>
      <point x="459" y="621" type="qcurve"/>
      <point x="405" y="621"/>
      <point x="300" y="576"/>
      <point x="218" y="498"/>
      <point x="167" y="393"/>
      <point x="167" y="334" type="qcurve"/>
      <point x="167" y="287"/>
      <point x="199" y="205"/>
      <point x="258" y="144"/>
      <point x="342" y="108"/>
      <point x="393" y="108" type="qcurve"/>
      <point x="402" y="108"/>
      <point x="428" y="110"/>
      <point x="458" y="113"/>
      <point x="489" y="119"/>
      <point x="502" y="124" type="qcurve"/>
      <point x="518" y="248" type="line"/>
      <point x="382" y="248" type="line"/>
      <point x="394" y="354" type="line"/>
      <point x="643" y="354" type="line"/>
      <point x="606" y="44" type="line"/>
      <point x="561" y="19"/>
      <point x="437" y="-8"/>
      <point x="377" y="-8" type="qcurve"/>
      <point x="298" y="-8"/>
      <point x="173" y="39"/>
      <point x="87" y="122"/>
      <point x="42" y="238"/>
      <point x="42" y="307" type="qcurve"/>
      <point x="42" y="401"/>
      <point x="116" y="559"/>
      <point x="237" y="673"/>
      <point x="392" y="737"/>
      <point x="472" y="737" type="qcurve"/>
      <point x="500" y="737"/>
      <point x="560" y="729"/>
      <point x="616" y="715"/>
      <point x="664" y="695"/>
      <point x="681" y="684" type="qcurve"/>
      <point x="664" y="541" type="line"/>
    </contour>
    <contour>
      <point x="398" y="832" type="qcurve"/>
      <point x="398" y="861"/>
      <point x="441" y="898"/>
      <point x="465" y="898" type="qcurve"/>
      <point x="485" y="898"/>
      <point x="517" y="867"/>
      <point x="517" y="844" type="qcurve"/>
      <point x="517" y="829"/>
      <point x="505" y="805"/>
      <point x="486" y="787"/>
      <point x="462" y="778"/>
      <point x="451" y="778" type="qcurve"/>
      <point x="430" y="778"/>
      <point x="398" y="807"/>
    </contour>
  </outline>
</glyph>
<glyph name="gdotaccent" format="2">
  <advance width="570"/>
  <unicode hex="0121"/>
  <outline>
    <contour>
      <point x="412" y="425" type="qcurve"/>
      <point x="560" y="425" type="line"/>
      <point x="550" y="342" type="line"/>
      <point x="494" y="342" type="line"/>
      <point x="455" y="22" type="line"/>
      <point x="448" y="-32"/>
      <point x="404" y="-117"/>
      <point x="336" y="-174"/>
      <point x="247" y="-204"/>
      <point x="196" y="-204" type="qcurve"/>
      <point x="157" y="-204"/>
      <point x="100" y="-188"/>
      <point x="56" y="-162"/>
      <point x="21" y="-130"/>
      <point x="5" y="-114" type="qcurve"/>
      <point x="74" y="-49" type="line"/>
      <point x="100" y="-75"/>
      <point x="159" y="-112"/>
      <point x="206" y="-112" type="qcurve"/>
      <point x="267" y="-112"/>
      <point x="348" y="-52"/>
      <point x="356" y="3" type="qcurve"/>
      <point x="357" y="8"/>
      <point x="357" y="21"/>
      <point x="359" y="28" type="qcurve"/>
      <point x="365" y="45"/>
      <point x="367" y="56" type="qcurve"/>
      <point x="357" y="46"/>
      <point x="329" y="22"/>
      <point x="291" y="2"/>
      <point x="244" y="-11"/>
      <point x="214" y="-11" type="qcurve"/>
      <point x="170" y="-11"/>
      <point x="99" y="19"/>
      <point x="48" y="72"/>
      <point x="21" y="144"/>
      <point x="21" y="186" type="qcurve"/>
      <point x="21" y="239"/>
      <point x="62" y="330"/>
      <point x="130" y="398"/>
      <point x="219" y="436"/>
      <point x="267" y="436" type="qcurve"/>
      <point x="301" y="436"/>
      <point x="351" y="418"/>
      <point x="384" y="396"/>
      <point x="400" y="376"/>
      <point x="401" y="374" type="qcurve"/>
      <point x="403" y="385"/>
      <point x="410" y="411"/>
    </contour>
    <contour>
      <point x="118" y="199" type="qcurve"/>
      <point x="118" y="149"/>
      <point x="181" y="83"/>
      <point x="235" y="83" type="qcurve"/>
      <point x="266" y="83"/>
      <point x="321" y="106"/>
      <point x="360" y="145"/>
      <point x="383" y="198"/>
      <point x="383" y="228" type="qcurve"/>
      <point x="383" y="277"/>
      <point x="320" y="342"/>
      <point x="266" y="342" type="qcurve"/>
      <point x="235" y="342"/>
      <point x="181" y="320"/>
      <point x="141" y="282"/>
      <point x="118" y="229"/>
    </contour>
    <contour>
      <point x="258" y="584" type="qcurve"/>
      <point x="258" y="613"/>
      <point x="301" y="650"/>
      <point x="325" y="650" type="qcurve"/>
      <point x="345" y="650"/>
      <point x="377" y="619"/>
      <point x="377" y="596" type="qcurve"/>
      <point x="377" y="581"/>
      <point x="365" y="557"/>
      <point x="346" y="539"/>
      <point x="322" y="530"/>
      <point x="311" y="530" type="qcurve"/>
      <point x="290" y="530"/>
      <point x="258" y="559"/>
    </contour>
  </outline>
</glyph>
<glyph name="uni0123" format="2">
  <advance width="570"/>
  <unicode hex="0123"/>
  <outline>
    <contour>
      <point x="412" y="425" type="qcurve"/>
      <point x="560" y="425" type="line"/>
      <point x="550" y="342" type="line"/>
      <point x="494" y="342" type="line"/>
      <point x="455" y="22" type="line"/>
      <point x="448" y="-32"/>
      <point x="404" y="-117"/>
      <point x="336" y="-174"/>
      <point x="247" y="-204"/>
      <point x="196" y="-204" type="qcurve"/>
      <point x="157" y="-204"/>
      <point x="100" y="-188"/>
      <point x="56" y="-162"/>
      <point x="21" y="-130"/>
      <point x="5" y="-114" type="qcurve"/>
      <point x="74" y="-49" type="line"/>
      <point x="100" y="-75"/>
      <point x="159" y="-112"/>
      <point x="206" y="-112" type="qcurve"/>
      <point x="267" y="-112"/>
      <point x="348" y="-52"/>
      <point x="356" y="3" type="qcurve"/>
      <point x="357" y="8"/>
      <point x="357" y="21"/>
      <point x="359" y="28" type="qcurve"/>
      <point x="365" y="45"/>
      <point x="367" y="56" type="qcurve"/>
      <point x="357" y="46"/>
      <point x="329" y="22"/>
      <point x="291" y="2"/>
      <point x="244" y="-11"/>
      <point x="214" y="-11" type="qcurve"/>
      <point x="170" y="-11"/>
      <point x="99" y="19"/>
      <point x="48" y="72"/>
      <point x="21" y="144"/>
      <point x="21" y="186" type="qcurve"/>
      <point x="21" y="239"/>
      <point x="62" y="330"/>
      <point x="130" y="398"/>
      <point x="219" y="436"/>
      <point x="267" y="436" type="qcurve"/>
      <point x="300" y="436"/>
      <point x="349" y="419"/>
      <point x="382" y="397"/>
      <point x="399" y="377"/>
      <point x="401" y="374" type="qcurve"/>
      <point x="403" y="385"/>
      <point x="410" y="411"/>
    </contour>
    <contour>
      <point x="118" y="199" type="qcurve"/>
      <point x="118" y="149"/>
      <point x="181" y="83"/>
      <point x="235" y="83" type="qcurve"/>
      <point x="266" y="83"/>
      <point x="321" y="106"/>
      <point x="360" y="145"/>
      <point x="383" y="198"/>
      <point x="383" y="228" type="qcurve"/>
      <point x="383" y="277"/>
      <point x="320" y="342"/>
      <point x="266" y="342" type="qcurve"/>
      <point x="235" y="342"/>
      <point x="181" y="320"/>
      <point x="141" y="282"/>
      <point x="118" y="229"/>
    </contour>
    <contour>
      <point x="244" y="507" type="line"/>
      <point x="332" y="665" type="line"/>
      <point x="416" y="665" type="line"/>
      <point x="403" y="639"/>
      <point x="385" y="603"/>
      <point x="369" y="570"/>
      <point x="351" y="534"/>
      <point x="338" y="507" type="qcurve"/>
    </contour>
  </outline>
</glyph>
<glyph name="Hcircumflex" format="2">
  <advance width="844"/>
  <unicode hex="0124"/>
  <outline>
    <contour>
      <point x="383" y="729" type="line"/>
      <point x="370" y="622" type="line"/>
      <point x="289" y="622" type="line"/>
      <point x="265" y="425" type="line"/>
      <point x="613" y="425" type="line"/>
      <point x="637" y="622" type="line"/>
      <point x="557" y="622" type="line"/>
      <point x="570" y="729" type="line"/>
      <point x="853" y="729" type="line"/>
      <point x="839" y="622" type="line"/>
      <point x="760" y="622" type="line"/>
      <point x="697" y="107" type="line"/>
      <point x="777" y="107" type="line"/>
      <point x="763" y="0" type="line"/>
      <point x="481" y="0" type="line"/>
      <point x="494" y="107" type="line"/>
      <point x="574" y="107" type="line"/>
      <point x="599" y="308" type="line"/>
      <point x="251" y="308" type="line"/>
      <point x="226" y="107" type="line"/>
      <point x="307" y="107" type="line"/>
      <point x="294" y="0" type="line"/>
      <point x="11" y="0" type="line"/>
      <point x="24" y="107" type="line"/>
      <point x="103" y="107" type="line"/>
      <point x="167" y="622" type="line"/>
      <point x="87" y="622" type="line"/>
      <point x="100" y="729" type="line"/>
    </contour>
    <contour>
      <point x="500" y="925" type="qcurve"/>
      <point x="521" y="896"/>
      <point x="540" y="869" type="qcurve"/>
      <point x="557" y="846"/>
      <point x="592" y="795"/>
      <point x="604" y="778" type="qcurve"/>
      <point x="533" y="778" type="line"/>
      <point x="488" y="825" type="line"/>
      <point x="432" y="778" type="line"/>
      <point x="360" y="778" type="line"/>
      <point x="375" y="795"/>
      <point x="422" y="845"/>
      <point x="445" y="868" type="qcurve"/>
      <point x="471" y="895"/>
    </contour>
  </outline>
</glyph>
<glyph name="hbar" format="2">
  <advance width="574"/>
  <unicode hex="0127"/>
  <outline>
    <contour>
      <point x="89" y="781" type="line"/>
      <point x="237" y="781" type="line"/>
      <point x="216" y="610" type="line"/>
      <point x="339" y="610" type="line"/>
      <point x="332" y="545" type="line"/>
      <point x="208" y="545" type="line"/>
      <point x="180" y="316" type="line"/>
      <point x="210" y="370"/>
      <point x="302" y="436"/>
      <point x="365" y="436" type="qcurve"/>
      <point x="430" y="436"/>
      <point x="499" y="365"/>
      <point x="494" y="308" type="qcurve"/>
      <point x="469" y="105" type="line"/>
      <point x="466" y="83" type="line"/>
      <point x="522" y="83" type="line"/>
      <point x="512" y="0" type="line"/>
      <point x="297" y="0" type="line"/>
      <point x="307" y="83" type="line"/>
      <point x="370" y="83" type="line"/>
      <point x="372" y="96" type="line"/>
      <point x="373" y="102" type="line"/>
      <point x="393" y="263" type="line"/>
      <point x="395" y="294"/>
      <point x="361" y="339"/>
      <point x="318" y="341" type="qcurve"/>
      <point x="289" y="341"/>
      <point x="238" y="320"/>
      <point x="199" y="284"/>
      <point x="173" y="234"/>
      <point x="170" y="205" type="qcurve"/>
      <point x="156" y="96" type="line"/>
      <point x="157" y="96" type="line"/>
      <point x="155" y="86" type="line"/>
      <point x="154" y="83" type="line"/>
      <point x="219" y="83" type="line"/>
      <point x="209" y="0" type="line"/>
      <point x="-7" y="0" type="line"/>
      <point x="3" y="83" type="line"/>
      <point x="59" y="83" type="line"/>
      <point x="61" y="99" type="line"/>
      <point x="116" y="545" type="line"/>
      <point x="26" y="545" type="line"/>
      <point x="33" y="610" type="line"/>
      <point x="124" y="610" type="line"/>
      <point x="135" y="698" type="line"/>
      <point x="79" y="698" type="line"/>
    </contour>
  </outline>
</glyph>
<glyph name="itilde" format="2">
  <advance width="280"/>
  <unicode hex="0129"/>
  <outline>
    <contour>
      <point x="168" y="96" type="line"/>
      <point x="166" y="86" type="line"/>
      <point x="165" y="83" type="line"/>
      <point x="230" y="83" type="line"/>
      <point x="220" y="0" type="line"/>
      <point x="4" y="0" type="line"/>
      <point x="14" y="83" type="line"/>
      <point x="70" y="83" type="line"/>
      <point x="72" y="99" type="line"/>
      <point x="102" y="342" type="line"/>
      <point x="45" y="342" type="line"/>
      <point x="56" y="425" type="line"/>
      <point x="208" y="425" type="line"/>
      <point x="167" y="96" type="line"/>
    </contour>
    <contour>
      <point x="158" y="507" type="qcurve"/>
      <point x="144" y="521"/>
      <point x="123" y="532"/>
      <point x="109" y="532" type="qcurve"/>
      <point x="102" y="532"/>
      <point x="85" y="529"/>
      <point x="69" y="519"/>
      <point x="56" y="502"/>
      <point x="53" y="488" type="qcurve"/>
      <point x="-1" y="490" type="line"/>
      <point x="3" y="511"/>
      <point x="25" y="546"/>
      <point x="56" y="571"/>
      <point x="90" y="585"/>
      <point x="106" y="585" type="qcurve"/>
      <point x="131" y="585"/>
      <point x="167" y="569"/>
      <point x="182" y="553" type="qcurve"/>
      <point x="196" y="538"/>
      <point x="217" y="528"/>
      <point x="231" y="528" type="qcurve"/>
      <point x="245" y="528"/>
      <point x="281" y="544"/>
      <point x="288" y="572" type="qcurve"/>
      <point x="341" y="570" type="line"/>
      <point x="337" y="549"/>
      <point x="315" y="514"/>
      <point x="284" y="489"/>
      <point x="250" y="475"/>
      <point x="234" y="475" type="qcurve"/>
      <point x="210" y="475"/>
      <point x="173" y="492"/>
    </contour>
  </outline>
</glyph>
<glyph name="Imacron" format="2">
  <advance width="373"/>
  <unicode hex="012A"/>
  <outline>
    <contour>
      <point x="382" y="729" type="line"/>
      <point x="369" y="622" type="line"/>
      <point x="289" y="622" type="line"/>
      <point x="226" y="107" type="line"/>
      <point x="306" y="107" type="line"/>
      <point x="293" y="0" type="line"/>
      <point x="10" y="0" type="line"/>
      <point x="23" y="107" type="line"/>
      <point x="103" y="107" type="line"/>
      <point x="166" y="622" type="line"/>
      <point x="86" y="622" type="line"/>
      <point x="99" y="729" type="line"/>
    </contour>
    <contour>
      <point x="136" y="790" type="line"/>
      <point x="143" y="854" type="line"/>
      <point x="377" y="854" type="line"/>
      <point x="370" y="790" type="line"/>
    </contour>
  </outline>
</glyph>
<glyph name="imacron" format="2">
  <advance width="280"/>
  <unicode hex="012B"/>
  <outline>
    <contour>
      <point x="168" y="96" type="line"/>
      <point x="166" y="86" type="line"/>
      <point x="165" y="83" type="line"/>
      <point x="230" y="83" type="line"/>
      <point x="220" y="0" type="line"/>
      <point x="4" y="0" type="line"/>
      <point x="14" y="83" type="line"/>
      <point x="70" y="83" type="line"/>
      <point x="72" y="99" type="line"/>
      <point x="102" y="342" type="line"/>
      <point x="45" y="342" type="line"/>
      <point x="56" y="425" type="line"/>
      <point x="208" y="425" type="line"/>
      <point x="167" y="96" type="line"/>
    </contour>
    <contour>
      <point x="51" y="482" type="line"/>
      <point x="58" y="546" type="line"/>
      <point x="292" y="546" type="line"/>
      <point x="285" y="482" type="line"/>
    </contour>
  </outline>
</glyph>
<glyph name="Iogonek" format="2">
  <advance width="372"/>
  <unicode hex="012E"/>
  <outline>
    <contour>
      <point x="382" y="729" type="line"/>
      <point x="369" y="622" type="line"/>
      <point x="289" y="622" type="line"/>
      <point x="226" y="107" type="line"/>
      <point x="306" y="107" type="line"/>
      <point x="293" y="0" type="line"/>
      <point x="10" y="0" type="line"/>
      <point x="23" y="107" type="line"/>
      <point x="103" y="107" type="line"/>
      <point x="166" y="622" type="line"/>
      <point x="86" y="622" type="line"/>
      <point x="99" y="729" type="line"/>
    </contour>
    <contour>
      <point x="230" y="0" type="line"/>
      <point x="168" y="0" type="line"/>
      <point x="167" y="-8" type="line"/>
      <point x="165" y="-23"/>
      <point x="154" y="-39"/>
      <point x="140" y="-50"/>
      <point x="125" y="-57"/>
      <point x="118" y="-62" type="qcurve"/>
      <point x="87" y="-84"/>
      <point x="68" y="-134"/>
      <point x="68" y="-160" type="qcurve"/>
      <point x="68" y="-179"/>
      <point x="80" y="-215"/>
      <point x="104" y="-244"/>
      <point x="142" y="-261"/>
      <point x="168" y="-261" type="qcurve"/>
      <point x="203" y="-261"/>
      <point x="270" y="-222"/>
      <point x="289" y="-180" type="qcurve"/>
      <point x="277" y="-172"/>
      <point x="251" y="-158"/>
      <point x="238" y="-151" type="qcurve"/>
      <point x="231" y="-166"/>
      <point x="205" y="-186"/>
      <point x="186" y="-186" type="qcurve"/>
      <point x="166" y="-186"/>
      <point x="146" y="-161"/>
      <point x="146" y="-141" type="qcurve"/>
      <point x="146" y="-119"/>
      <point x="169" y="-95"/>
      <point x="198" y="-76"/>
      <point x="223" y="-56"/>
      <point x="225" y="-39" type="qcurve"/>
    </contour>
  </outline>
</glyph>
<glyph name="Idotaccent" format="2">
  <advance width="373"/>
  <unicode hex="0130"/>
  <outline>
    <contour>
      <point x="382" y="729" type="line"/>
      <point x="369" y="622" type="line"/>
      <point x="289" y="622" type="line"/>
      <point x="226" y="107" type="line"/>
      <point x="306" y="107" type="line"/>
      <point x="293" y="0" type="line"/>
      <point x="10" y="0" type="line"/>
      <point x="23" y="107" type="line"/>
      <point x="103" y="107" type="line"/>
      <point x="166" y="622" type="line"/>
      <point x="86" y="622" type="line"/>
      <point x="99" y="729" type="line"/>
    </contour>
    <contour>
      <point x="191" y="833" type="qcurve"/>
      <point x="191" y="862"/>
      <point x="234" y="899"/>
      <point x="258" y="899" type="qcurve"/>
      <point x="278" y="899"/>
      <point x="310" y="868"/>
      <point x="310" y="845" type="qcurve"/>
      <point x="310" y="830"/>
      <point x="298" y="806"/>
      <point x="279" y="788"/>
      <point x="255" y="779"/>
      <point x="244" y="779" type="qcurve"/>
      <point x="223" y="779"/>
      <point x="191" y="808"/>
    </contour>
  </outline>
</glyph>
<glyph name="dotlessi" format="2">
  <advance width="280"/>
  <unicode hex="0131"/>
  <outline>
    <contour>
      <point x="168" y="96" type="line"/>
      <point x="166" y="86" type="line"/>
      <point x="165" y="83" type="line"/>
      <point x="230" y="83" type="line"/>
      <point x="220" y="0" type="line"/>
      <point x="4" y="0" type="line"/>
      <point x="14" y="83" type="line"/>
      <point x="70" y="83" type="line"/>
      <point x="72" y="99" type="line"/>
      <point x="102" y="342" type="line"/>
      <point x="45" y="342" type="line"/>
      <point x="56" y="425" type="line"/>
      <point x="208" y="425" type="line"/>
      <point x="167" y="96" type="line"/>
    </contour>
  </outline>
</glyph>
<glyph name="Jcircumflex" format="2">
  <advance width="355"/>
  <unicode hex="0134"/>
  <outline>
    <contour>
      <point x="323" y="729" type="line"/>
      <point x="310" y="622" type="line"/>
      <point x="251" y="142" type="line"/>
      <point x="242" y="73"/>
      <point x="187" y="-34"/>
      <point x="103" y="-109"/>
      <point x="-5" y="-149"/>
      <point x="-66" y="-151" type="qcurve"/>
      <point x="-52" y="-35" type="line"/>
      <point x="18" y="-31"/>
      <point x="116" y="53"/>
      <point x="128" y="145" type="qcurve"/>
      <point x="186" y="622" type="line"/>
      <point x="76" y="622" type="line"/>
      <point x="89" y="729" type="line"/>
    </contour>
    <contour>
      <point x="237" y="925" type="qcurve"/>
      <point x="258" y="896"/>
      <point x="277" y="869" type="qcurve"/>
      <point x="294" y="846"/>
      <point x="329" y="795"/>
      <point x="341" y="778" type="qcurve"/>
      <point x="270" y="778" type="line"/>
      <point x="225" y="825" type="line"/>
      <point x="169" y="778" type="line"/>
      <point x="97" y="778" type="line"/>
      <point x="112" y="795"/>
      <point x="159" y="845"/>
      <point x="182" y="868" type="qcurve"/>
      <point x="208" y="895"/>
    </contour>
  </outline>
</glyph>
<glyph name="jcircumflex" format="2">
  <advance width="248"/>
  <unicode hex="0135"/>
  <outline>
    <contour>
      <point x="189" y="342" type="line"/>
      <point x="188" y="342" type="line"/>
      <point x="146" y="0" type="line"/>
      <point x="138" y="-69"/>
      <point x="77" y="-171"/>
      <point x="31" y="-205" type="qcurve"/>
      <point x="16" y="-186"/>
      <point x="-13" y="-152"/>
      <point x="-27" y="-133" type="qcurve"/>
      <point x="5" y="-110"/>
      <point x="46" y="-43"/>
      <point x="51" y="4" type="qcurve"/>
      <point x="92" y="342" type="line"/>
      <point x="37" y="342" type="line"/>
      <point x="47" y="425" type="line"/>
      <point x="199" y="425" type="line"/>
    </contour>
    <contour>
      <point x="163" y="670" type="line"/>
      <point x="262" y="487" type="line"/>
      <point x="191" y="487" type="line"/>
      <point x="189" y="491"/>
      <point x="176" y="510"/>
      <point x="163" y="531"/>
      <point x="151" y="550"/>
      <point x="149" y="554" type="qcurve"/>
      <point x="146" y="550"/>
      <point x="129" y="531"/>
      <point x="110" y="510"/>
      <point x="93" y="491"/>
      <point x="90" y="487" type="qcurve"/>
      <point x="18" y="487" type="line"/>
    </contour>
  </outline>
</glyph>
<glyph name="uni013B" format="2">
  <advance width="621"/>
  <unicode hex="013B"/>
  <outline>
    <contour>
      <point x="383" y="729" type="line"/>
      <point x="370" y="622" type="line"/>
      <point x="289" y="622" type="line"/>
      <point x="227" y="116" type="line"/>
      <point x="468" y="116" type="line"/>
      <point x="478" y="191" type="line"/>
      <point x="593" y="191" type="line"/>
      <point x="577" y="66" type="line"/>
      <point x="575" y="66" type="line"/>
      <point x="567" y="0" type="line"/>
      <point x="11" y="0" type="line"/>
      <point x="24" y="107" type="line"/>
      <point x="103" y="107" type="line"/>
      <point x="166" y="622" type="line"/>
      <point x="87" y="622" type="line"/>
      <point x="100" y="729" type="line"/>
    </contour>
    <contour>
      <point x="345" y="-21" type="line"/>
      <point x="257" y="-179" type="line"/>
      <point x="173" y="-179" type="line"/>
      <point x="186" y="-153"/>
      <point x="204" y="-117"/>
      <point x="220" y="-84"/>
      <point x="238" y="-48"/>
      <point x="251" y="-21" type="qcurve"/>
    </contour>
  </outline>
</glyph>
<glyph name="uni013C" format="2">
  <advance width="268"/>
  <unicode hex="013C"/>
  <outline>
    <contour>
      <point x="157" y="96" type="line"/>
      <point x="155" y="86" type="line"/>
      <point x="154" y="83" type="line"/>
      <point x="219" y="83" type="line"/>
      <point x="209" y="0" type="line"/>
      <point x="-7" y="0" type="line"/>
      <point x="3" y="83" type="line"/>
      <point x="59" y="83" type="line"/>
      <point x="61" y="99" type="line"/>
      <point x="135" y="698" type="line"/>
      <point x="79" y="698" type="line"/>
      <point x="89" y="781" type="line"/>
      <point x="240" y="781" type="line"/>
      <point x="156" y="96" type="line"/>
    </contour>
    <contour>
      <point x="141" y="-21" type="line"/>
      <point x="53" y="-179" type="line"/>
      <point x="-31" y="-179" type="line"/>
      <point x="-18" y="-153"/>
      <point x="0" y="-117"/>
      <point x="16" y="-84"/>
      <point x="34" y="-48"/>
      <point x="47" y="-21" type="qcurve"/>
    </contour>
  </outline>
</glyph>
<glyph name="lcaron" format="2">
  <advance width="268"/>
  <unicode hex="013E"/>
  <outline>
    <contour>
      <point x="157" y="96" type="line"/>
      <point x="155" y="86" type="line"/>
      <point x="154" y="83" type="line"/>
      <point x="219" y="83" type="line"/>
      <point x="209" y="0" type="line"/>
      <point x="-7" y="0" type="line"/>
      <point x="3" y="83" type="line"/>
      <point x="59" y="83" type="line"/>
      <point x="61" y="99" type="line"/>
      <point x="135" y="698" type="line"/>
      <point x="79" y="698" type="line"/>
      <point x="89" y="781" type="line"/>
      <point x="240" y="781" type="line"/>
      <point x="156" y="96" type="line"/>
    </contour>
    <contour>
      <point x="305" y="574" type="qcurve"/>
      <point x="294" y="580"/>
      <point x="270" y="592"/>
      <point x="258" y="600" type="qcurve"/>
      <point x="282" y="620"/>
      <point x="308" y="680"/>
      <point x="306" y="715" type="qcurve"/>
      <point x="368" y="722" type="line"/>
      <point x="371" y="680"/>
      <point x="337" y="603"/>
    </contour>
  </outline>
</glyph>
<glyph name="Lslash" format="2">
  <advance width="622"/>
  <unicode hex="0141"/>
  <outline>
    <contour>
      <point x="385" y="729" type="line"/>
      <point x="372" y="622" type="line"/>
      <point x="291" y="622" type="line"/>
      <point x="265" y="415" type="line"/>
      <point x="411" y="459" type="line"/>
      <point x="398" y="360" type="line"/>
      <point x="253" y="316" type="line"/>
      <point x="229" y="116" type="line"/>
      <point x="470" y="116" type="line"/>
      <point x="480" y="191" type="line"/>
      <point x="595" y="191" type="line"/>
      <point x="579" y="66" type="line"/>
      <point x="577" y="66" type="line"/>
      <point x="569" y="0" type="line"/>
      <point x="13" y="0" type="line"/>
      <point x="26" y="107" type="line"/>
      <point x="105" y="107" type="line"/>
      <point x="126" y="278" type="line"/>
      <point x="44" y="254" type="line"/>
      <point x="57" y="353" type="line"/>
      <point x="138" y="377" type="line"/>
      <point x="168" y="622" type="line"/>
      <point x="89" y="622" type="line"/>
      <point x="102" y="729" type="line"/>
    </contour>
  </outline>
</glyph>
<glyph name="lslash" format="2">
  <advance width="272"/>
  <unicode hex="0142"/>
  <outline>
    <contour>
      <point x="160" y="96" type="line"/>
      <point x="158" y="86" type="line"/>
      <point x="157" y="83" type="line"/>
      <point x="222" y="83" type="line"/>
      <point x="212" y="0" type="line"/>
      <point x="-4" y="0" type="line"/>
      <point x="6" y="83" type="line"/>
      <point x="62" y="83" type="line"/>
      <point x="64" y="99" type="line"/>
      <point x="84" y="261" type="line"/>
      <point x="25" y="244" type="line"/>
      <point x="37" y="344" type="line"/>
      <point x="96" y="361" type="line"/>
      <point x="138" y="698" type="line"/>
      <point x="82" y="698" type="line"/>
      <point x="92" y="781" type="line"/>
      <point x="243" y="781" type="line"/>
      <point x="195" y="391" type="line"/>
      <point x="255" y="409" type="line"/>
      <point x="243" y="309" type="line"/>
      <point x="183" y="291" type="line"/>
      <point x="159" y="96" type="line"/>
    </contour>
  </outline>
</glyph>
<glyph name="uni0145" format="2">
  <advance width="883"/>
  <unicode hex="0145"/>
  <outline>
    <contour>
      <point x="308" y="107" type="line"/>
      <point x="295" y="0" type="line"/>
      <point x="12" y="0" type="line"/>
      <point x="25" y="107" type="line"/>
      <point x="104" y="107" type="line"/>
      <point x="168" y="622" type="line"/>
      <point x="84" y="622" type="line"/>
      <point x="97" y="729" type="line"/>
      <point x="217" y="729" type="line"/>
      <point x="223" y="720"/>
      <point x="262" y="675"/>
      <point x="319" y="614"/>
      <point x="389" y="542"/>
      <point x="461" y="467"/>
      <point x="530" y="395"/>
      <point x="587" y="334"/>
      <point x="626" y="291"/>
      <point x="632" y="282" type="qcurve"/>
      <point x="648" y="254" type="line"/>
      <point x="648" y="262"/>
      <point x="649" y="280"/>
      <point x="649" y="288" type="qcurve"/>
      <point x="690" y="622" type="line"/>
      <point x="609" y="622" type="line"/>
      <point x="622" y="729" type="line"/>
      <point x="904" y="729" type="line"/>
      <point x="891" y="622" type="line"/>
      <point x="812" y="622" type="line"/>
      <point x="732" y="-34" type="line"/>
      <point x="724" y="-22"/>
      <point x="656" y="54"/>
      <point x="562" y="155"/>
      <point x="455" y="269"/>
      <point x="361" y="370"/>
      <point x="294" y="445"/>
      <point x="287" y="457" type="qcurve"/>
      <point x="271" y="483" type="line"/>
      <point x="270" y="475"/>
      <point x="270" y="459"/>
      <point x="270" y="451" type="qcurve"/>
      <point x="227" y="107" type="line"/>
    </contour>
    <contour>
      <point x="468" y="-21" type="line"/>
      <point x="380" y="-179" type="line"/>
      <point x="296" y="-179" type="line"/>
      <point x="309" y="-153"/>
      <point x="327" y="-117"/>
      <point x="343" y="-84"/>
      <point x="361" y="-48"/>
      <point x="374" y="-21" type="qcurve"/>
    </contour>
  </outline>
</glyph>
<glyph name="uni0146" format="2">
  <advance width="583"/>
  <unicode hex="0146"/>
  <outline>
    <contour>
      <point x="167" y="96" type="line"/>
      <point x="165" y="86" type="line"/>
      <point x="164" y="83" type="line"/>
      <point x="229" y="83" type="line"/>
      <point x="219" y="0" type="line"/>
      <point x="3" y="0" type="line"/>
      <point x="13" y="83" type="line"/>
      <point x="69" y="83" type="line"/>
      <point x="71" y="99" type="line"/>
      <point x="101" y="342" type="line"/>
      <point x="44" y="342" type="line"/>
      <point x="55" y="425" type="line"/>
      <point x="195" y="425" type="line"/>
      <point x="193" y="407"/>
      <point x="192" y="379"/>
      <point x="192" y="354"/>
      <point x="191" y="330"/>
      <point x="190" y="316" type="qcurve"/>
      <point x="220" y="370"/>
      <point x="312" y="436"/>
      <point x="375" y="436" type="qcurve"/>
      <point x="440" y="436"/>
      <point x="509" y="365"/>
      <point x="504" y="308" type="qcurve"/>
      <point x="479" y="105" type="line"/>
      <point x="476" y="83" type="line"/>
      <point x="532" y="83" type="line"/>
      <point x="522" y="0" type="line"/>
      <point x="307" y="0" type="line"/>
      <point x="317" y="83" type="line"/>
      <point x="380" y="83" type="line"/>
      <point x="382" y="96" type="line"/>
      <point x="383" y="102" type="line"/>
      <point x="403" y="263" type="line"/>
      <point x="405" y="294"/>
      <point x="371" y="339"/>
      <point x="328" y="341" type="qcurve"/>
      <point x="299" y="341"/>
      <point x="248" y="320"/>
      <point x="209" y="284"/>
      <point x="183" y="234"/>
      <point x="180" y="205" type="qcurve"/>
      <point x="166" y="96" type="line"/>
    </contour>
    <contour>
      <point x="311" y="-21" type="line"/>
      <point x="223" y="-179" type="line"/>
      <point x="139" y="-179" type="line"/>
      <point x="152" y="-153"/>
      <point x="170" y="-117"/>
      <point x="186" y="-84"/>
      <point x="204" y="-48"/>
      <point x="217" y="-21" type="qcurve"/>
    </contour>
  </outline>
</glyph>
<glyph name="Ncaron" format="2">
  <advance width="882"/>
  <unicode hex="0147"/>
  <outline>
    <contour>
      <point x="308" y="107" type="line"/>
      <point x="295" y="0" type="line"/>
      <point x="12" y="0" type="line"/>
      <point x="25" y="107" type="line"/>
      <point x="104" y="107" type="line"/>
      <point x="168" y="622" type="line"/>
      <point x="84" y="622" type="line"/>
      <point x="97" y="729" type="line"/>
      <point x="217" y="729" type="line"/>
      <point x="223" y="720"/>
      <point x="262" y="675"/>
      <point x="319" y="614"/>
      <point x="389" y="542"/>
      <point x="461" y="467"/>
      <point x="530" y="395"/>
      <point x="587" y="334"/>
      <point x="626" y="291"/>
      <point x="632" y="282" type="qcurve"/>
      <point x="648" y="254" type="line"/>
      <point x="648" y="262"/>
      <point x="649" y="280"/>
      <point x="649" y="288" type="qcurve"/>
      <point x="690" y="622" type="line"/>
      <point x="609" y="622" type="line"/>
      <point x="622" y="729" type="line"/>
      <point x="904" y="729" type="line"/>
      <point x="891" y="622" type="line"/>
      <point x="812" y="622" type="line"/>
      <point x="732" y="-34" type="line"/>
      <point x="724" y="-22"/>
      <point x="656" y="54"/>
      <point x="562" y="155"/>
      <point x="455" y="269"/>
      <point x="361" y="370"/>
      <point x="294" y="445"/>
      <point x="287" y="457" type="qcurve"/>
      <point x="271" y="483" type="line"/>
      <point x="270" y="475"/>
      <point x="270" y="459"/>
      <point x="270" y="451" type="qcurve"/>
      <point x="227" y="107" type="line"/>
    </contour>
    <contour>
      <point x="472" y="745" type="qcurve"/>
      <point x="450" y="775"/>
      <point x="431" y="802" type="qcurve"/>
      <point x="414" y="825"/>
      <point x="380" y="875"/>
      <point x="369" y="892" type="qcurve"/>
      <point x="440" y="892" type="line"/>
      <point x="485" y="846" type="line"/>
      <point x="541" y="892" type="line"/>
      <point x="613" y="892" type="line"/>
      <point x="596" y="875"/>
      <point x="549" y="824"/>
      <point x="526" y="801" type="qcurve"/>
      <point x="500" y="774"/>
    </contour>
  </outline>
</glyph>
<glyph name="uni0157" format="2">
  <advance width="361"/>
  <unicode hex="0157"/>
  <outline>
    <contour>
      <point x="167" y="96" type="line"/>
      <point x="164" y="83" type="line"/>
      <point x="261" y="83" type="line"/>
      <point x="251" y="0" type="line"/>
      <point x="3" y="0" type="line"/>
      <point x="13" y="83" type="line"/>
      <point x="69" y="83" type="line"/>
      <point x="71" y="99" type="line"/>
      <point x="101" y="342" type="line"/>
      <point x="44" y="342" type="line"/>
      <point x="55" y="425" type="line"/>
      <point x="196" y="425" type="line"/>
      <point x="194" y="407"/>
      <point x="193" y="379"/>
      <point x="192" y="354"/>
      <point x="191" y="330"/>
      <point x="190" y="316" type="qcurve"/>
      <point x="207" y="344"/>
      <point x="256" y="388"/>
      <point x="308" y="419"/>
      <point x="356" y="436"/>
      <point x="372" y="436" type="qcurve"/>
      <point x="335" y="312" type="line"/>
      <point x="308" y="312"/>
      <point x="254" y="298"/>
      <point x="211" y="269"/>
      <point x="181" y="226"/>
      <point x="178" y="197" type="qcurve"/>
      <point x="165" y="96" type="line"/>
    </contour>
    <contour>
      <point x="193" y="-21" type="line"/>
      <point x="105" y="-179" type="line"/>
      <point x="21" y="-179" type="line"/>
      <point x="34" y="-153"/>
      <point x="52" y="-117"/>
      <point x="68" y="-84"/>
      <point x="86" y="-48"/>
      <point x="99" y="-21" type="qcurve"/>
    </contour>
  </outline>
</glyph>
<glyph name="Rcaron" format="2">
  <advance width="701"/>
  <unicode hex="0158"/>
  <outline>
    <contour>
      <point x="679" y="107" type="line"/>
      <point x="666" y="0" type="line"/>
      <point x="489" y="0" type="line"/>
      <point x="453" y="71"/>
      <point x="388" y="195"/>
      <point x="358" y="251" type="qcurve"/>
      <point x="348" y="251" type="line"/>
      <point x="246" y="251" type="line"/>
      <point x="228" y="107" type="line"/>
      <point x="305" y="107" type="line"/>
      <point x="292" y="0" type="line"/>
      <point x="9" y="0" type="line"/>
      <point x="22" y="107" type="line"/>
      <point x="105" y="107" type="line"/>
      <point x="169" y="622" type="line"/>
      <point x="85" y="622" type="line"/>
      <point x="98" y="729" type="line"/>
      <point x="388" y="729" type="line"/>
      <point x="499" y="729"/>
      <point x="628" y="620"/>
      <point x="628" y="523" type="qcurve"/>
      <point x="628" y="490"/>
      <point x="613" y="421"/>
      <point x="580" y="357"/>
      <point x="528" y="302"/>
      <point x="492" y="283" type="qcurve"/>
      <point x="515" y="237"/>
      <point x="557" y="152"/>
      <point x="580" y="107" type="qcurve"/>
    </contour>
    <contour>
      <point x="260" y="366" type="line"/>
      <point x="358" y="366" type="line"/>
      <point x="399" y="366"/>
      <point x="455" y="395"/>
      <point x="489" y="438"/>
      <point x="503" y="486"/>
      <point x="503" y="506" type="qcurve"/>
      <point x="503" y="523"/>
      <point x="492" y="561"/>
      <point x="466" y="593"/>
      <point x="422" y="614"/>
      <point x="389" y="614" type="qcurve"/>
      <point x="290" y="614" type="line"/>
    </contour>
    <contour>
      <point x="360" y="778" type="qcurve"/>
      <point x="338" y="808"/>
      <point x="319" y="835" type="qcurve"/>
      <point x="302" y="858"/>
      <point x="268" y="908"/>
      <point x="257" y="925" type="qcurve"/>
      <point x="328" y="925" type="line"/>
      <point x="373" y="879" type="line"/>
      <point x="429" y="925" type="line"/>
      <point x="501" y="925" type="line"/>
      <point x="484" y="908"/>
      <point x="437" y="857"/>
      <point x="414" y="834" type="qcurve"/>
      <point x="388" y="807"/>
    </contour>
  </outline>
</glyph>
<glyph name="rcaron" format="2">
  <advance width="361"/>
  <unicode hex="0159"/>
  <outline>
    <contour>
      <point x="167" y="96" type="line"/>
      <point x="164" y="83" type="line"/>
      <point x="261" y="83" type="line"/>
      <point x="251" y="0" type="line"/>
      <point x="3" y="0" type="line"/>
      <point x="13" y="83" type="line"/>
      <point x="69" y="83" type="line"/>
      <point x="71" y="99" type="line"/>
      <point x="101" y="342" type="line"/>
      <point x="44" y="342" type="line"/>
      <point x="55" y="425" type="line"/>
      <point x="196" y="425" type="line"/>
      <point x="194" y="407"/>
      <point x="193" y="379"/>
      <point x="192" y="354"/>
      <point x="191" y="330"/>
      <point x="190" y="316" type="qcurve"/>
      <point x="207" y="344"/>
      <point x="256" y="388"/>
      <point x="308" y="419"/>
      <point x="356" y="436"/>
      <point x="372" y="436" type="qcurve"/>
      <point x="335" y="312" type="line"/>
      <point x="308" y="312"/>
      <point x="254" y="298"/>
      <point x="211" y="269"/>
      <point x="181" y="226"/>
      <point x="178" y="197" type="qcurve"/>
      <point x="165" y="96" type="line"/>
    </contour>
    <contour>
      <point x="219" y="487" type="qcurve"/>
      <point x="197" y="517"/>
      <point x="178" y="544" type="qcurve"/>
      <point x="161" y="567"/>
      <point x="127" y="617"/>
      <point x="116" y="634" type="qcurve"/>
      <point x="187" y="634" type="line"/>
      <point x="232" y="588" type="line"/>
      <point x="288" y="634" type="line"/>
      <point x="360" y="634" type="line"/>
      <point x="343" y="617"/>
      <point x="296" y="566"/>
      <point x="273" y="543" type="qcurve"/>
      <point x="247" y="516"/>
    </contour>
  </outline>
</glyph>
